<?xml version="1.0" encoding="utf-8"?>
<!-- Generator: Adobe Illustrator 22.0.0, SVG Export Plug-In . SVG Version: 6.00 Build 0)  -->
<svg version="1.1" id="Layer_1" xmlns="http://www.w3.org/2000/svg" xmlns:xlink="http://www.w3.org/1999/xlink" x="0px" y="0px"
	 viewBox="0 0 1366 768" style="enable-background:new 0 0 1366 768;" xml:space="preserve">
<style type="text/css">
	.st0{clip-path:url(#SVGID_2_);}
	.st1{fill:#FFFFFF;}
	.st2{fill:#09376E;}
	.st3{fill:#448CC7;}
	.st4{fill:none;stroke:#C3E1F7;stroke-width:2;stroke-miterlimit:10;}
</style>
<g>
	<g>
		<defs>
			<rect id="SVGID_1_" x="311" y="-98" width="704" height="704"/>
		</defs>
		<clipPath id="SVGID_2_">
			<use xlink:href="#SVGID_1_"  style="overflow:visible;"/>
		</clipPath>
		<g class="st0">
			<g>
				<g>
					<path class="st1" d="M830.4,705.1c0,19.8-94,35.9-210,35.9c-116,0-210-16.1-210-35.9c0-19.8,94-35.9,210-35.9
						C736.4,669.2,830.4,685.3,830.4,705.1z"/>
					<rect x="546.1" y="454.4" class="st2" width="148.5" height="249.6"/>
					<g>
						<path class="st3" d="M707.3,702.7c0,3.8-3.1,6.9-6.9,6.9h-160c-3.8,0-6.9-3.1-6.9-6.9l0,0c0-3.8,3.1-6.9,6.9-6.9h160
							C704.2,695.8,707.3,698.9,707.3,702.7L707.3,702.7z"/>
						<path class="st3" d="M707.3,656.1c0,3.8-3.1,6.9-6.9,6.9h-160c-3.8,0-6.9-3.1-6.9-6.9l0,0c0-3.8,3.1-6.9,6.9-6.9h160
							C704.2,649.2,707.3,652.3,707.3,656.1L707.3,656.1z"/>
						<path class="st3" d="M707.3,609.5c0,3.8-3.1,6.9-6.9,6.9h-160c-3.8,0-6.9-3.1-6.9-6.9l0,0c0-3.8,3.1-6.9,6.9-6.9h160
							C704.2,602.6,707.3,605.7,707.3,609.5L707.3,609.5z"/>
						<path class="st3" d="M707.3,562.8c0,3.8-3.1,6.9-6.9,6.9h-160c-3.8,0-6.9-3.1-6.9-6.9l0,0c0-3.8,3.1-6.9,6.9-6.9h160
							C704.2,555.9,707.3,559,707.3,562.8L707.3,562.8z"/>
						<path class="st3" d="M707.3,516.2c0,3.8-3.1,6.9-6.9,6.9h-160c-3.8,0-6.9-3.1-6.9-6.9l0,0c0-3.8,3.1-6.9,6.9-6.9h160
							C704.2,509.3,707.3,512.4,707.3,516.2L707.3,516.2z"/>
					</g>
				</g>
				<path class="st1" d="M956,440.3l-59.8-139.9v-27.4c0-2.4-0.3-4.8-0.7-7.2c-8.6-119.3-108-213.4-229.5-213.4v181h-9.2
					c-21.8,0-39.5,17.7-39.5,39.5v9.8H435.8c0.1,110.4,77.8,202.5,181.5,224.9v58.8c0,21.8,17.7,39.5,39.5,39.5h199.8
					c21.8,0,39.5-17.7,39.5-39.5V453.1h51.4C955.3,453.1,959.1,447.4,956,440.3z"/>
				<path class="st3" d="M666,473.1V282.6h190.4C856.3,177.5,771.1,92.3,666,92.3c-105.2,0-190.4,85.2-190.4,190.4
					C475.6,387.9,560.8,473.1,666,473.1z"/>
				<path class="st1" d="M637.2,25.2C637.2,25.2,637.2,25.2,637.2,25.2c-127.1,0-230.1,103-230.1,230c0,0.1,0,0.1,0,0.2h230.1V25.2z
					"/>
				
					<ellipse transform="matrix(0.2281 -0.9736 0.9736 0.2281 238.7902 866.677)" class="st2" cx="666" cy="282.7" rx="126" ry="126"/>
				<path class="st4" d="M665.9,300.1c0,0,0,211.6,0,226c0,14.4-2.1,27.7,19.8,27.7c39.5,0,150.5,0,150.5,0"/>
				
					<ellipse transform="matrix(0.1606 -0.987 0.987 0.1606 279.9665 894.678)" class="st1" cx="666" cy="282.7" rx="66.7" ry="66.7"/>
				<path class="st3" d="M694.2,282.7c0,15.6-12.6,28.2-28.2,28.2c-15.6,0-28.2-12.6-28.2-28.2s12.6-28.2,28.2-28.2
					C681.6,254.6,694.2,267.2,694.2,282.7z"/>
				<path class="st3" d="M911.5,301.9h-63.4c-18.6,0-33.7,16.7-33.7,37.3c0,20.6,15.1,37.3,33.7,37.3h92.2L911.5,301.9z"/>
				<path class="st3" d="M829,500.3c-6.6,0-11.9,5.3-11.9,11.9v104.7h39.6c26.3,0,47.6-21.3,47.6-47.6v-69H829z"/>
			</g>
		</g>
	</g>
</g>
</svg>
