<?xml version="1.0" encoding="utf-8"?>
<!-- Generator: Adobe Illustrator 22.0.0, SVG Export Plug-In . SVG Version: 6.00 Build 0)  -->
<svg version="1.1" id="Layer_1" xmlns="http://www.w3.org/2000/svg" xmlns:xlink="http://www.w3.org/1999/xlink" x="0px" y="0px"
	 viewBox="0 0 1366 768" style="enable-background:new 0 0 1366 768;" xml:space="preserve">
<style type="text/css">
	.st0{fill:#FFFFFF;}
	.st1{fill:#448CC7;}
	.st2{fill:#09376E;}
	.st3{opacity:0.2;}
	.st4{fill:none;stroke:#09376E;stroke-miterlimit:10;}
	.st5{opacity:0.2;fill:none;stroke:#09376E;stroke-miterlimit:10;}
</style>
<g>
	<g>
		<g>
			<path class="st0" d="M911.2,564.4c0,25.4-20,46-44.6,46H498.7c-24.6,0-44.6-20.6-44.6-46V201.9c0-25.4,20-46,44.6-46h367.9
				c24.6,0,44.6,20.6,44.6,46V564.4z"/>
			<g>
				<g>
					<g>
						<g>
							<rect x="620.7" y="94.5" class="st1" width="9.7" height="172.7"/>
							<path class="st2" d="M643.7,94.5c0,10-8.1,18.2-18.2,18.2c-10,0-18.2-8.1-18.2-18.2c0-10,8.1-18.2,18.2-18.2
								C635.6,76.3,643.7,84.4,643.7,94.5z"/>
						</g>
						<g>
							<rect x="734.8" y="94.5" class="st1" width="9.7" height="172.7"/>
							<circle class="st2" cx="739.7" cy="94.5" r="18.2"/>
						</g>
					</g>
					<g>
						<rect x="677.8" y="48.9" class="st1" width="9.7" height="218.3"/>
						<path class="st2" d="M700.8,48.9c0,10-8.1,18.2-18.2,18.2c-10,0-18.2-8.1-18.2-18.2s8.1-18.2,18.2-18.2
							C692.7,30.8,700.8,38.9,700.8,48.9z"/>
					</g>
				</g>
				<g>
					<g>
						<g>
							<rect x="734.8" y="499" class="st1" width="9.7" height="172.7"/>
							<path class="st2" d="M721.5,671.8c0-10,8.1-18.2,18.2-18.2c10,0,18.2,8.1,18.2,18.2s-8.1,18.2-18.2,18.2
								C729.7,689.9,721.5,681.8,721.5,671.8z"/>
						</g>
						<g>
							<rect x="620.7" y="499" class="st1" width="9.7" height="172.7"/>
							<path class="st2" d="M607.4,671.8c0-10,8.1-18.2,18.2-18.2c10,0,18.2,8.1,18.2,18.2s-8.1,18.2-18.2,18.2
								C615.6,689.9,607.4,681.8,607.4,671.8z"/>
						</g>
					</g>
					<g>
						<rect x="677.8" y="499" class="st1" width="9.7" height="218.3"/>
						<path class="st2" d="M664.5,717.3c0-10,8.1-18.2,18.2-18.2c10,0,18.2,8.1,18.2,18.2c0,10-8.1,18.2-18.2,18.2
							C672.6,735.5,664.5,727.4,664.5,717.3z"/>
					</g>
				</g>
			</g>
			<g>
				<g>
					<g>
						<g>
							<rect x="394" y="435.3" class="st1" width="172.7" height="9.7"/>
							<circle class="st2" cx="394" cy="440.2" r="18.2"/>
						</g>
						<g>
							<rect x="394" y="321.2" class="st1" width="172.7" height="9.7"/>
							<circle class="st2" cx="394" cy="326.1" r="18.2"/>
						</g>
					</g>
					<g>
						<rect x="348.4" y="378.3" class="st1" width="218.3" height="9.7"/>
						<circle class="st2" cx="348.4" cy="383.1" r="18.2"/>
					</g>
				</g>
				<g>
					<g>
						<g>
							<rect x="798.6" y="321.2" class="st1" width="172.7" height="9.7"/>
							<path class="st2" d="M971.3,344.2c-10,0-18.2-8.1-18.2-18.2c0-10,8.1-18.2,18.2-18.2c10,0,18.2,8.1,18.2,18.2
								C989.5,336.1,981.3,344.2,971.3,344.2z"/>
						</g>
						<g>
							<rect x="798.6" y="435.3" class="st1" width="172.7" height="9.7"/>
							<path class="st2" d="M971.3,458.3c-10,0-18.2-8.1-18.2-18.2c0-10,8.1-18.2,18.2-18.2c10,0,18.2,8.1,18.2,18.2
								C989.5,450.2,981.3,458.3,971.3,458.3z"/>
						</g>
					</g>
					<g>
						<rect x="798.6" y="378.3" class="st1" width="218.3" height="9.7"/>
						<path class="st2" d="M1016.8,401.3c-10,0-18.2-8.1-18.2-18.2c0-10,8.1-18.2,18.2-18.2c10,0,18.2,8.1,18.2,18.2
							C1035,393.1,1026.9,401.3,1016.8,401.3z"/>
					</g>
				</g>
			</g>
			<g>
				<g>
					<path class="st2" d="M849.5,539.5c0,2.2-1.8,4-4,4H519.7c-2.2,0-4-1.8-4-4V226.8c0-2.2,1.8-4,4-4h325.8c2.2,0,4,1.8,4,4V539.5z
						"/>
				</g>
				<g>
					<path class="st1" d="M821.6,507.3c0,2.2-1.8,4-4,4H547.7c-2.2,0-4-1.8-4-4V258.9c0-2.2,1.8-4,4-4h269.8c2.2,0,4,1.8,4,4V507.3z
						"/>
				</g>
			</g>
		</g>
		<g class="st3">
			<rect x="636.4" y="336.9" class="st4" width="92.5" height="92.5"/>
			<g>
				<g>
					<polyline class="st4" points="695.5,335.2 695.5,301.5 723.2,284.3 723.2,249.9 					"/>
					<polyline class="st4" points="669.7,335.2 669.7,298.6 642.1,281.4 642.1,247 					"/>
				</g>
				<g>
					<polyline class="st4" points="669.7,431.1 669.7,464.7 642.1,481.9 642.1,516.4 					"/>
					<polyline class="st4" points="695.5,431.1 695.5,467.7 723.2,484.9 723.2,519.3 					"/>
				</g>
			</g>
			<g>
				<g>
					<polyline class="st4" points="634.7,370.2 601,370.2 583.8,342.6 535.8,342.6 					"/>
					<polyline class="st4" points="634.7,396 598.1,396 580.9,423.7 532.9,423.7 					"/>
				</g>
				<g>
					<polyline class="st4" points="730.6,396 764.3,396 781.5,423.7 829.5,423.7 					"/>
					<polyline class="st4" points="730.6,370.2 767.2,370.2 784.4,342.6 832.4,342.6 					"/>
				</g>
			</g>
		</g>
	</g>
	<path class="st5" d="M703.2,396.9c0,3.7-3,6.8-6.8,6.8h-27.6c-3.7,0-6.8-3-6.8-6.8v-27.6c0-3.7,3-6.8,6.8-6.8h27.6
		c3.7,0,6.8,3,6.8,6.8V396.9z"/>
</g>
</svg>
