<?xml version="1.0" encoding="utf-8"?>
<!-- Generator: Adobe Illustrator 22.0.0, SVG Export Plug-In . SVG Version: 6.00 Build 0)  -->
<svg version="1.1" id="Layer_1" xmlns="http://www.w3.org/2000/svg" xmlns:xlink="http://www.w3.org/1999/xlink" x="0px" y="0px"
	 viewBox="0 0 1366 768" style="enable-background:new 0 0 1366 768;" xml:space="preserve">
<style type="text/css">
	.st0{fill:#448CC7;}
	.st1{fill:#09376E;}
	.st2{fill:#FFFFFF;}
</style>
<g>
	
		<rect x="784.1" y="313" transform="matrix(0.3197 -0.9475 0.9475 0.3197 271.1205 1051.5144)" class="st0" width="167.4" height="47.8"/>
	<polygon class="st0" points="507.8,297.5 473.8,263.8 644.4,66.4 678.4,100.1 	"/>
	<polygon class="st0" points="479.1,274.8 514.7,277.3 511.4,470.4 475.8,467.9 	"/>
	<g>
		<rect x="734.2" y="664.4" class="st0" width="190" height="36.7"/>
		<path class="st1" d="M947.9,722.8c0,1.8-1.4,3.2-3.2,3.2H713.8c-1.8,0-3.2-1.4-3.2-3.2v-32.4c0-1.8,1.4-3.2,3.2-3.2h230.9
			c1.8,0,3.2,1.4,3.2,3.2V722.8z"/>
		<path class="st2" d="M940,664.4V450.7c0-61.2-49.6-110.8-110.8-110.8s-110.8,49.6-110.8,110.8v213.7H940z"/>
	</g>
	
		<ellipse transform="matrix(0.7071 -0.7071 0.7071 0.7071 -65.4661 714.074)" class="st1" cx="829.2" cy="436.1" rx="55.8" ry="55.8"/>
	<path class="st0" d="M854.8,436.1c0,14.1-11.5,25.6-25.6,25.6c-14.1,0-25.6-11.5-25.6-25.6c0-14.1,11.5-25.6,25.6-25.6
		C843.4,410.5,854.8,421.9,854.8,436.1z"/>
	<g>
		<path class="st2" d="M616.7,49.2c-19.8,27.1-13.9,65.1,13.2,84.9L855,298.5c27.1,19.8,65.1,13.9,84.9-13.2
			c19.8-27.1,13.9-65.1-13.2-84.9L701.6,36C674.5,16.2,636.5,22.1,616.7,49.2z"/>
		<g>
			<g>
				<path class="st1" d="M677.3,55.6c13.7,10,16.6,29.1,6.7,42.8c-10,13.7-29.1,16.6-42.8,6.7c-13.7-10-16.6-29.1-6.7-42.8
					C644.5,48.6,663.7,45.6,677.3,55.6z"/>
				<path class="st0" d="M667.5,69c6.3,4.6,7.6,13.3,3.1,19.6c-4.6,6.3-13.4,7.6-19.6,3.1c-6.3-4.6-7.6-13.3-3.1-19.6
					C652.5,65.8,661.3,64.4,667.5,69z"/>
			</g>
			<g>
				<path class="st1" d="M915.3,229.4c13.7,10,16.6,29.1,6.7,42.8c-10,13.7-29.1,16.6-42.8,6.7c-13.7-10-16.6-29.1-6.7-42.8
					C882.5,222.4,901.7,219.5,915.3,229.4z"/>
				<path class="st0" d="M905.6,242.8c6.3,4.6,7.6,13.3,3.1,19.6c-4.6,6.3-13.3,7.6-19.6,3.1c-6.3-4.6-7.6-13.4-3.1-19.6
					C890.5,239.6,899.3,238.3,905.6,242.8z"/>
			</g>
		</g>
	</g>
	<g>
		<g>
			<polygon class="st1" points="560,626.6 578.4,625.1 585.5,506.9 497.2,467.7 501.6,522 561,523.8 			"/>
			<polygon class="st1" points="438.7,636.3 457.1,634.9 439.7,533.6 498,522.3 493.7,468 412.7,520.9 			"/>
		</g>
		<path class="st2" d="M453.8,490.9c-1.8-22.9,15.2-43,38.1-44.8c22.9-1.8,43,15.2,44.8,38.1c1.8,22.9-15.2,43-38.1,44.8
			C475.7,530.9,455.6,513.8,453.8,490.9z"/>
		<path class="st0" d="M474.5,489.2c-0.9-11.4,7.6-21.5,19-22.4c11.4-0.9,21.5,7.6,22.4,19c0.9,11.4-7.6,21.5-19.1,22.4
			C485.5,509.2,475.4,500.7,474.5,489.2z"/>
		<path class="st2" d="M453.8,283.5c-1.8-22.9,15.2-43,38.1-44.8c22.9-1.8,43,15.2,44.8,38.1c1.8,22.9-15.2,43-38.1,44.8
			C475.7,323.5,455.6,306.4,453.8,283.5z"/>
		<path class="st0" d="M474.5,281.8c-0.9-11.4,7.6-21.5,19-22.4c11.4-0.9,21.5,7.6,22.4,19c0.9,11.4-7.6,21.5-19.1,22.4
			C485.5,301.8,475.4,293.2,474.5,281.8z"/>
	</g>
</g>
</svg>
