<?xml version="1.0" encoding="utf-8"?>
<!-- Generator: Adobe Illustrator 22.0.0, SVG Export Plug-In . SVG Version: 6.00 Build 0)  -->
<svg version="1.1" id="Layer_1" xmlns="http://www.w3.org/2000/svg" xmlns:xlink="http://www.w3.org/1999/xlink" x="0px" y="0px"
	 viewBox="0 0 1366 768" style="enable-background:new 0 0 1366 768;" xml:space="preserve">
<style type="text/css">
	.st0{fill:none;stroke:#448CC7;stroke-width:2;stroke-linecap:round;stroke-linejoin:round;stroke-miterlimit:10;}
	.st1{fill:#09376E;}
	.st2{fill:#FFFFFF;}
	.st3{fill:#448CC7;}
	.st4{opacity:0.28;}
	.st5{clip-path:url(#SVGID_2_);}
	.st6{fill:none;stroke:#448CC7;stroke-miterlimit:10;}
</style>
<g>
	<g>
		<g>
			<g>
				<polyline class="st0" points="702.8,254.5 702.8,117.7 745.1,91.4 745.1,45.5 				"/>
				<polyline class="st0" points="663.4,254.5 663.4,113.2 621.1,86.9 621.1,45.5 				"/>
			</g>
			<g>
				<g>
					<polyline class="st0" points="740.9,259.6 740.9,152.9 801,115.5 801,45.5 					"/>
				</g>
				<g>
					<polyline class="st0" points="625.3,259.6 625.3,152.9 565.2,115.5 565.2,45.5 					"/>
				</g>
			</g>
			<g>
				<g>
					<g>
						<polyline class="st0" points="786.7,305.6 786.7,183.1 862.7,130.1 862.7,45.5 						"/>
					</g>
				</g>
				<g>
					<g>
						<polyline class="st0" points="579.5,305.6 579.5,183.1 503.5,130.1 503.5,45.5 						"/>
					</g>
				</g>
			</g>
			<g>
				<path class="st1" d="M503.5,22.3c11.2,0,20.3,9.1,20.3,20.3c0,11.2-9.1,20.3-20.3,20.3c-11.2,0-20.3-9.1-20.3-20.3
					C483.2,31.4,492.3,22.3,503.5,22.3z"/>
				<path class="st1" d="M862.7,22.3c11.2,0,20.3,9.1,20.3,20.3c0,11.2-9.1,20.3-20.3,20.3c-11.2,0-20.3-9.1-20.3-20.3
					C842.4,31.4,851.5,22.3,862.7,22.3z"/>
			</g>
			<g>
				<path class="st1" d="M799.9,22.3c11.2,0,20.3,9.1,20.3,20.3c0,11.2-9.1,20.3-20.3,20.3c-11.2,0-20.3-9.1-20.3-20.3
					C779.7,31.4,788.7,22.3,799.9,22.3z"/>
				<path class="st1" d="M744,22.3c11.2,0,20.3,9.1,20.3,20.3c0,11.2-9.1,20.3-20.3,20.3c-11.2,0-20.3-9.1-20.3-20.3
					C723.7,31.4,732.8,22.3,744,22.3z"/>
				<path class="st1" d="M622.2,22.3c11.2,0,20.3,9.1,20.3,20.3c0,11.2-9.1,20.3-20.3,20.3c-11.2,0-20.3-9.1-20.3-20.3
					C601.9,31.4,611,22.3,622.2,22.3z"/>
				<path class="st1" d="M566.3,22.3c11.2,0,20.3,9.1,20.3,20.3c0,11.2-9.1,20.3-20.3,20.3c-11.2,0-20.3-9.1-20.3-20.3
					C546,31.4,555.1,22.3,566.3,22.3z"/>
			</g>
		</g>
		<g>
			<g>
				<polyline class="st0" points="663.4,499 663.4,632.6 621.1,658.9 621.1,704.9 				"/>
				<polyline class="st0" points="702.8,499 702.8,637.1 745.1,663.4 745.1,704.9 				"/>
			</g>
			<g>
				<g>
					<polyline class="st0" points="625.3,487.1 625.3,597.5 565.2,634.9 565.2,704.9 					"/>
				</g>
				<g>
					<polyline class="st0" points="740.9,487.1 740.9,597.5 801,634.9 801,704.9 					"/>
				</g>
			</g>
			<g>
				<g>
					<g>
						<polyline class="st0" points="579.5,444.7 579.5,567.3 503.5,620.2 503.5,704.9 						"/>
					</g>
				</g>
				<g>
					<g>
						<polyline class="st0" points="786.7,444.7 786.7,567.3 862.7,620.2 862.7,704.9 						"/>
					</g>
				</g>
			</g>
			<g>
				<path class="st1" d="M862.7,728c-11.2,0-20.3-9.1-20.3-20.3c0-11.2,9.1-20.3,20.3-20.3c11.2,0,20.3,9.1,20.3,20.3
					C883,718.9,873.9,728,862.7,728z"/>
				<path class="st1" d="M503.5,728c-11.2,0-20.3-9.1-20.3-20.3c0-11.2,9.1-20.3,20.3-20.3c11.2,0,20.3,9.1,20.3,20.3
					C523.7,718.9,514.7,728,503.5,728z"/>
			</g>
			<g>
				<path class="st1" d="M566.3,728c-11.2,0-20.3-9.1-20.3-20.3c0-11.2,9.1-20.3,20.3-20.3c11.2,0,20.3,9.1,20.3,20.3
					C586.5,718.9,577.4,728,566.3,728z"/>
				<path class="st1" d="M622.2,728c-11.2,0-20.3-9.1-20.3-20.3c0-11.2,9.1-20.3,20.3-20.3c11.2,0,20.3,9.1,20.3,20.3
					C642.4,718.9,633.4,728,622.2,728z"/>
				<path class="st1" d="M744,728c-11.2,0-20.3-9.1-20.3-20.3c0-11.2,9.1-20.3,20.3-20.3c11.2,0,20.3,9.1,20.3,20.3
					C764.3,718.9,755.2,728,744,728z"/>
				<path class="st1" d="M799.9,728c-11.2,0-20.3-9.1-20.3-20.3c0-11.2,9.1-20.3,20.3-20.3c11.2,0,20.3,9.1,20.3,20.3
					C820.2,718.9,811.1,728,799.9,728z"/>
			</g>
		</g>
	</g>
	<g>
		<path class="st2" d="M970,375.2c0,0-128.5,169.8-286.9,169.8S396.2,375.2,396.2,375.2s128.5-169.8,286.9-169.8
			S970,375.2,970,375.2z"/>
		
			<ellipse transform="matrix(0.2316 -0.9728 0.9728 0.2316 159.9166 952.8011)" class="st3" cx="683.1" cy="375.2" rx="134.5" ry="134.5"/>
		
			<ellipse transform="matrix(0.7071 -0.7071 0.7071 0.7071 -65.213 592.9048)" class="st1" cx="683.1" cy="375.2" rx="114.6" ry="114.6"/>
		<path class="st3" d="M728.5,375.2c0,25.1-20.3,45.4-45.4,45.4c-25.1,0-45.4-20.3-45.4-45.4c0-25.1,20.3-45.4,45.4-45.4
			C708.2,329.8,728.5,350.1,728.5,375.2z"/>
		<g class="st4">
			<defs>
				
					<ellipse id="SVGID_1_" transform="matrix(0.7071 -0.7071 0.7071 0.7071 -65.213 592.9048)" class="st4" cx="683.1" cy="375.2" rx="114.6" ry="114.6"/>
			</defs>
			<clipPath id="SVGID_2_">
				<use xlink:href="#SVGID_1_"  style="overflow:visible;"/>
			</clipPath>
			<g class="st5">
				<g>
					<g>
						<polyline class="st6" points="644.4,245.4 644.4,292.6 662.8,302.2 662.8,341.5 						"/>
						<polyline class="st6" points="721.8,245.4 721.8,292.6 703.4,302.2 703.4,341.5 						"/>
					</g>
					<g>
						<polyline class="st6" points="721.8,504.9 721.8,457.7 703.4,448.1 703.4,408.8 						"/>
						<polyline class="st6" points="644.4,504.9 644.4,457.7 662.8,448.1 662.8,408.8 						"/>
					</g>
				</g>
				<g>
					<g>
						<polyline class="st6" points="553.3,413.8 600.5,413.8 610.1,395.5 649.5,395.5 						"/>
						<polyline class="st6" points="553.3,336.5 600.5,336.5 610.1,354.9 649.5,354.9 						"/>
					</g>
					<g>
						<polyline class="st6" points="812.9,336.5 765.7,336.5 756.1,354.9 716.7,354.9 						"/>
						<polyline class="st6" points="812.9,413.8 765.7,413.8 756.1,395.5 716.7,395.5 						"/>
					</g>
				</g>
			</g>
		</g>
		<path class="st2" d="M671.6,334.3c0,11.5-9.3,20.9-20.9,20.9s-20.9-9.3-20.9-20.9c0-11.5,9.3-20.9,20.9-20.9
			S671.6,322.7,671.6,334.3z"/>
	</g>
</g>
</svg>
