<?xml version="1.0" encoding="utf-8"?>
<!-- Generator: Adobe Illustrator 22.0.0, SVG Export Plug-In . SVG Version: 6.00 Build 0)  -->
<svg version="1.1" id="Layer_1" xmlns="http://www.w3.org/2000/svg" xmlns:xlink="http://www.w3.org/1999/xlink" x="0px" y="0px"
	 viewBox="0 0 1366 768" style="enable-background:new 0 0 1366 768;" xml:space="preserve">
<style type="text/css">
	.st0{fill:#09376E;}
	.st1{fill:#448CC7;}
	.st2{opacity:0.4;fill:#448CC7;}
	.st3{fill:#FFFFFF;}
</style>
<g>
	<rect x="659.1" y="466.1" class="st0" width="108.9" height="195.3"/>
	<path class="st1" d="M788.8,527.5c0,8.4-9.8,15.2-22,15.2H660.4c-12.1,0-22-6.8-22-15.2l0,0c0-8.4,9.8-15.2,22-15.2h106.4
		C778.9,512.3,788.8,519.1,788.8,527.5L788.8,527.5z"/>
	<path class="st1" d="M558.7,324c0.9,9.6-6.2,18-15.7,18.9l0,0c-9.6,0.9-18-6.2-18.9-15.7l-3.8-39.5c-0.9-9.6,6.2-18,15.7-18.9l0,0
		c9.6-0.9,18,6.2,18.9,15.7L558.7,324z"/>
	<path class="st0" d="M666.8,389.5c14.6,11.8,16.9,33.2,5.1,47.9l0,0c-11.8,14.6-33.2,16.9-47.9,5.1l-94.5-76.1
		c-14.6-11.8-16.9-33.2-5.1-47.9l0,0c11.8-14.6,33.2-16.9,47.9-5.1L666.8,389.5z"/>
	<path class="st2" d="M560.8,339.1c0,7.4-6,13.3-13.3,13.3c-7.4,0-13.3-6-13.3-13.3c0-7.4,6-13.3,13.3-13.3
		C554.8,325.8,560.8,331.7,560.8,339.1z"/>
	<path class="st0" d="M565.2,274.8c-3.3,14.4-17.6,23.4-32,20.1l0,0c-14.4-3.3-23.4-17.6-20.1-32l9.5-41.5
		c3.3-14.4,17.6-23.4,32-20.1l0,0c14.4,3.3,23.4,17.6,20.1,32L565.2,274.8z"/>
	<g>
		<path class="st1" d="M642.5,183.6c0,7.9-6.4,14.2-14.2,14.2l0,0c-7.9,0-14.2-6.4-14.2-14.2v-48.1c0-7.9,6.4-14.2,14.2-14.2l0,0
			c7.9,0,14.2,6.4,14.2,14.2V183.6z"/>
		<path class="st1" d="M699.4,183.6c0,7.9-6.4,14.2-14.2,14.2l0,0c-7.9,0-14.2-6.4-14.2-14.2v-48.1c0-7.9,6.4-14.2,14.2-14.2l0,0
			c7.9,0,14.2,6.4,14.2,14.2V183.6z"/>
		<path class="st1" d="M756.3,183.6c0,7.9-6.4,14.2-14.2,14.2l0,0c-7.9,0-14.2-6.4-14.2-14.2v-48.1c0-7.9,6.4-14.2,14.2-14.2l0,0
			c7.9,0,14.2,6.4,14.2,14.2V183.6z"/>
		<path class="st1" d="M813.1,183.6c0,7.9-6.4,14.2-14.2,14.2l0,0c-7.9,0-14.2-6.4-14.2-14.2v-48.1c0-7.9,6.4-14.2,14.2-14.2l0,0
			c7.9,0,14.2,6.4,14.2,14.2V183.6z"/>
		<g>
			<path class="st0" d="M648.6,256.8c0,11.2-9.1,20.3-20.3,20.3l0,0c-11.2,0-20.3-9.1-20.3-20.3v-79.7c0-11.2,9.1-20.3,20.3-20.3
				l0,0c11.2,0,20.3,9.1,20.3,20.3V256.8z"/>
			<path class="st0" d="M705.5,256.8c0,11.2-9.1,20.3-20.3,20.3l0,0c-11.2,0-20.3-9.1-20.3-20.3v-79.7c0-11.2,9.1-20.3,20.3-20.3
				l0,0c11.2,0,20.3,9.1,20.3,20.3V256.8z"/>
			<path class="st0" d="M762.3,256.8c0,11.2-9.1,20.3-20.3,20.3l0,0c-11.2,0-20.3-9.1-20.3-20.3v-79.7c0-11.2,9.1-20.3,20.3-20.3
				l0,0c11.2,0,20.3,9.1,20.3,20.3V256.8z"/>
			<path class="st0" d="M819.2,256.8c0,11.2-9.1,20.3-20.3,20.3l0,0c-11.2,0-20.3-9.1-20.3-20.3v-79.7c0-11.2,9.1-20.3,20.3-20.3
				l0,0c11.2,0,20.3,9.1,20.3,20.3V256.8z"/>
		</g>
		<path class="st2" d="M637.8,177.2c0,5.2-4.2,9.5-9.5,9.5c-5.2,0-9.5-4.2-9.5-9.5c0-5.2,4.2-9.5,9.5-9.5
			C633.5,167.7,637.8,172,637.8,177.2z"/>
		<path class="st2" d="M694.6,177.2c0,5.2-4.2,9.5-9.5,9.5c-5.2,0-9.5-4.2-9.5-9.5c0-5.2,4.2-9.5,9.5-9.5
			C690.4,167.7,694.6,172,694.6,177.2z"/>
		<path class="st2" d="M751.5,177.2c0,5.2-4.2,9.5-9.5,9.5c-5.2,0-9.5-4.2-9.5-9.5c0-5.2,4.2-9.5,9.5-9.5
			C747.3,167.7,751.5,172,751.5,177.2z"/>
		<path class="st2" d="M808.4,177.2c0,5.2-4.2,9.5-9.5,9.5c-5.2,0-9.5-4.2-9.5-9.5c0-5.2,4.2-9.5,9.5-9.5
			C804.1,167.7,808.4,172,808.4,177.2z"/>
		<path class="st0" d="M647.1,124.2c0,10-8.1,18.1-18.1,18.1l0,0c-10,0-18.1-8.1-18.1-18.1V47.4c0-10,8.1-18.1,18.1-18.1l0,0
			c10,0,18.1,8.1,18.1,18.1V124.2z"/>
		<path class="st0" d="M760.2,124.2c0,10-8.1,18.1-18.1,18.1l0,0c-10,0-18.1-8.1-18.1-18.1V60.8c0-10,8.1-18.1,18.1-18.1l0,0
			c10,0,18.1,8.1,18.1,18.1V124.2z"/>
		<path class="st0" d="M817,124.2c0,10-8.1,18.1-18.1,18.1l0,0c-10,0-18.1-8.1-18.1-18.1V80.9c0-10,8.1-18.1,18.1-18.1l0,0
			c10,0,18.1,8.1,18.1,18.1V124.2z"/>
		<path class="st0" d="M703.4,124.2c0,10-8.1,18.1-18.1,18.1l0,0c-10,0-18.1-8.1-18.1-18.1V40.7c0-10,8.1-18.1,18.1-18.1l0,0
			c10,0,18.1,8.1,18.1,18.1V124.2z"/>
		<path class="st2" d="M634.7,125.1c0,3.5-2.8,6.4-6.4,6.4c-3.5,0-6.4-2.9-6.4-6.4c0-3.5,2.9-6.4,6.4-6.4
			C631.8,118.7,634.7,121.6,634.7,125.1z"/>
		<path class="st2" d="M691.5,125.1c0,3.5-2.8,6.4-6.4,6.4c-3.5,0-6.4-2.9-6.4-6.4c0-3.5,2.8-6.4,6.4-6.4
			C688.7,118.7,691.5,121.6,691.5,125.1z"/>
		<path class="st2" d="M748.4,125.1c0,3.5-2.8,6.4-6.4,6.4c-3.5,0-6.4-2.9-6.4-6.4c0-3.5,2.8-6.4,6.4-6.4
			C745.5,118.7,748.4,121.6,748.4,125.1z"/>
		<path class="st2" d="M805.3,125.1c0,3.5-2.8,6.4-6.4,6.4c-3.5,0-6.4-2.9-6.4-6.4c0-3.5,2.8-6.4,6.4-6.4
			C802.4,118.7,805.3,121.6,805.3,125.1z"/>
	</g>
	<path class="st2" d="M547.4,270c0,5.7-4.6,10.2-10.2,10.2c-5.7,0-10.2-4.6-10.2-10.2c0-5.7,4.6-10.2,10.2-10.2
		C542.9,259.8,547.4,264.4,547.4,270z"/>
	<path class="st3" d="M825.9,477c0,25.9-21,46.9-46.9,46.9H648.2c-25.9,0-46.9-21-46.9-46.9l-6.3-208.8c0-25.9,21-46.9,46.9-46.9
		h143.2c25.9,0,46.9,21,46.9,46.9L825.9,477z"/>
	<g>
		<g>
			<path class="st1" d="M645.5,271c0,6.2-5,11.3-11.3,11.3c-6.2,0-11.3-5-11.3-11.3c0-6.2,5-11.3,11.3-11.3
				C640.4,259.8,645.5,264.8,645.5,271z"/>
			<path class="st1" d="M804.2,271c0,6.2-5,11.3-11.3,11.3c-6.2,0-11.3-5-11.3-11.3c0-6.2,5-11.3,11.3-11.3
				C799.2,259.8,804.2,264.8,804.2,271z"/>
		</g>
		<g>
			<path class="st1" d="M652.2,483.6c0,6.2-5,11.3-11.3,11.3c-6.2,0-11.3-5-11.3-11.3c0-6.2,5-11.3,11.3-11.3
				C647.1,472.4,652.2,477.4,652.2,483.6z"/>
			<path class="st1" d="M797.5,483.6c0,6.2-5,11.3-11.3,11.3c-6.2,0-11.3-5-11.3-11.3c0-6.2,5-11.3,11.3-11.3
				C792.5,472.4,797.5,477.4,797.5,483.6z"/>
		</g>
	</g>
	<path class="st3" d="M713.6,601.1c-63.2,0-114.5,51.3-114.5,114.5h229C828.1,652.4,776.8,601.1,713.6,601.1z"/>
	<path class="st1" d="M853.2,711.7c0,9-7.3,16.3-16.3,16.3H590.4c-9,0-16.3-7.3-16.3-16.3l0,0c0-9,7.3-16.3,16.3-16.3h246.4
		C845.8,695.3,853.2,702.6,853.2,711.7L853.2,711.7z"/>
</g>
</svg>
