<?xml version="1.0" encoding="utf-8"?>
<!-- Generator: Adobe Illustrator 22.0.0, SVG Export Plug-In . SVG Version: 6.00 Build 0)  -->
<svg version="1.1" id="Layer_1" xmlns="http://www.w3.org/2000/svg" xmlns:xlink="http://www.w3.org/1999/xlink" x="0px" y="0px"
	 viewBox="0 0 1366 768" style="enable-background:new 0 0 1366 768;" xml:space="preserve">
<style type="text/css">
	.st0{fill:none;stroke:#09376E;stroke-width:2.4;stroke-miterlimit:10;}
	.st1{fill:#448CC7;}
	.st2{fill:#09376E;}
	.st3{fill:none;stroke:#09376E;stroke-width:3;stroke-miterlimit:10;}
	.st4{fill:#FFFFFF;}
	.st5{fill:none;stroke:#448CC7;stroke-miterlimit:10;}
</style>
<g>
	<path class="st0" d="M756.1,622.4c0,40.3-32.7,73-72.9,73l0,0c-40.3,0-72.9-32.7-72.9-73v-67.6c0-40.3,32.7-91,72.9-91l0,0
		c40.3,0,72.9,50.7,72.9,91V622.4z"/>
	<g>
		<g>
			<rect x="698.5" y="666.9" class="st1" width="16.7" height="44.9"/>
		</g>
		<g>
			<rect x="651.1" y="666.9" class="st1" width="16.7" height="44.9"/>
		</g>
	</g>
	<path class="st2" d="M705.6,718.3c0,5.3-4.3,9.6-9.6,9.6h-25.7c-5.3,0-9.6-4.3-9.6-9.6v-57.8c0-5.3,4.3-9.6,9.6-9.6H696
		c5.3,0,9.6,4.3,9.6,9.6V718.3z"/>
	<g>
		<path class="st1" d="M678.5,586.9c0,13.3-10.8,24-24,24h-41.8c-13.3,0-24-10.8-24-24v-49.6c0-13.3,10.8-24,24-24h41.8
			c13.3,0,24,10.8,24,24V586.9z"/>
		<path class="st1" d="M777.7,586.9c0,13.3-10.8,24-24,24h-41.8c-13.3,0-24-10.8-24-24v-49.6c0-13.3,10.8-24,24-24h41.8
			c13.3,0,24,10.8,24,24V586.9z"/>
	</g>
	<g>
		<g>
			<g>
				<path class="st3" d="M570.6,425.1c0,0-109.1,12-70.1,170.3"/>
				<g>
					<path class="st1" d="M511.4,662.2c-3.2,0.5-6.2-1.6-6.8-4.8l-6-43.6c-0.5-3.2,1.6-6.2,4.8-6.8l0,0c3.2-0.5,6.2,1.6,6.8,4.8
						l6,43.6C516.8,658.6,514.6,661.6,511.4,662.2L511.4,662.2z"/>
					<path class="st1" d="M529.3,676.5c-2.2,2.4-5.9,2.5-8.3,0.3l-13.8-12.9c-2.4-2.2-2.5-5.9-0.3-8.3l0,0c2.2-2.4,5.9-2.5,8.3-0.3
						l13.8,12.9C531.4,670.4,531.5,674.1,529.3,676.5L529.3,676.5z"/>
					<path class="st2" d="M517.3,658.9c-0.6,3.7-4.1,6.2-7.8,5.6c-3.7-0.6-6.2-4.1-5.6-7.8c0.6-3.7,4.1-6.2,7.8-5.6
						C515.3,651.7,517.9,655.2,517.3,658.9z"/>
				</g>
				<g>
					<path class="st1" d="M540.6,649.8c-2.6,2-6.3,1.5-8.3-1l-26-35.5c-2-2.6-1.5-6.3,1-8.3l0,0c2.6-2,6.3-1.5,8.3,1l26,35.5
						C543.6,644.1,543.2,647.8,540.6,649.8L540.6,649.8z"/>
					<path class="st1" d="M562.3,654.1c-1.1,3.1-4.5,4.7-7.5,3.6l-17.8-6.4c-3.1-1.1-4.7-4.5-3.6-7.5l0,0c1.1-3.1,4.5-4.7,7.5-3.6
						l17.8,6.4C561.8,647.6,563.4,651,562.3,654.1L562.3,654.1z"/>
					<path class="st2" d="M543.9,645.9c-0.2,3.8-3.4,6.7-7.2,6.5c-3.8-0.2-6.7-3.4-6.5-7.2c0.2-3.8,3.4-6.7,7.2-6.5
						C541.2,639,544.1,642.2,543.9,645.9z"/>
				</g>
				<g>
					<path class="st1" d="M544.3,595.8c0.1,3.6-2.7,6.6-6.2,6.7l-28.5,1c-3.6,0.1-6.6-2.7-6.7-6.2l0,0c-0.1-3.6,2.7-6.6,6.2-6.7
						l28.5-1C541.2,589.5,544.2,592.3,544.3,595.8L544.3,595.8z"/>
					<path class="st1" d="M562.2,605.1c-1.3,3.3-5,5-8.4,3.7l-15.2-6.2c-3.3-1.3-5-5-3.7-8.4l0,0c1.3-3.3,5-5,8.4-3.7l15.2,6.2
						C561.8,598.1,563.5,601.8,562.2,605.1L562.2,605.1z"/>
					<path class="st2" d="M545.5,595.2c0.2,3.8-2.7,7-6.4,7.2c-3.8,0.2-7-2.7-7.2-6.4c-0.2-3.8,2.7-7,6.4-7.2
						C542.1,588.6,545.3,591.5,545.5,595.2z"/>
				</g>
				<path class="st4" d="M530.4,612.1c1.9,5.6-1.1,11.7-6.7,13.6l-19.7,6.7c-5.6,1.9-11.7-1.1-13.6-6.7l-9.6-28.2
					c-1.9-5.6,1.1-11.7,6.7-13.6l19.7-6.7c5.6-1.9,11.7,1.1,13.6,6.7L530.4,612.1z"/>
			</g>
			<path class="st1" d="M595.7,451.6c0,5.8-4.7,10.4-10.4,10.4h-15.7c-5.8,0-10.4-4.7-10.4-10.4v-46.9c0-5.8,4.7-10.4,10.4-10.4
				h15.7c5.8,0,10.4,4.7,10.4,10.4V451.6z"/>
		</g>
		<g>
			<g>
				<path class="st3" d="M795.7,425.1c0,0,109.1,12,70.1,170.3"/>
				<g>
					<path class="st1" d="M854.9,662.2c3.2,0.5,6.2-1.6,6.8-4.8l6-43.6c0.5-3.2-1.6-6.2-4.8-6.8l0,0c-3.2-0.5-6.2,1.6-6.8,4.8
						l-6,43.6C849.5,658.6,851.7,661.6,854.9,662.2L854.9,662.2z"/>
					<path class="st1" d="M837,676.5c2.2,2.4,5.9,2.5,8.3,0.3l13.8-12.9c2.4-2.2,2.5-5.9,0.3-8.3l0,0c-2.2-2.4-5.9-2.5-8.3-0.3
						l-13.8,12.9C834.9,670.4,834.8,674.1,837,676.5L837,676.5z"/>
					<path class="st2" d="M849.1,658.9c0.6,3.7,4.1,6.2,7.8,5.6c3.7-0.6,6.2-4.1,5.6-7.8c-0.6-3.7-4.1-6.2-7.8-5.6
						C851,651.7,848.4,655.2,849.1,658.9z"/>
				</g>
				<g>
					<path class="st1" d="M825.7,649.8c2.6,2,6.3,1.5,8.3-1l26-35.5c2-2.6,1.5-6.3-1-8.3l0,0c-2.6-2-6.3-1.5-8.3,1l-26,35.5
						C822.7,644.1,823.1,647.8,825.7,649.8L825.7,649.8z"/>
					<path class="st1" d="M804,654.1c1.1,3.1,4.5,4.7,7.5,3.6l17.8-6.4c3.1-1.1,4.7-4.5,3.6-7.5l0,0c-1.1-3.1-4.5-4.7-7.5-3.6
						l-17.8,6.4C804.5,647.6,802.9,651,804,654.1L804,654.1z"/>
					<path class="st2" d="M822.4,645.9c0.2,3.8,3.4,6.7,7.2,6.5c3.8-0.2,6.7-3.4,6.5-7.2c-0.2-3.8-3.4-6.7-7.2-6.5
						C825.1,639,822.2,642.2,822.4,645.9z"/>
				</g>
				<g>
					<path class="st1" d="M822,595.8c-0.1,3.6,2.7,6.6,6.2,6.7l28.5,1c3.6,0.1,6.6-2.7,6.7-6.2l0,0c0.1-3.6-2.7-6.6-6.2-6.7l-28.5-1
						C825.1,589.5,822.1,592.3,822,595.8L822,595.8z"/>
					<path class="st1" d="M804.1,605.1c1.3,3.3,5,5,8.4,3.7l15.2-6.2c3.3-1.3,5-5,3.7-8.4l0,0c-1.3-3.3-5-5-8.4-3.7l-15.2,6.2
						C804.5,598.1,802.8,601.8,804.1,605.1L804.1,605.1z"/>
					<path class="st2" d="M820.8,595.2c-0.2,3.8,2.7,7,6.4,7.2c3.8,0.2,7-2.7,7.2-6.4c0.2-3.8-2.7-7-6.4-7.2
						C824.2,588.6,821,591.5,820.8,595.2z"/>
				</g>
				<path class="st4" d="M835.9,612.1c-1.9,5.6,1.1,11.7,6.7,13.6l19.7,6.7c5.6,1.9,11.7-1.1,13.6-6.7l9.6-28.2
					c1.9-5.6-1.1-11.7-6.7-13.6l-19.7-6.7c-5.6-1.9-11.7,1.1-13.6,6.7L835.9,612.1z"/>
			</g>
			<path class="st1" d="M770.6,451.6c0,5.8,4.7,10.4,10.4,10.4h15.7c5.8,0,10.4-4.7,10.4-10.4v-46.9c0-5.8-4.7-10.4-10.4-10.4H781
				c-5.8,0-10.4,4.7-10.4,10.4V451.6z"/>
		</g>
	</g>
	<rect x="659.9" y="326.4" class="st2" width="46.5" height="88.9"/>
	<path class="st1" d="M724.1,429.9c0,6-4.9,10.9-10.9,10.9h-60.1c-6,0-10.9-4.9-10.9-10.9v-49.1c0-6,4.9-10.9,10.9-10.9h60.1
		c6,0,10.9,4.9,10.9,10.9V429.9z"/>
	<path class="st4" d="M792.8,403.5c0-12.9-10.5-23.4-23.4-23.4H596.9c-12.9,0-23.4,10.5-23.4,23.4v53.2h0v50.5
		c0,60.6,49.1,109.6,109.6,109.6c60.6,0,109.6-49.1,109.6-109.6v-50.5h0V403.5z"/>
	<path class="st5" d="M683.2,108.3"/>
	<g>
		<path class="st4" d="M774.5,124v100.4c0,43.9-40.9,67.5-91.4,67.5s-91.4-23.6-91.4-67.5V124c-9.7,7.9-18.2,17-25,27.1v142
			c23.6,35,66.9,55.3,116.4,55.3s92.8-20.2,116.4-55.3v-142C792.8,141,784.3,131.9,774.5,124z"/>
	</g>
	<path class="st2" d="M683.2,292c50.5,0,91.4-23.6,91.4-67.5V124c-24.1-19.5-56.1-31.4-91.4-31.4c-35.3,0-67.3,11.9-91.4,31.4v100.4
		C591.8,268.4,632.7,292,683.2,292z"/>
	<g>
		<path class="st1" d="M763,441.1c0,14.7-11.9,26.6-26.6,26.6c-14.7,0-26.6-11.9-26.6-26.6c0-14.7,11.9-26.6,26.6-26.6
			C751.1,414.5,763,426.4,763,441.1z"/>
		<path class="st2" d="M749,441.1c0,7-5.6,12.6-12.6,12.6c-7,0-12.6-5.6-12.6-12.6s5.6-12.6,12.6-12.6
			C743.3,428.5,749,434.1,749,441.1z"/>
		<path class="st1" d="M744.9,502.8c0,4.7-3.8,8.6-8.6,8.6c-4.7,0-8.6-3.8-8.6-8.6c0-4.7,3.8-8.6,8.6-8.6
			C741.1,494.3,744.9,498.1,744.9,502.8z"/>
		<path class="st1" d="M744.9,535.1c0,4.7-3.8,8.6-8.6,8.6c-4.7,0-8.6-3.8-8.6-8.6s3.8-8.6,8.6-8.6
			C741.1,526.5,744.9,530.3,744.9,535.1z"/>
		<path class="st1" d="M694.4,430.6c0,1.5-1.3,2.8-2.8,2.8h-85.4c-1.5,0-2.8-1.3-2.8-2.8l0,0c0-1.5,1.3-2.8,2.8-2.8h85.4
			C693.1,427.8,694.4,429,694.4,430.6L694.4,430.6z"/>
		<path class="st1" d="M694.4,451.6c0,1.5-1.3,2.8-2.8,2.8h-85.4c-1.5,0-2.8-1.3-2.8-2.8l0,0c0-1.5,1.3-2.8,2.8-2.8h85.4
			C693.1,448.8,694.4,450.1,694.4,451.6L694.4,451.6z"/>
	</g>
	<path class="st5" d="M683.2,49.6"/>
	<path class="st4" d="M715.9,97.4c0,4.4-14.6,8-32.7,8s-32.7-3.6-32.7-8c0-4.4,14.6-8,32.7-8S715.9,93,715.9,97.4z"/>
	<line class="st5" x1="683.2" y1="96.5" x2="683.2" y2="49.6"/>
	<path class="st2" d="M701.6,41.2c0,10.2-8.3,18.4-18.4,18.4s-18.4-8.3-18.4-18.4c0-10.2,8.3-18.4,18.4-18.4S701.6,31,701.6,41.2z"
		/>
	<g>
		<path class="st1" d="M659.9,215c0,6.9-5.6,12.5-12.5,12.5l0,0c-6.9,0-12.5-5.6-12.5-12.5v-33.3c0-6.9,5.6-12.5,12.5-12.5l0,0
			c6.9,0,12.5,5.6,12.5,12.5V215z"/>
		<path class="st1" d="M731.4,215c0,6.9-5.6,12.5-12.5,12.5l0,0c-6.9,0-12.5-5.6-12.5-12.5v-33.3c0-6.9,5.6-12.5,12.5-12.5l0,0
			c6.9,0,12.5,5.6,12.5,12.5V215z"/>
	</g>
</g>
</svg>
