<?xml version="1.0" encoding="utf-8"?>
<!-- Generator: Adobe Illustrator 22.0.0, SVG Export Plug-In . SVG Version: 6.00 Build 0)  -->
<svg version="1.1" id="Layer_1" xmlns="http://www.w3.org/2000/svg" xmlns:xlink="http://www.w3.org/1999/xlink" x="0px" y="0px"
	 viewBox="0 0 1366 768" style="enable-background:new 0 0 1366 768;" xml:space="preserve">
<style type="text/css">
	.st0{fill:#E4ECF1;}
	.st1{opacity:0.8;fill:#C2E0F2;}
	.st2{fill:#B5CBD8;}
	.st3{fill:#5385A6;}
	.st4{fill:#FFFFFF;}
	.st5{opacity:0.5;fill:#C2E0F2;}
	.st6{fill:#364A5B;}
	.st7{fill:#2E3C4D;}
	.st8{fill:#19212C;}
</style>
<g>
	<g>
		<g>
			<path class="st0" d="M622.8,306.3c-12.3,4.2-24.8,12.4-30.5,40.8c-4.7,23.2-18,46.4-33,66.9c-15.1,20.5-24.8,44.1-12.9,61.9
				c11.8,17.8,47.9,36.6,79.1,19.4c31.2-17.2,33.9-42,41.4-68.3c7.5-26.4,14.9-63.6,12.9-84C676.6,310.1,648.1,297.7,622.8,306.3z"
				/>
			<path class="st1" d="M646.5,350.4c4-4.4,22.4-13,31.5-17.1c-7.3-25.6-32.5-34.7-55.2-27c-12.3,4.2-24.8,12.4-30.5,40.8
				c-4.7,23.2-18,46.4-33,66.9c-15.1,20.5-24.8,44.1-12.9,61.9c11.8,17.8,47.9,36.6,79.1,19.4c21.5-11.8,29.4-27.2,34.8-44.3
				c-16.9-17.5-38.6,5.2-39.1,0.7c-0.5-4.8,10.8-25.3,16.1-49.5C642.5,379,641.1,356.4,646.5,350.4z"/>
			<path class="st1" d="M646.5,350.4c4-4.4,22.4-13,31.5-17.1c-7.3-25.6-32.5-34.7-55.2-27c-12.3,4.2-24.8,12.4-30.5,40.8
				c-4.7,23.2-18,46.4-33,66.9c-15.1,20.5-24.8,44.1-12.9,61.9c11.8,17.8,47.9,36.6,79.1,19.4c21.5-11.8,29.4-27.2,34.8-44.3
				c-16.9-17.5-38.6,5.2-39.1,0.7c-0.5-4.8,10.8-25.3,16.1-49.5C642.5,379,641.1,356.4,646.5,350.4z"/>
			<path class="st2" d="M614.6,333.5c-7.3,0.5-12.4,10.8-11.5,22.9c0.9,12.1,7.5,21.5,14.7,20.9c7.3-0.5,12.4-10.8,11.5-22.9
				C628.4,342.3,621.8,333,614.6,333.5z"/>
			<path class="st3" d="M639.9,450.7c-19,3.6-29.7,17.6-39.5,33.4c-4.6,7.4-9.3,13.2-12.5,16.9c12.1,2.2,25.2,1.1,37.6-5.7
				c19.8-10.9,28.1-24.8,33.4-40.3C655.1,451.7,649,449,639.9,450.7z"/>
			<path class="st3" d="M622.8,306.3c-6.6,2.2-13.2,5.7-18.8,12.7c3.3,0.4,7.3,1.3,11.8,3.4c10.8,5.2,20.7,10.7,33.8,8.8
				c1.6,1.8,3.3,4.1,4.4,6.8c0,0,11.3-2.7,17.8-8.6c0,0-1.1-2.9-2.7-5.6c1.3-0.7,2.5-1.4,3.8-2C662.3,305.1,641.7,299.9,622.8,306.3
				z"/>
			<path class="st4" d="M668.9,347c-10,1.8-11.1,16.1-11.5,43.1c-0.3,23.3-9.8,46.2-4.3,47.4c5.5,1.1,11.5-20.1,16.1-44.1
				C673.9,369.3,678.3,345.3,668.9,347z"/>
		</g>
		<g>
			<path class="st0" d="M642.6,454.5c-13.7,1-37.7,20.9-42.2,43.3c-1.5,7.4,22.7,24.6,51.3,16.5
				C680.3,506.1,671.9,452.4,642.6,454.5z"/>
			<path class="st1" d="M660.9,509.1c-12,2-28.2-1.7-35.7-16.7c-6.5-13.1,0.9-26.7,6.4-34.1c-12.9,6.9-27.7,22.5-31.2,39.6
				c-1.5,7.4,22.7,24.6,51.3,16.5C655.4,513.2,658.4,511.4,660.9,509.1z"/>
			<path class="st1" d="M660.9,509.1c-12,2-28.2-1.7-35.7-16.7c-6.5-13.1,0.9-26.7,6.4-34.1c-12.9,6.9-27.7,22.5-31.2,39.6
				c-1.5,7.4,22.7,24.6,51.3,16.5C655.4,513.2,658.4,511.4,660.9,509.1z"/>
			<path class="st4" d="M646.6,459.7c-11.6,5.1,0.7,33.1,12.3,27C670.5,480.7,656.4,455.4,646.6,459.7z"/>
		</g>
		<g>
			<path class="st0" d="M637.9,141.1c-12.4-4.8-38.2,4.7-42.5,20.5c-7,25.8,1.6,132.9,6.5,143.7c4.8,10.8,36.6,22.1,48.4,18.8
				c11.8-3.2,29.1-9.1,34.4-19.9c5.4-10.8,2.1-53.8-4.9-93.1C672.8,171.8,651,146.2,637.9,141.1z"/>
			<path class="st1" d="M601.8,305.2c4.8,10.8,36.6,22.1,48.4,18.8c11.8-3.2,29.1-9.1,34.4-19.9c0.4-0.9,0.8-2,1.1-3.3
				c-12.2,11-30.4,14.3-33.4,9.7c-3.5-5.3-3.8-59.2-8.6-95.8c-4.8-36.6-14-54.4-26.9-59.2c-12.9-4.8-21.5,5.9-21.5,5.9
				C588.4,187.4,597,294.5,601.8,305.2z"/>
			<path class="st4" d="M632.5,148.1c-8.6,5.4,12.9,22.1,25.8,51.1c15.2,34.1,17.2,97.9,21.5,97.4c4.3-0.5,3.8-43.1-5.4-84.5
				C665.3,170.7,641.6,142.4,632.5,148.1z"/>
		</g>
	</g>
	<g>
		<g>
			<path class="st0" d="M826.7,443.8c-11,6.1-27.3,15.8-33,28c-5.7,12.2-7.9,58.8,1.4,93.3c9.3,34.4,20.1,63.1,42.3,69.6
				c22.2,6.5,34.2,0.4,56-12.9c25.8-15.8,23.7-31.6,17.2-48.1c-6.5-16.5-18.4-28.1-24.4-53.1c-7.2-30.1-8.3-35.9-14.9-55.8
				C865.6,447,845,433.7,826.7,443.8z"/>
			<path class="st1" d="M910.7,573.7c-0.6-1.6-1.3-3.1-2-4.6c-5.4-1.9-12.9-2.5-21.5,3.2c-17.2,11.3-20.9,30.9-24.2,26.4
				c-3.3-4.5-9.7-16.7-14.5-41.4c-4.8-24.8-9.1-58.7-5.9-64.6c2.7-4.9,24.5-15.9,31.6-19.4c-0.8-2.6-1.7-5.4-2.7-8.5
				c-5.8-17.7-26.4-31-44.7-20.9c-11,6.1-27.3,15.8-33,28c-5.7,12.2-7.9,58.8,1.4,93.3c9.3,34.4,20.1,63.1,42.3,69.6
				c22.2,6.5,34.2,0.4,56-12.9C919.3,606,917.1,590.2,910.7,573.7z"/>
			<path class="st3" d="M800.4,462.5c3.6,0.5,10.5,2.8,17.1,5.9c14.3,6.7,17.8,12.6,30.9,7.3c7.2-2.9,16.3-6.9,23-10.9
				c-5.8-17.7-26.4-31-44.7-20.9C818.7,448.2,807.9,454.6,800.4,462.5z"/>
			<path class="st3" d="M861.7,636.5c9.9-1.8,19.2-7.1,31.7-14.8c25.1-15.3,23.8-30.6,17.8-46.6c-5.6-2.8-12.8-3.7-21.4,0.9
				C870.2,586.6,861.4,616.4,861.7,636.5z"/>
			<path class="st2" d="M810.1,478.4c-7.1,1.8-10.4,12.7-7.5,24.5c2.9,11.8,11,19.9,18.1,18.1c7.1-1.8,10.4-12.7,7.5-24.5
				C825.3,484.8,817.2,476.7,810.1,478.4z"/>
			<path class="st3" d="M829.6,464.6c0,0,13.5,2.7,20.5,15.6l16.1-8.6c0,0,0.5-7.5-3.2-11.8C863,459.8,843.6,452.2,829.6,464.6z"/>
			<path class="st4" d="M868.3,484.5c-6.3,2.5-1.5,21.1,1.6,43.1c3.8,26.9-0.8,34.4,3,40.4c2,3.2,8.5-0.8,13.7-3.8
				c5.1-3,9.4-1.3,9.7-5.4c0.3-4.6-10-14.8-15.6-36.3C876.7,507.1,873.7,482.4,868.3,484.5z"/>
		</g>
		<g>
			<path class="st0" d="M869.6,278.6c-14.2-6.7-38,2.8-46.4,21.1C814.8,318,793,416.4,792.3,436c-0.7,19.7,40.8,39.4,55.5,33.7
				c14.8-5.6,28.8-11.9,38-25.3C894.9,431.1,905.4,295.5,869.6,278.6z"/>
			<path class="st1" d="M847.8,469.8c14.8-5.6,28.8-11.9,38-25.3c0.9-1.3,1.8-3.9,2.7-7.5c-10.9,10.7-27.9,21.7-34.4,20.1
				c-8.4-2.1,0.7-36.5,4.2-70.3c3.5-33.7,6.3-68.9-7-87.1c-13.4-18.3-28.1,0-28.1,0C814.8,318,793,416.4,792.3,436
				C791.6,455.7,833,475.4,847.8,469.8z"/>
			<path class="st4" d="M862,286.7c-11,1.4,3.8,19.9,9,31.1c7.4,15.8,12.1,43.7,11.1,64.8c-1.1,21.1-3.2,49.5,0,49.5
				c3.2,0,9.5-47.4,7.4-78.5C887.3,322.5,878.4,284.6,862,286.7z"/>
		</g>
		<g>
			<path class="st0" d="M893.6,580.3c-12.6,5.5-28.5,32.3-25.3,54.9c1.1,7.5,29.6,15.6,53.8-1.6
				C946.4,616.4,920.5,568.5,893.6,580.3z"/>
			<path class="st1" d="M929.1,625.6c-10.6,5.9-27.2,7.8-39.2-3.8c-10.5-10.1-8.1-25.4-5.4-34.3c-9.9,10.8-18.6,30.5-16.1,47.8
				c1.1,7.5,29.6,15.6,53.8-1.6C925.3,631.4,927.6,628.6,929.1,625.6z"/>
			<path class="st4" d="M899.1,583.8c-9.2,8.7,11.7,31,20.6,21.4C928.6,595.6,906.9,576.5,899.1,583.8z"/>
		</g>
	</g>
	<g>
		<path class="st3" d="M430.6,38.2c10.9-7.5-15.4,83.3,65.3,135.3l12.9-9c-88.3-48.1-48.1-164.3-79.6-146.4
			c-31.6,17.9-48.1,120.5,37.3,175.8l14-9.3C404.9,131.4,410.2,52.2,430.6,38.2z"/>
		<g>
			<path class="st2" d="M452.5,176.7c-7.1-5.5-50.8-51.5-45.9-120.7c-9.3,39.9,1.4,100,59.9,137.9l14-9.3
				c-6.5-4.6-12.4-9.4-17.8-14.3C458,173.2,452.5,176.7,452.5,176.7z"/>
			<path class="st2" d="M508.8,164.5c-7.1-3.9-13.3-8.2-18.9-12.9l-8,3.6c-49-39.8-41.5-95-43.4-113.9c-1.2-11.8-8.8-3.2-11.3,0.1
				c1.1-1.3,2.2-2.3,3.4-3.2c10.9-7.5-15.4,83.3,65.3,135.3L508.8,164.5z"/>
		</g>
	</g>
	<g>
		<path class="st0" d="M484.4,160.9c-40.4,24.8-56.7,62.4-50.9,124.9c3.1,33.2,18.7,63.1,54.5,86.1c26.2,16.8,54.7,26.6,72.5,51
			c51.8,70.7,139.2,120.5,225.3,66c86.1-54.5,82.2-170.3,5-223.2c-54.5-37.3-81.1-25.8-115.5-47.4c-30.6-19.1-38.9-36.3-66.7-53.1
			C561.2,136.5,516,141.5,484.4,160.9z"/>
		<path class="st1" d="M842.4,418.6c-47.6,71.3-98.2,53.6-98.2,30.1c0-34.4-6.5-77.5-47.4-104.8c-40.9-27.3-84.7-8.6-115.5-27.3
			c-30.9-18.7-52.4-82.5-94-104c-24.1-12.5-40.3-5.1-50.9,13.1c-4.1,17-5,36.8-2.9,60.1c3.1,33.2,18.7,63.1,54.5,86.1
			c26.2,16.8,54.7,26.6,72.5,51c51.8,70.7,139.2,120.5,225.3,66C814.5,470.7,833.1,445.7,842.4,418.6z"/>
		<path class="st5" d="M818.3,460.7c-63,57.1-103.5,19.5-103.5,19.5l-81.1-96.9c-7.2,36.6-15.1,50.9-26.6,51.7
			c-11.5,0.7-16.5-12.9-50.9-43.1c-21.8-19.1-36.6-29.4-36.6-29.4c15.8-30.9,7.2-53.8,7.2-53.8l-92.3-15.4
			c4.6,30.2,20.5,57.3,53.6,78.5c26.2,16.8,54.7,26.6,72.5,51c51.8,70.7,139.2,120.5,225.3,66C798.7,480.7,809.4,471.1,818.3,460.7z
			"/>
		<path class="st4" d="M551.2,154.5c-38.7-5-57.4,14.4-47.4,25.8c10,11.5,45.2,21.5,68.9,28c32.6,8.9,51.9,9.7,81.1,37.3
			c26.6,25.1,53.6,50.9,82.5,50.9c51.7,0,49.5-35.2,1.4-48.8c-35.9-10.2-72.5-21.5-93.3-39.5C623.6,190.3,584.1,158.7,551.2,154.5z"
			/>
		<path class="st6" d="M455.6,221c-22.2,8.3-29.1,45.1-15.3,82.1c13.8,37.1,43,60.4,65.3,52.1c22.2-8.3,29.1-45.1,15.3-82.1
			C507.1,236,477.9,212.7,455.6,221z"/>
		<path class="st7" d="M460.5,234.1c-17.9,6.7-23.4,36.2-12.3,66.1s34.6,48.6,52.5,41.9c17.9-6.7,23.4-36.2,12.3-66.1
			C501.9,246.2,478.4,227.4,460.5,234.1z"/>
		<path class="st6" d="M655.1,345.4c-23.8,8.8-31.1,48.1-16.3,87.7c14.7,39.6,46,64.5,69.7,55.7c23.8-8.8,31.1-48.1,16.3-87.7
			C710,361.5,678.8,336.5,655.1,345.4z"/>
		<path class="st7" d="M660.3,359.4c-19.1,7.1-25,38.7-13.1,70.6s37,51.9,56.1,44.8c19.1-7.1,25-38.7,13.1-70.6
			C704.5,372.4,679.4,352.3,660.3,359.4z"/>
		<path class="st7" d="M696.8,270c-32.9,26.1,14.5,38.2,47.6,72.7c28.4,29.6,18.5,90.9,60.1,65.8c44.2-26.7,24.4-83.2,1.4-107.6
			C782.9,276.4,728.4,244.9,696.8,270z"/>
		<path class="st6" d="M805.9,300.8c-23-24.4-77.5-56-109.1-30.9c-11.1,8.8-13,16-9.5,23c0.9-3.9,4-8.1,9.9-12.8
			c29.1-23.2,79.5,6,100.7,28.5s39.5,74.7-1.3,99.4c-5.6,3.4-10.2,5-14,5.3c5.2,2.1,12.1,0.9,21.8-4.9
			C848.7,381.8,828.9,325.2,805.9,300.8z"/>
	</g>
	<g>
		<g>
			<path class="st0" d="M637.3,552c-11,6.1-27.3,15.8-33,28c-5.7,12.2-7.9,58.8,1.4,93.3c9.3,34.4,20.1,63.1,42.3,69.6
				c22.2,6.5,34.2,0.4,56-12.9c25.8-15.8,23.7-31.6,17.2-48.1c-6.5-16.5-18.4-28.1-24.4-53.1c-7.2-30.1-8.3-35.9-14.9-55.8
				C676.2,555.2,655.6,541.9,637.3,552z"/>
			<path class="st1" d="M721.2,681.9c-0.6-1.6-1.3-3.1-2-4.6c-5.4-1.9-12.9-2.5-21.5,3.2c-17.2,11.3-20.9,30.9-24.2,26.4
				c-3.3-4.5-9.7-16.7-14.5-41.4c-4.8-24.8-9.1-58.7-5.9-64.6c2.7-4.9,24.5-15.9,31.6-19.3c-0.8-2.6-1.7-5.4-2.7-8.5
				c-5.8-17.7-26.4-31-44.7-20.9c-11,6.1-27.3,15.8-33,28c-5.7,12.2-7.9,58.8,1.4,93.3c9.3,34.4,20.1,63.1,42.3,69.6
				c22.2,6.5,34.2,0.4,56-12.9C729.8,714.1,727.7,698.4,721.2,681.9z"/>
			<path class="st3" d="M610.9,570.6c3.6,0.5,10.5,2.8,17.1,5.9c14.3,6.7,17.8,12.6,30.9,7.3c7.2-2.9,16.3-6.9,23-10.9
				c-5.8-17.7-26.4-31-44.7-20.9C629.3,556.4,618.4,562.8,610.9,570.6z"/>
			<path class="st3" d="M672.3,744.7c9.9-1.8,19.2-7.1,31.8-14.8c25.1-15.3,23.8-30.6,17.8-46.6c-5.6-2.8-12.8-3.7-21.4,0.9
				C680.8,694.8,672,724.6,672.3,744.7z"/>
			<path class="st2" d="M620.7,586.6c-7.1,1.8-10.4,12.7-7.5,24.5c2.9,11.8,11,19.9,18.1,18.1c7.1-1.8,10.4-12.7,7.5-24.5
				C635.8,592.9,627.8,584.8,620.7,586.6z"/>
			<path class="st3" d="M640.2,572.8c0,0,13.5,2.7,20.4,15.6l16.1-8.6c0,0,0.5-7.5-3.2-11.8C673.5,567.9,654.1,560.4,640.2,572.8z"
				/>
			<path class="st4" d="M678.9,592.7c-6.3,2.5-1.5,21.1,1.6,43.1c3.8,26.9-0.8,34.4,3,40.4c2,3.2,8.5-0.8,13.7-3.8
				c5.1-3,9.4-1.3,9.7-5.4c0.3-4.6-10-14.8-15.6-36.3C687.2,615.2,684.3,590.5,678.9,592.7z"/>
		</g>
		<g>
			<path class="st0" d="M680.1,386.8c-14.2-6.7-38,2.8-46.4,21.1c-8.4,18.3-30.2,116.7-30.9,136.3c-0.7,19.7,40.8,39.4,55.5,33.7
				c14.8-5.6,28.8-11.9,38-25.3C705.4,539.3,716,403.7,680.1,386.8z"/>
			<path class="st1" d="M658.4,577.9c14.8-5.6,28.8-11.9,38-25.3c0.9-1.3,1.8-3.9,2.7-7.5c-10.8,10.7-27.9,21.7-34.4,20.1
				c-8.4-2.1,0.7-36.5,4.2-70.3c3.5-33.7,6.3-68.9-7-87.1c-13.4-18.3-28.1,0-28.1,0c-8.4,18.3-30.2,116.7-30.9,136.3
				C602.1,563.9,643.6,583.6,658.4,577.9z"/>
			<path class="st4" d="M672.6,394.9c-11,1.4,3.8,19.9,9,31.1c7.4,15.8,12.1,43.7,11.1,64.8c-1.1,21.1-3.2,49.5,0,49.5
				c3.2,0,9.5-47.4,7.4-78.5C697.9,430.7,688.9,392.8,672.6,394.9z"/>
		</g>
		<g>
			<path class="st0" d="M704.2,688.5c-12.6,5.5-28.5,32.3-25.3,54.9c1.1,7.5,29.6,15.6,53.8-1.6
				C756.9,724.5,731.1,676.6,704.2,688.5z"/>
			<path class="st1" d="M739.7,733.8c-10.6,5.9-27.2,7.8-39.2-3.8c-10.5-10.1-8.1-25.4-5.4-34.3c-9.9,10.8-18.6,30.5-16.1,47.8
				c1.1,7.5,29.6,15.6,53.8-1.6C735.9,739.5,738.1,736.8,739.7,733.8z"/>
			<path class="st4" d="M709.6,692c-9.2,8.7,11.7,31,20.6,21.4C739.2,703.8,717.4,684.7,709.6,692z"/>
		</g>
	</g>
	<g>
		<g>
			<path class="st0" d="M447,410.8c-12.3,4.2-24.8,12.4-30.5,40.8c-4.7,23.2-18,46.4-33,66.9c-15.1,20.5-24.8,44.1-12.9,61.9
				c11.8,17.8,47.9,36.6,79.1,19.4c31.2-17.2,33.9-42,41.4-68.3c7.5-26.4,14.9-63.6,12.9-84C500.8,414.6,472.2,402.2,447,410.8z"/>
			<path class="st1" d="M470.6,454.9c4-4.4,22.4-13,31.5-17.1c-7.4-25.6-32.5-34.7-55.2-27c-12.3,4.2-24.8,12.4-30.5,40.8
				c-4.7,23.2-18,46.4-33,66.9c-15.1,20.5-24.8,44.1-12.9,61.9c11.8,17.8,47.9,36.6,79.1,19.4c21.5-11.8,29.4-27.2,34.8-44.3
				c-16.9-17.5-38.6,5.2-39.1,0.7c-0.5-4.8,10.8-25.3,16.1-49.5C466.6,483.5,465.2,460.9,470.6,454.9z"/>
			<path class="st2" d="M438.7,438c-7.3,0.5-12.4,10.8-11.5,22.9c0.9,12.1,7.5,21.5,14.7,20.9c7.3-0.5,12.4-10.8,11.5-22.9
				C452.6,446.8,446,437.5,438.7,438z"/>
			<path class="st3" d="M464,555.2c-19,3.6-29.7,17.6-39.5,33.4c-4.6,7.4-9.3,13.2-12.5,16.9c12.1,2.2,25.2,1.1,37.6-5.7
				c19.8-10.9,28.1-24.8,33.4-40.3C479.2,556.2,473.2,553.5,464,555.2z"/>
			<path class="st3" d="M447,410.8c-6.6,2.2-13.2,5.7-18.8,12.7c3.3,0.4,7.3,1.3,11.8,3.4c10.8,5.2,20.7,10.7,33.8,8.8
				c1.6,1.8,3.3,4.1,4.4,6.8c0,0,11.3-2.7,17.8-8.6c0,0-1.1-2.9-2.7-5.6c1.3-0.7,2.5-1.4,3.8-2C486.4,409.6,465.8,404.4,447,410.8z"
				/>
			<path class="st4" d="M493.1,451.5c-10,1.8-11.1,16.1-11.5,43.1c-0.3,23.3-9.8,46.2-4.3,47.4c5.5,1.1,11.5-20.1,16.1-44.1
				C498.1,473.8,502.5,449.8,493.1,451.5z"/>
		</g>
		<g>
			<path class="st0" d="M466.8,559c-13.7,1-37.7,20.9-42.2,43.3c-1.5,7.4,22.7,24.6,51.3,16.5C504.4,610.6,496.1,556.9,466.8,559z"
				/>
			<path class="st1" d="M485.1,613.6c-12,2-28.2-1.7-35.7-16.7c-6.5-13.1,0.9-26.6,6.4-34.1c-12.9,6.9-27.7,22.5-31.2,39.6
				c-1.5,7.4,22.7,24.6,51.3,16.5C479.5,617.7,482.6,615.9,485.1,613.6z"/>
			<path class="st4" d="M470.7,564.2c-11.6,5.1,0.7,33.1,12.3,27C494.6,585.2,480.5,559.9,470.7,564.2z"/>
		</g>
		<g>
			<path class="st0" d="M462,245.6c-12.4-4.8-38.2,4.7-42.5,20.4c-7,25.8,1.6,132.9,6.5,143.7c4.8,10.8,36.6,22.1,48.4,18.8
				c11.8-3.2,29.1-9.1,34.4-19.9c5.4-10.8,2.1-53.8-4.9-93.1C496.9,276.3,475.2,250.7,462,245.6z"/>
			<path class="st1" d="M426,409.7c4.8,10.8,36.6,22.1,48.4,18.8c11.8-3.2,29.1-9.1,34.4-19.9c0.4-0.9,0.8-2,1.1-3.3
				c-12.2,11-30.4,14.3-33.4,9.7c-3.5-5.3-3.8-59.2-8.6-95.8c-4.8-36.6-14-54.4-26.9-59.2c-12.9-4.8-21.5,5.9-21.5,5.9
				C412.5,291.9,421.1,399,426,409.7z"/>
			<path class="st4" d="M456.6,252.6c-8.6,5.4,12.9,22.1,25.8,51.1c15.2,34.1,17.2,97.9,21.5,97.4c4.3-0.5,3.8-43.1-5.4-84.5
				C489.5,275.2,465.7,246.9,456.6,252.6z"/>
		</g>
	</g>
	<g>
		<g>
			<path class="st3" d="M810.5,88.6c0,0,2.7-30.9,31.6-12.8C871,94,896.6,133,904,155.2l-30.3-24.9c0,0-15.5-30.9-37.7-43.1
				c-13.5-7.4-13.5,9.4-13.5,9.4L810.5,88.6z"/>
			<path class="st2" d="M827.6,74.2c-6.6-0.6-12.1,3-14.9,5.9c-1.9,4.4-2.3,8.6-2.3,8.6l12.1,8.1c0,0,0-16.8,13.5-9.4
				c22.2,12.2,37.7,43.1,37.7,43.1l20.6,16.9C870.7,94.8,839.1,75.2,827.6,74.2z"/>
		</g>
		<g>
			<path class="st0" d="M736.5,95.4c-63.8,38.6-73.3,100.9-55.2,155.4c18.2,54.5,139.2,123.8,195.8,137.9
				c56.5,14.1,86.2-9.5,100.4-21.6c29.3-25.2,31.5-75.2,3.2-119C950.8,201.8,895,134.2,863,110.8C813.2,74.5,765.4,77.9,736.5,95.4z
				"/>
			<path class="st1" d="M931.6,365.8L743.9,197.6c0,0-14.9-42,4.7-74c17-27.8,41-36.4,56.8-38.9c-27.3-5.2-51.5,0.2-68.9,10.7
				c-63.8,38.6-73.3,100.9-55.2,155.4c18.2,54.5,139.2,123.8,195.8,137.9c56.5,14.1,86.2-9.5,100.4-21.6c3.7-3.1,6.9-6.7,9.7-10.5
				C953.8,377.8,931.6,365.8,931.6,365.8z"/>
			<path class="st4" d="M795.7,98.7c-36.1,20.5,48.4,78.7,68.6,57.9C884.5,135.7,820.6,84.6,795.7,98.7z"/>
			<path class="st8" d="M980.7,248.1c-26.4-40.8-73-98.3-105.6-127.3c-36-11.3-97.7-3.5-131.2,76.8c0,0,32,69,41.7,90.8
				c9.7,21.8,17.2,29.9,42.4,45.7c25.2,15.9,53.8,33,84.8,36.3c24.4,2.7,70.5-17.3,87.6-52.2C1002,296.2,995.6,271.2,980.7,248.1z"
				/>
			<path class="st7" d="M755.3,197c0,0,40.4-86.8,118.4-66.6c0,0,47.1,49.8,83.4,98.2c36.3,48.4,35,87.5,35,87.5
				s-27.6-50.5-58.5-80.7C902.6,205,838.1,141.8,755.3,197z"/>
		</g>
		<g>
			<path class="st3" d="M720.3,149.2c-38.8-24.1-82.1,17.5-102.2,69.3c-20.2,51.8-13.5,102.3,22.9,122.4
				c39.9,22.2,48.6-33.3,66.6-78.7C727.1,213.1,759.4,173.4,720.3,149.2z M691.5,255.1c-14.3,36.1-21.6,83.2-47.9,69
				c-24-12.9-28.8-59.7-12.8-100.9c16.1-41.2,51.5-76.3,77.4-62.6C739.8,177.4,707,216,691.5,255.1z"/>
			<path class="st2" d="M711.3,223c14.6-30.3,14.6-42.9,11.6-52.5c-3-9.6-19.7-23.2-41.9-12.6c-15.3,7.3-24.1,19.9-28.2,27
				c17.1-21.2,38.3-33.4,55.4-24.3c31.6,16.8-1.2,55.3-16.7,94.4c-8.1,20.5-14,44.5-22.4,58.9c-5.5,11.1-14.9,20.3-30.5,11.5
				c-30.3-17.2-19.2-72.1-19.2-72.1c0-31.4,15.5-63.7,25.4-81c-10.8,12.9-20,29-26.7,46.2c-20.2,51.8-13.5,102.3,22.9,122.4
				c29.1,16.2,41.6-9,53.2-41.4C692.4,274.5,699,248.4,711.3,223z"/>
		</g>
	</g>
</g>
</svg>
