<?xml version="1.0" encoding="utf-8"?>
<!-- Generator: Adobe Illustrator 22.0.0, SVG Export Plug-In . SVG Version: 6.00 Build 0)  -->
<svg version="1.1" id="Layer_1" xmlns="http://www.w3.org/2000/svg" xmlns:xlink="http://www.w3.org/1999/xlink" x="0px" y="0px"
	 viewBox="0 0 1366 768" style="enable-background:new 0 0 1366 768;" xml:space="preserve">
<style type="text/css">
	.st0{fill:#5385A6;}
	.st1{fill:#B5CBD8;}
	.st2{fill:#E4ECF1;}
	.st3{opacity:0.8;fill:#C2E0F2;}
	.st4{fill:#FFFFFF;}
	.st5{fill:#364A5B;}
	.st6{fill:#2E3C4D;}
	.st7{fill:#19212C;}
</style>
<g>
	<g>
		<g>
			<path class="st0" d="M870.1,472.8l59.5,129.3c0,0,23.3,13.8,29.3-16.4l-62.1-128.4L870.1,472.8z"/>
			<path class="st1" d="M939.9,594.8l-46.1-99.1c6.3-6.1,10.3-13.2,12.6-18.5l-9.6-19.9l-26.7,15.5l59.5,129.3
				c0,0,23.3,13.8,29.3-16.4C950.6,597.4,939.9,594.8,939.9,594.8z"/>
		</g>
		<g>
			<path class="st2" d="M827.9,335.8c-25,13.8-17.3,52.6-1.7,87c15.5,34.4,22.4,81,63.8,55.2c41.4-25.9,33.1-51,9.5-80.1
				C875.7,368.7,859.9,318.1,827.9,335.8z"/>
			<path class="st3" d="M827.9,335.8c-25,13.8-17.3,52.6-1.7,87c15.5,34.4,22.4,81,63.8,55.2c41.4-25.9,33.1-51,9.5-80.1
				C875.7,368.7,859.9,318.1,827.9,335.8z"/>
		</g>
	</g>
	<g>
		<g>
			<path class="st2" d="M484.2,89.9c-61.4,41.6-66.5,167.2,2.2,211.9c44.9,29.2,73.5,21.7,106.3,41.9
				c35.2,21.7,46.4,62.9,107.8,96.6c78.7,43.2,124.3,39.7,220.1-20.2c87.7-54.8,81.6-190.9-6.7-242.6
				c-88.4-51.7-91.5-41.2-128.8-61.4c-35.9-19.5-37.4-43.4-86.9-72.6c-47.3-28-88.9-25.3-147.5,6.7
				C523.2,65.4,513.8,69.9,484.2,89.9z"/>
			<path class="st3" d="M982.8,317.3L803.9,205.2c-41.2,41.2,43.4,142.3,48.7,181.9c2.8,20.9-15.7,22.5-21.7,3
				c-15-48.9-40.4-87.6-81.6-105.6c-44.8-19.6-61.4,4.5-76.4,13.5c-15,9-87.5-34.1-95.8-51.7c-15-31.4-16.9-60.4-65.9-94.3
				c-29.2-20.2-50.8-20.6-62.9-15.9c-23.1,54.9-12.8,132.5,38.2,165.6c44.9,29.2,73.5,21.7,106.3,41.9
				c35.2,21.7,46.4,62.9,107.8,96.6c78.7,43.2,124.3,39.7,220.1-20.2C958.5,396.5,978.8,357.8,982.8,317.3z"/>
			<path class="st3" d="M772.1,417.5c0,0-74.7-3.9-130.3-53.9c-39.6-35.6-55-44.4-99.4-57.8c-26.3-8-21.9-42.7-21.9-42.7L456,206.3
				c-10.2,3.2-16,0.4-19.3-3.7c1.6,39.5,17.5,78.2,49.8,99.2c44.9,29.2,73.5,21.7,106.3,41.9c35.2,21.7,46.4,62.9,107.8,96.6
				c78.7,43.2,124.3,39.7,220.1-20.2c15.5-9.7,28.1-22,37.8-35.9c-25.2,24.2-85.4,61.2-129.2,63.6
				C779.4,450.6,772.1,417.5,772.1,417.5z"/>
			<path class="st4" d="M514.9,94.4c7,14.1,90.6-24,128-22.5c37.4,1.5,56.2,7.5,97.7,64.8c11.1,15.3,34.8,27,71.6,32.6
				c38.3,5.8,40.2-11.6,21.2-19.7c-28-11.9-51.4-20.1-67-29c-26.2-15-43.1-60.8-90.6-77.9c-17-6.1-45.7-10.9-71.9-3
				C557.2,53.9,512.5,89.6,514.9,94.4z"/>
			<path class="st0" d="M914,177.5c-17.5-10.2-31.6-18-43.3-24.1c-14.2,8.2-53.9,32.2-66.8,51.8c-15.7,24,0.2,64.6,32.2,120.7
				c26,45.6,51.6,82.7,83.8,94.6c0.3-0.2,0.5-0.3,0.8-0.5C1008.5,365.3,1002.4,229.2,914,177.5z"/>
		</g>
		<g>
			<path class="st5" d="M456.6,188.9c-15.5,9-16,37.2-1.1,63.1c14.9,25.9,39.7,39.6,55.2,30.6c15.5-9,16-37.2,1.1-63.1
				C496.9,193.7,472.2,180,456.6,188.9z"/>
			<path class="st6" d="M462.4,199c-12.2,7.1-12.6,29.3-0.8,49.6c11.7,20.3,31.2,31.1,43.4,24.1c12.2-7,12.6-29.3,0.8-49.6
				C494,202.7,474.6,191.9,462.4,199z"/>
			<path class="st5" d="M711.9,332.7c-15.5,9-16,37.2-1.1,63.1c14.9,25.9,39.7,39.6,55.2,30.6c15.5-9,16-37.2,1.1-63.1
				C752.2,337.4,727.5,323.7,711.9,332.7z"/>
			<path class="st6" d="M717.7,342.7c-12.2,7-12.6,29.3-0.8,49.6c11.7,20.3,31.2,31.1,43.4,24.1c12.2-7,12.6-29.3,0.8-49.6
				C749.4,346.5,729.9,335.7,717.7,342.7z"/>
		</g>
	</g>
	<g>
		<g>
			<path class="st0" d="M378.7,467.4l59.5,129.3c0,0,23.3,13.8,29.3-16.4l-62-128.4L378.7,467.4z"/>
			<path class="st1" d="M448.5,589.3l-46.1-99.1c6.3-6.1,10.3-13.2,12.6-18.5l-9.6-19.9l-26.7,15.5l59.5,129.3
				c0,0,23.3,13.8,29.3-16.4C459.3,591.9,448.5,589.3,448.5,589.3z"/>
		</g>
		<g>
			<path class="st2" d="M336.5,330.4c-25,13.8-17.3,52.6-1.7,87c15.5,34.4,22.4,81,63.8,55.1s33.1-51,9.5-80.1
				C384.4,363.2,368.6,312.7,336.5,330.4z"/>
			<path class="st3" d="M398.6,472.5c25.2-15.8,31.9-31.2,28-47.5c-10.5,12.8-32.1,24.4-41,18.2c-11.2-7.8-28.9-53-25.4-59.9
				c2.5-4.9,15.9-9.5,27.8-20.8c-14.7-23.7-29.2-44.5-51.5-32.2c-25,13.8-17.3,52.6-1.7,87C350.3,451.8,357.2,498.4,398.6,472.5z"/>
			<path class="st0" d="M386.4,359.9c-14.2-22.5-28.4-41.4-49.9-29.5c-13,7.2-17.1,21.1-15.9,37.7
				C329.3,375.3,348.2,381.4,386.4,359.9z"/>
			<path class="st4" d="M384.3,375.6c-5.9,4,15.1,61.2,28.4,52.6c11.2-7.2-0.2-18.3-9-30.2C392.5,382.9,387.7,373.3,384.3,375.6z"/>
		</g>
		<g>
			<path class="st2" d="M496.8,220c26,30.9,7.1,76.9-52.6,106c-59.7,29.1-103.4,58.6-122.4,32.7c-19-25.9,6.1-57.8,49.1-94.8
				C426.1,216.6,464.9,182.1,496.8,220z"/>
			<path class="st3" d="M505.5,266.4c-13.9,14.1-36.7,22.7-37.2,19.2c-0.6-4.3,9.5-31.9-8.6-47.4c-21.7-18.6-43.3-1.9-95,38.6
				c-25.9,20.3-40.8,40.6-47.6,52.6c-3.1,10.5-1.9,20.4,4.7,29.4c19,25.9,62.7-3.6,122.4-32.7C477.9,309.6,498.6,287.8,505.5,266.4z
				"/>
			<path class="st4" d="M467.5,213.2c-6.6,2.9,1.6,13.1,9.9,22.8c7.5,8.7,14.7,17.4,19.4,13.4C506.7,240.7,482.1,206.7,467.5,213.2z
				"/>
			<path class="st1" d="M327.6,327c-5.6,2-7.5,11.3-4.1,20.7c3.4,9.4,10.7,15.4,16.4,13.3c5.6-2,7.5-11.3,4.1-20.7
				C340.5,331,333.2,325,327.6,327z"/>
		</g>
	</g>
	<g>
		<g>
			<path class="st0" d="M632,610.6l59.5,129.3c0,0,23.3,13.8,29.3-16.4l-62-128.4L632,610.6z"/>
			<path class="st1" d="M701.8,732.5l-46.1-99.1c6.3-6.1,10.3-13.2,12.6-18.5l-9.6-19.9L632,610.6l59.5,129.3
				c0,0,23.3,13.8,29.3-16.4C712.6,735.1,701.8,732.5,701.8,732.5z"/>
		</g>
		<g>
			<path class="st2" d="M589.8,473.6c-25,13.8-17.3,52.6-1.7,87c15.5,34.4,22.4,81,63.8,55.2c41.4-25.9,33.1-51,9.5-80.1
				C637.6,506.5,621.8,455.9,589.8,473.6z"/>
			<path class="st3" d="M651.8,615.8c25.2-15.8,31.9-31.3,28-47.5c-10.5,12.8-32.1,24.4-41,18.2c-11.2-7.8-28.9-53-25.4-59.9
				c2.5-4.9,15.9-9.5,27.8-20.8c-14.7-23.6-29.2-44.5-51.5-32.2c-25,13.8-17.3,52.6-1.7,87C603.6,595,610.4,641.6,651.8,615.8z"/>
			<path class="st0" d="M639.6,503.1c-14.2-22.5-28.4-41.4-49.9-29.5c-13,7.2-17.1,21.2-15.9,37.7
				C582.5,518.5,601.5,524.7,639.6,503.1z"/>
			<path class="st4" d="M637.6,518.8c-5.9,4,15.1,61.2,28.4,52.6c11.2-7.2-0.2-18.3-9.1-30.2C645.8,526.1,640.9,516.5,637.6,518.8z"
				/>
		</g>
		<g>
			<path class="st2" d="M750,363.3c26,30.9,7.1,76.9-52.6,106c-59.7,29.1-103.4,58.6-122.4,32.7c-19-25.9,6.1-57.8,49.1-94.8
				C679.4,359.8,718.2,325.3,750,363.3z"/>
			<path class="st3" d="M758.8,409.6c-13.9,14.1-36.7,22.7-37.2,19.2c-0.6-4.3,9.5-31.9-8.6-47.4c-21.7-18.6-43.3-1.9-95,38.6
				c-25.9,20.3-40.8,40.6-47.6,52.6c-3.1,10.5-1.9,20.4,4.7,29.4c19,25.9,62.7-3.6,122.4-32.7C731.2,452.8,751.8,431,758.8,409.6z"
				/>
			<path class="st4" d="M720.7,356.4c-6.6,2.9,1.6,13.1,9.9,22.8c7.5,8.7,14.7,17.4,19.4,13.4C760,383.9,735.4,349.9,720.7,356.4z"
				/>
			<path class="st1" d="M580.8,470.3c-5.6,2-7.5,11.3-4.1,20.7c3.4,9.4,10.7,15.4,16.4,13.3c5.6-2,7.5-11.3,4.1-20.7
				C593.8,474.2,586.4,468.2,580.8,470.3z"/>
		</g>
	</g>
	<g>
		<path class="st2" d="M803.9,216.1c-10.2,31.8,28.1,95.5,52.8,133.1c24.7,37.6,54.5,64,74.1,69.1c19.7,5.1,51.1,2.2,87.6-17.4
			c36.5-19.7,35.2-57.9,32-87c-12.4-111.2-105-174.1-123-176.9C909.5,134.1,814.6,182.9,803.9,216.1z"/>
		<path class="st3" d="M982,401.9c-28.6-2.8-43.8-38.7-66.8-75.8c-23-37.1-36.5-71.9-73.6-102.8c-15.1-12.6-26.2-15.6-34-14.7
			c-1.6,2.5-2.8,5-3.6,7.4c-10.2,31.8,28.1,95.5,52.8,133.1c24.7,37.6,54.5,64,74.1,69.1c19.7,5.1,51.1,2.2,87.6-17.4
			c14.5-7.8,22.9-18.5,27.8-30.4C1029.8,390.5,1002,403.9,982,401.9z"/>
		<path class="st4" d="M848.3,190.8c6.5,7.1,56.2-20.2,81.4-17.4c25.3,2.8,69.1,68.5,76.9,63.5c7.9-5.1-42.1-78.1-73.6-89.8
			C912.8,139.4,842.1,184,848.3,190.8z"/>
		<path class="st4" d="M1037.5,319.4c-6.4,4.5-1.7,43.8,3.9,38.2C1047.1,351.9,1043.2,315.4,1037.5,319.4z"/>
		<path class="st7" d="M1050.8,317.1c-0.1-1.1-0.2-2.3-0.3-3.4c-6.1-54.5-31.4-97.3-57.7-127.2c-13.3,2.2-34.9,7.9-60.2,22.8
			c-42.1,24.7-59,41.6-64.6,58.4c-5.6,16.8,51.1,103.3,66.8,108.9C948.9,381.7,1021.4,348.1,1050.8,317.1z"/>
		<path class="st6" d="M892.7,255.4c0,0,29.2-38.4,98.8-55.8c0,0,38.9,41.2,48.3,107.8c0,0-9-7.1-23.6-27.9
			c-16.6-23.6-30.1-34.2-69.1-27.5C921.1,256.5,904.5,258.7,892.7,255.4z"/>
	</g>
</g>
</svg>
