<?xml version="1.0" encoding="utf-8"?>
<!-- Generator: Adobe Illustrator 22.0.0, SVG Export Plug-In . SVG Version: 6.00 Build 0)  -->
<svg version="1.1" id="Layer_1" xmlns="http://www.w3.org/2000/svg" xmlns:xlink="http://www.w3.org/1999/xlink" x="0px" y="0px"
	 viewBox="0 0 1366 768" style="enable-background:new 0 0 1366 768;" xml:space="preserve">
<style type="text/css">
	.st0{fill:#2E3C4D;}
	.st1{fill:#E4ECF1;}
	.st2{fill:#FFFFFF;}
	.st3{opacity:0.8;fill:#C2E0F2;}
	.st4{fill:#5385A6;}
	.st5{fill:#B5CBD8;}
	.st6{fill:#177FB3;}
	.st7{opacity:0.5;fill:#177FB3;}
	.st8{opacity:0.6;fill:#177FB3;}
	.st9{opacity:0.8;}
	.st10{fill:#C2E0F2;}
	.st11{fill:#19212C;}
</style>
<g>
	<path class="st0" d="M585.4,360.1c0,0,54.4,44.8,75.8,57.2c21.4,12.4,67.5,17.9,67.5,17.9l0.7-53l-108.8-69.6L585.4,360.1z"/>
	<g>
		<g>
			<path class="st1" d="M658.4,299.3c2.6-11.9,22.7-130.2,25.8-179.8c3.1-49.6,1-93-45.5-93c-46.5,0-48.6,43.4-45.5,93
				c3.1,49.6,23.7,167.9,25.8,179.8C621.2,310.7,655.7,311.6,658.4,299.3z"/>
			<path class="st2" d="M610.9,43.9c2,7.1,14.4-1.1,31.7,0c22,1.4,25.5,8.3,27.6,25.5c2.1,17.2-2.8,67.5,2.7,67.5
				c5.5,0,8.7-32.5,5.5-64.1c-3.4-34.4-20.7-40-37.9-41.3C623.3,30.2,609.5,39.1,610.9,43.9z"/>
			<path class="st3" d="M681.8,145.9c-7.1-4-14.4-8.9-14.4-11.7c0-5.5-3.8-75.9-3.8-75.9s-19.6-9.5-47.2-4.6
				c-12.9,2.3-19.8,13.1-23.4,24c-1.1,12.8-0.6,27.1,0.3,41.9c1.1,17.7,4.4,44,8.3,71.2l73.5,6.1C677.7,179,680.1,161.3,681.8,145.9
				z"/>
			<path class="st0" d="M663.6,150.5V58.2c-21.4-7.6-48.9,0-48.9,0v88.9L663.6,150.5z"/>
		</g>
		<g>
			<path class="st4" d="M617.1,165.9v-54.4c0-12.2,9.9-22,22-22c12.2,0,22,9.9,22,22v54.4H617.1z"/>
			<path class="st5" d="M629.8,131.6c-0.3-24.5,3.5-36.3,6.9-42c-11,1.2-19.7,10.4-19.7,21.8v54.4h12.7V131.6z"/>
		</g>
	</g>
	<g>
		<g>
			<path class="st1" d="M693.3,393.7c0,0-4.1,51-2.7,79.9h57.9c0,0,0.7-35.1-3.4-79.2L693.3,393.7z"/>
			<path class="st3" d="M693.3,393.7c0,0-4.1,51-2.7,79.9h57.9c0,0,0.7-35.1-3.4-79.2L693.3,393.7z"/>
			<path class="st3" d="M693.3,393.7c0,0-4.1,51-2.7,79.9h57.9c0,0,0.7-35.1-3.4-79.2L693.3,393.7z"/>
		</g>
		<g>
			<path class="st1" d="M739.3,730.4c2.6-11.9,22.7-130.2,25.8-179.8c3.1-49.6,1-93-45.5-93c-46.5,0-48.6,43.4-45.5,93
				c3.1,49.6,23.7,167.9,25.8,179.8C702.1,741.8,736.7,742.7,739.3,730.4z"/>
			<path class="st6" d="M685.9,644.1c1.7,11.3,3.5,22.4,5.1,32.6c8.8,1.5,18.1,2.3,27.7,2.3c10.4,0,20.4-0.9,29.9-2.6
				c1.7-10.3,3.4-21.4,5.1-32.7c-10.9,2.4-22.7,3.7-35,3.7C707.3,647.4,696.2,646.2,685.9,644.1z"/>
			<path class="st3" d="M714.9,724.5c-2.1-13.1-2.1-90.9,2.1-148.8c4.1-57.9-13.8-64.8-25.5-62c-11.1,2.6-15.9,21.6-16.6,45.5
				c4.6,53.5,23.1,159.9,25.2,171.2c2.1,11.4,36.6,12.3,39.3,0c0.1-0.2,0.1-0.6,0.2-0.9C730.6,734.7,716.3,733.6,714.9,724.5z"/>
			<path class="st2" d="M688.7,482.1c0.6,11.7,18.6,1.4,35.8,22c17.2,20.7,0.7,135.7,13.1,134.3c12.4-1.4,19.3-74.4,20.7-109.5
				c1.4-35.1-7.6-56.5-24.1-62C717.6,461.4,688,467.6,688.7,482.1z"/>
			<path class="st2" d="M734.2,686.7c-7.5,0.8-8.9,28.4-2.1,30.3C739,718.8,741.1,686,734.2,686.7z"/>
		</g>
	</g>
	<g>
		<g>
			<path class="st1" d="M524.8,308.5l-71.6,51c0,0,18.6,30.3,35.1,30.3c16.5,0,60.6-50.3,60.6-50.3L524.8,308.5z"/>
			<path class="st3" d="M524.8,308.5l-71.6,51c0,0,18.6,30.3,35.1,30.3c16.5,0,60.6-50.3,60.6-50.3L524.8,308.5z"/>
			<path class="st3" d="M524.8,308.5l-71.6,51c0,0,18.6,30.3,35.1,30.3c16.5,0,60.6-50.3,60.6-50.3L524.8,308.5z"/>
		</g>
		<g>
			<path class="st4" d="M327.7,287.1c0,0,100.2,61.9,116.4,71.6c16.2,9.7,40.6-20,15.8-37.2c-24.8-17.2-111.6-73-111.6-73
				L327.7,287.1z"/>
			<path class="st5" d="M460,321.6c-13.1-9.1-43.8-29.1-69.6-45.9c3.8,16.8,10.3,30.7,10.3,30.7l-19-11.7c-4.6-2.8-7.2-7.9-7.1-13.2
				c0.1-6.2-0.6-12.1-1.3-16.9c-14.6-9.4-24.9-16.1-24.9-16.1l-20.7,38.6c0,0,100.2,61.9,116.4,71.6
				C460.4,368.4,484.8,338.8,460,321.6z"/>
		</g>
		<g>
			<path class="st1" d="M341.5,207.9c-28-4.9-73.7,33.1-105.4,93.7c-31.7,60.6-40.6,111.6-39.3,118.5c1.4,6.9,20.2,9.5,24.1,4.1
				c3.9-5.4,30.6-45.1,64.8-73.7c37.9-31.7,52.4-36.5,70.3-60.6C375.5,263.6,373.2,213.4,341.5,207.9z"/>
			<path class="st6" d="M253,383c7.2-8.2,15.3-16.7,24-24.8c-17.1-0.7-41.9-5.9-54.3-28.6c-4.9,11.3-9,22-12.4,31.8
				C215.9,370.6,227.8,380.7,253,383z"/>
			<path class="st3" d="M342.2,228.6c-16.8-5.2-44.8,4.8-77.8,45.5s-54.1,87.5-54.1,87.5l0,0c-10.9,31.6-14.3,54.1-13.4,58.6
				c1.4,6.9,20.2,9.5,24.1,4.1c3.9-5.4,30.6-45.1,64.8-73.7c37.9-31.7,52.4-36.5,70.3-60.6c2-2.7,3.7-5.6,5.2-8.7
				C370.7,248.5,355.8,232.8,342.2,228.6z"/>
			<path class="st5" d="M356,266.4c0,10.8-8.8,19.6-19.6,19.6c-10.8,0-19.6-8.8-19.6-19.6c0-10.8,8.8-19.6,19.6-19.6
				C347.2,246.8,356,255.6,356,266.4z"/>
			<path class="st2" d="M314,221.7c1,6.2,16.5-4.8,31.7,1.4c15.2,6.2,14.6,18.3,17.2,17.2c2.6-1.1-1.4-17.9-15.8-24.8
				C332.6,208.6,313.3,217.5,314,221.7z"/>
		</g>
	</g>
	<g>
		<g>
			<path class="st1" d="M606.1,349.1l-51,79.9c0,0-9,29.6,7.6,36.5c16.5,6.9,33.8,11.7,50.3-13.8c16.5-25.5,30.3-68.2,30.3-81.3
				C643.2,357.4,610.9,338.8,606.1,349.1z"/>
			<path class="st3" d="M606.1,349.1l-51,79.9c0,0-9,29.6,7.6,36.5c16.5,6.9,33.8,11.7,50.3-13.8c16.5-25.5,30.3-68.2,30.3-81.3
				C643.2,357.4,610.9,338.8,606.1,349.1z"/>
			<path class="st3" d="M612.9,451.7c16.5-25.5,30.3-68.2,30.3-81.3c0-13.1-32.4-31.7-37.2-21.4l-34,53.2c2.5,2.6,6.5,5.4,12.6,6.7
				c13.1,2.8,25.5,0.7,31.7-5.5c6.2-6.2,12.3-26.3,17.9-24.1c5.6,2.2-19.3,55.8-31.7,71c-12.4,15.2-22.1,15.5-21.4,11
				c0.8-4.5,11-19.3,8.3-32.4c-1.2-5.7-14.5-12.8-25.6-13.9l-8.9,13.9c0,0-9,29.6,7.6,36.5C579.2,472.4,596.4,477.2,612.9,451.7z"/>
		</g>
		<g>
			<path class="st4" d="M572.6,427.1c7,2.1,9.9,13.3,6.4,25c-3.5,11.7-12,19.5-19,17.4l-89.6-22.4l10.5-45.1L572.6,427.1z"/>
			<path class="st5" d="M579,452c3.5-11.7,0.6-22.9-6.4-25l-0.1,0c4.8,9,2.3,17.6-1.4,24c-3.8,6.5-11.7,9.5-19,7.5l-25.1-6.9
				c-10.4-3.3-11-9.4-10.2-17c1.3-11.7,0.9-18.1-1.9-23.4l-34.1-9.3l-10.5,45.1l89.6,22.4C567.1,471.6,575.6,463.8,579,452z"/>
		</g>
		<g>
			<path class="st1" d="M422.8,360.8c-12.5,9-34.4,66.1-48.9,139.2c-14.5,73-9.6,119.2-6.9,127.4c2.8,8.3,20.7,13.8,25.5,10.3
				c4.8-3.4,37.2-80.6,57.2-117.1c20-36.5,50.5-83.3,51-105.4c0.5-22.1-16-46.5-36.5-57.2C445.5,348.4,434.8,352.2,422.8,360.8z"/>
			<path class="st6" d="M369,528.8c-1.9,13-3.2,24.9-3.9,35.6c17.1,13.3,38.8,16.9,54.9,17.4c5.3-11.5,10.9-23.5,16.3-34.6
				C401.6,552.7,380.5,540.3,369,528.8z"/>
			<path class="st3" d="M396.6,433.8c-6.2,5.4-11,18.6-16.2,36.3c-2.3,9.6-4.5,19.5-6.5,29.8c-14.5,73-9.6,119.2-6.9,127.4
				c2.8,8.3,20.7,13.8,25.5,10.3c0.5-0.3,1.3-1.5,2.3-3.2c-3.8-7,1.7-34.5,17.7-76c18.6-48.2,36.5-88.9,34.4-106.1
				C444.8,435.2,410.9,421.4,396.6,433.8z"/>
			<path class="st2" d="M427.6,366.3c1.6,9.6,24.3,12.9,33.1,34.4c7.6,18.6,2.1,46.2-9,74.4c-11,28.2-26.2,63.4-20.7,64.1
				c5.5,0.7,28.2-49.6,44.1-77.8c15-26.7,27.6-55.8,4.1-82C455.9,353.2,426.3,358.1,427.6,366.3z"/>
			<path class="st2" d="M409.7,588.1c-4.2-1.2-11,22.7-8.3,23.4C404.2,612.3,414.5,589.5,409.7,588.1z"/>
			<path class="st5" d="M485.8,404.8c6.6,3.2,7.5,14.7,2.2,25.7c-5.4,11-15.1,17.2-21.6,14c-6.6-3.2-7.5-14.7-2.2-25.7
				C469.6,407.9,479.2,401.6,485.8,404.8z"/>
		</g>
	</g>
	<g>
		<g>
			<path class="st1" d="M844.9,358.6l71.6,51c0,0-18.6,30.3-35.1,30.3c-16.5,0-60.6-50.3-60.6-50.3L844.9,358.6z"/>
			<path class="st3" d="M844.9,358.6l71.6,51c0,0-18.6,30.3-35.1,30.3c-16.5,0-60.6-50.3-60.6-50.3L844.9,358.6z"/>
		</g>
		<g>
			<path class="st4" d="M1041.9,337.2c0,0-100.2,61.9-116.4,71.6c-16.2,9.7-40.6-20-15.8-37.2c24.8-17.2,111.6-73,111.6-73
				L1041.9,337.2z"/>
			<path class="st5" d="M1041.9,337.2l-20.7-38.6c0,0-15,9.6-34.3,22.1c0.6,18.5,10.2,28.9,10.2,28.9l-72.3,43.9
				c-14.4,2.5-20.4-7.9-23.8-12.2c-8,16.6,11,35.6,24.5,27.6C941.8,399.2,1041.9,337.2,1041.9,337.2z"/>
		</g>
		<g>
			<path class="st1" d="M1024.2,261c28-4.9,73.7,33.1,105.4,93.7c31.7,60.6,40.6,111.6,39.3,118.5c-1.4,6.9-20.2,9.5-24.1,4.1
				c-3.9-5.4-30.6-45.1-64.7-73.7c-37.9-31.7-52.4-36.5-70.3-60.6C990.2,316.7,992.5,266.5,1024.2,261z"/>
			<path class="st6" d="M1112.7,436.1c-7.2-8.2-15.3-16.7-24-24.8c17.1-0.7,41.9-5.9,54.3-28.6c4.9,11.3,9,22,12.4,31.8
				C1149.8,423.7,1137.9,433.8,1112.7,436.1z"/>
			<path class="st3" d="M1168.9,473.1c0.1-0.5,0.1-1.2,0.1-2.1c-4.4,2-9.6,2.7-13.2,0.7c-5.9-3.3-13.1-31-53-69.6
				c-40-38.6-66.1-42-90.2-69.6c-14.3-16.3-13.6-38.2-10.6-53.3c-8.4,18.5-5,46.3,7.9,63.7c17.9,24.1,32.4,28.9,70.3,60.6
				c34.2,28.6,60.8,68.3,64.7,73.7C1148.7,482.7,1167.5,480,1168.9,473.1z"/>
			<path class="st2" d="M1022.1,271.3c-5.5,9.6,22,17.9,61.3,59.2c36.2,38.1,43.4,60.6,48.9,57.2c5.5-3.4-5.5-33.1-33.8-68.9
				C1070.3,283,1029.7,258,1022.1,271.3z"/>
			<path class="st2" d="M1150.9,427.6c-7.8,3.9,6.2,35.1,10.3,33.8C1165.4,460,1156.5,424.9,1150.9,427.6z"/>
			<path class="st5" d="M1009.7,319.5c0,10.8,8.8,19.6,19.6,19.6c10.8,0,19.6-8.8,19.6-19.6c0-10.8-8.8-19.6-19.6-19.6
				C1018.5,299.9,1009.7,308.7,1009.7,319.5z"/>
		</g>
	</g>
	<g>
		<g>
			<path class="st1" d="M845.8,89.7c-25.8,8.3-37.9,45.1-17.4,74.5c14.1,20.1,42.5,28.9,77.3,54.6c27.9,20.7,44.8,38.1,53.7,49.6
				c6.1,7.8,29.1,3.9,27.6-7.6c-2.1-15.2-4.8-59.6-41-111.3C909.8,98,874.1,80.7,845.8,89.7z"/>
			<path class="st2" d="M843.7,97c0,7.1,28.5,5.1,59.9,36.5c40,40,46.8,77.2,53.7,73.7c6.9-3.4-3.5-45.9-40-84
				C881,85,843.7,90.1,843.7,97z"/>
			<path class="st2" d="M974.6,234.1c-7.5,3.8,2.1,31,5.5,28.2C983.6,259.6,981.5,230.6,974.6,234.1z"/>
			<path class="st3" d="M987,260.9c-0.1-0.6-0.2-1.3-0.3-2c-4,5.9-10.9,7.7-14.9,4.7c-5.5-4.1-13.1-24.1-37.9-44.1
				c-24.8-20-42-20.7-61.3-43.4c-19.3-22.7-6.2-57.2-6.2-57.2l-31-12.4c-3-2.2-4.7-4.4-5.6-6.5c-13.8,15.1-17.1,41.8-1.5,64.1
				c14.1,20.1,42.5,28.9,77.3,54.6c27.9,20.7,44.8,38.1,53.7,49.6C965.5,276.3,988.6,272.4,987,260.9z"/>
			<path class="st5" d="M898.9,141.2c6.6,3.2,7.5,14.7,2.2,25.7c-5.4,11-15.1,17.2-21.6,14c-6.6-3.2-7.5-14.7-2.2-25.7
				C882.6,144.2,892.3,138,898.9,141.2z"/>
			<path class="st6" d="M978.9,217.7c-3-10.3-7.2-22-13.2-34.4c3.9,12.4,4.7,29.7-14.4,40.3c-11.5,6.3-21.7,7.9-30.1,7.3
				c4.7,3.8,9,7.5,12.8,11c7.4,0.6,15.8-0.6,25.6-4.5C971.9,232.4,977.2,225,978.9,217.7z"/>
			<path class="st0" d="M866.4,119c0,0-28,55.6,16.8,79.7c0,0-36.8-20.8-45.7-28.8c0,0-28.2-26.9-2.1-63.4c0,0,7.6-2.1,17.9,2.8
				C863.7,114.2,866.4,119,866.4,119z"/>
		</g>
		<g>
			<path class="st1" d="M728.9,264.6c0,0,43,2.9,61.2,3.8c18.2,0.9,40.9,9.8,36,33c-3.3,15.6-12.1,24.3-51.1,15.2
				c-32.2-7.5-56.2-14-56.2-14L728.9,264.6z"/>
			<path class="st3" d="M728.9,264.6c0,0,43,2.9,61.2,3.8c18.2,0.9,40.9,9.8,36,33c-3.3,15.6-12.1,24.3-51.1,15.2
				c-32.2-7.5-56.2-14-56.2-14L728.9,264.6z"/>
			<path class="st3" d="M790,268.4c-2-0.1-4.2-0.2-6.7-0.4c-2.1,4.7-2,9.8-1.2,14.1c0.8,4.2-3.1,7.7-7.1,6.5l-22-6.7
				c-4.9-1.5-8.4-5.6-9.5-10.5c-0.5-2.2-1.1-4.2-1.8-5.9c-7.5-0.5-12.8-0.8-12.8-0.8l-10.1,38c0,0,24,6.5,56.2,14
				c39,9.1,47.8,0.3,51.1-15.2C831,278.2,808.2,269.3,790,268.4z"/>
		</g>
		<g>
			<path class="st4" d="M858.1,148.9c-9.5,17.2-53.9,97.4-66.4,118.2c-15.6,26,23.7,46.9,38.2,19.4c10.5-19.9,38.2-64.7,52.8-88
				C860.4,186.1,856.5,165.9,858.1,148.9z"/>
			<path class="st5" d="M858.1,148.9c-1.9,3.5-5.3,9.6-9.6,17.3c2.3,26.9,23.6,33.6,23.6,33.6s-17.1,28.4-32.6,55.3
				c-15.5,26.9-19.1,31-33.1,27.4c-9.2-2.4-11.6-12.7-12.2-19.6c-0.9,1.6-1.8,3-2.5,4.2c-15.6,26,23.7,46.9,38.2,19.4
				c10.5-19.9,38.2-64.7,52.8-88C860.4,186.1,856.5,165.9,858.1,148.9z"/>
		</g>
	</g>
	<g>
		<path class="st1" d="M429.4,140.4c-67.8,43-59.9,168.4,38.2,209.8c98.2,41.3,179.1,14.5,228.4-16.5c49.2-31,58.6-137-18.6-183.9
			C590.5,97,505.8,91.8,429.4,140.4z"/>
		<path class="st2" d="M476.5,130c-68.2,53,95.1,164,195.6,114.3c73.5-36.3,5.5-92.3-42.4-112.8C585,112.4,508.7,105,476.5,130z"/>
		<path class="st3" d="M695.9,333.6c24.5-15.4,39.1-49.5,38.1-85.5c-5.1,26.5-29.4,18.2-66,43.2c-33.1,22.6-90.9,68.2-192.9,17.2
			c-67.2-33.6-83.5-80.3-86.8-108.3c-12.9,53.7,11.9,121.6,79.3,150C565.7,391.5,646.7,364.6,695.9,333.6z"/>
		<path class="st4" d="M678.4,287.6c-36.5,23.4-40.3,49.4-41.5,73.1c22.8-7,42.7-16.9,59-27.1c17.9-11.3,30.5-32.5,35.6-57.2
			C717.3,274.4,702.8,272,678.4,287.6z"/>
		<path class="st3" d="M658.1,182.4c0,34.2-46.3,62-103.3,62c-57.1,0-103.3-27.8-103.3-62s46.3-62,103.3-62
			C611.9,120.4,658.1,148.1,658.1,182.4z"/>
		<ellipse class="st6" cx="554.8" cy="178.2" rx="84.3" ry="50.6"/>
		<path class="st7" d="M597.2,166.5c0,14.1-19,25.5-42.4,25.5s-42.4-11.4-42.4-25.5c0-14.1,19-25.5,42.4-25.5
			S597.2,152.5,597.2,166.5z"/>
		<path class="st8" d="M554.8,135.2c44.4,0,80.8,20.6,84,46.8c0.2-1.3,0.3-2.5,0.3-3.8c0-27.9-37.7-50.6-84.3-50.6
			s-84.3,22.7-84.3,50.6c0,1.3,0.2,2.5,0.3,3.8C474,155.9,510.4,135.2,554.8,135.2z"/>
	</g>
	<g>
		<g>
			<g>
				<path class="st4" d="M790,464.8c0,0,19.6,52.7,25.8,57.9c6.2,5.2,22.7-1,25.8-9.3c3.1-8.3-23.8-61-23.8-61L790,464.8z"/>
				<path class="st4" d="M854,450.4c0,0,33.1,33.1,42.4,31c9.3-2.1,15.5-12.4,14.5-19.6c-1-7.2-34.1-34.1-34.1-34.1L854,450.4z"/>
				<g>
					<path class="st5" d="M841.6,513.4c0.3-0.9,0.3-2.5,0-4.4c-6,6.5-15,9.3-18.6,7c-4.1-2.6-11.4-13.4-7.7-24.3
						c2.5-7.4,11.3-9.3,16.6-9.7c-6.6-15-14-29.5-14-29.5L790,464.8c0,0,19.6,52.7,25.8,57.9C822,527.9,838.5,521.7,841.6,513.4z"/>
				</g>
				<g>
					<path class="st5" d="M910.9,461.7c0-0.2-0.2-0.4-0.2-0.6c-8.5,17.9-23.9,12.5-22.5,3.7c1.2-7.3,8.4-13.8,11.9-16.6
						c-10-9.8-23.3-20.6-23.3-20.6L854,450.4c0,0,33.1,33.1,42.4,31C905.7,479.3,911.9,469,910.9,461.7z"/>
				</g>
			</g>
			<g>
				<path class="st1" d="M680.4,292.3c-30.4,21.9-34.1,37.2-33.5,60.2c0.6,19.7,45.9,58.7,84.1,90.7c38.2,32,98.2,49.6,151.9,13.4
					c53.7-36.2,8.3-87.8-22.7-112.6c-31-24.8-114.8-61.4-128.1-63C715.6,278.8,699,278.8,680.4,292.3z"/>
				<path class="st2" d="M708.3,289.2c-24.4,14.1,96.1,84.7,114.2,64.1C840.6,332.6,735.2,273.7,708.3,289.2z"/>
				<g class="st9">
					<path class="st10" d="M907.6,420.5c-4.3,11.2-12.2,15.4-12.2,15.4c7.7-19.1,2.1-31,2.1-31l-115.2-68.2
						c-22.5,21.6-20.3,49.2,10.3,81.1c26,27,44.6,36.3,44.6,36.3s-47.2,6.5-116.9-52.9c-53-45.2-60-77.1-59.7-91.5
						c-12.1,13.8-14,26.3-13.5,42.7c0.6,19.7,45.9,58.7,84.1,90.7c38.2,32,98.2,49.6,151.9,13.4
						C899.3,445.6,906.4,433.2,907.6,420.5z"/>
				</g>
				<path class="st11" d="M779.4,337.1c-14.3,16-17.8,44.7,15.4,75.5c27.3,25.4,52.6,52.2,82.4,37.7c26.6-12.9,32.6-54.9-1.7-92.6
					C841.1,320,800.8,313.1,779.4,337.1z"/>
				<path class="st0" d="M807,335.7c-28.3,15.7,38.2,73.4,58.9,52.2C886.6,366.7,831.3,322.2,807,335.7z"/>
			</g>
		</g>
	</g>
</g>
</svg>
