<?xml version="1.0" encoding="utf-8"?>
<!-- Generator: Adobe Illustrator 22.0.0, SVG Export Plug-In . SVG Version: 6.00 Build 0)  -->
<svg version="1.1" id="Layer_1" xmlns="http://www.w3.org/2000/svg" xmlns:xlink="http://www.w3.org/1999/xlink" x="0px" y="0px"
	 viewBox="0 0 1366 768" style="enable-background:new 0 0 1366 768;" xml:space="preserve">
<style type="text/css">
	.st0{fill:#19212C;}
	.st1{fill:#2E3C4D;}
	.st2{opacity:0.3;fill:#2E3C4D;}
	.st3{fill:#364A5B;}
	.st4{fill:#5385A6;}
	.st5{fill:#B5CBD8;}
	.st6{fill:#E4ECF1;}
	.st7{opacity:0.8;fill:#C2E0F2;}
	.st8{fill:#FFFFFF;}
	.st9{fill:#177FB3;}
	.st10{opacity:0.6;fill:#177FB3;}
	.st11{opacity:0.5;fill:#19212C;}
</style>
<g>
	<g>
		<path class="st0" d="M907.3,574.1L713.8,395.2l-72,37.9c0,0-28.8,45.1,23.2,77.2c47.3,29.2,187.5,112.3,187.5,112.3l22.5-8.3
			L907.3,574.1z"/>
		<g>
			<path class="st1" d="M758.5,421.9c-12.4-21.5-32.9-32.9-45.8-25.4l-60.6,34.7L697,509l60.6-34.7
				C770.5,466.8,770.9,443.4,758.5,421.9z"/>
			<path class="st2" d="M758.5,421.9c-12.4-21.5-32.9-32.9-45.8-25.4l-60.6,34.7L697,509l60.6-34.7
				C770.5,466.8,770.9,443.4,758.5,421.9z"/>
			<path class="st1" d="M652.1,431.2c-12.9,7.4-13.3,30.9-0.9,52.4c12.4,21.5,32.9,32.9,45.8,25.4c12.9-7.4,13.3-30.9,0.9-52.4
				C685.5,435.1,664.9,423.7,652.1,431.2z"/>
			<path class="st2" d="M658.7,442.7c-9.1,5.2-9.3,21.7-0.6,36.8c8.7,15.1,23.2,23.1,32.2,17.9c9.1-5.2,9.3-21.7,0.6-36.8
				C682.2,445.5,667.8,437.5,658.7,442.7z"/>
			<path class="st1" d="M666.8,456.6c-4.5,2.6-4.6,10.7-0.3,18.1c4.3,7.4,11.4,11.4,15.8,8.8c4.5-2.6,4.6-10.7,0.3-18.1
				C678.3,458,671.2,454.1,666.8,456.6z"/>
		</g>
		<g>
			<path class="st1" d="M844,472.8c-12.4-21.5-32.9-32.9-45.8-25.4l-60.6,34.7l44.9,77.8l60.6-34.7C856,517.8,856.4,494.3,844,472.8
				z"/>
			<path class="st2" d="M844,472.8c-12.4-21.5-32.9-32.9-45.8-25.4l-60.6,34.7l44.9,77.8l60.6-34.7C856,517.8,856.4,494.3,844,472.8
				z"/>
			<path class="st1" d="M737.5,482.1c-12.9,7.4-13.3,30.9-0.9,52.4c12.4,21.5,32.9,32.9,45.8,25.4c12.9-7.4,13.3-30.9,0.9-52.4
				C770.9,486.1,750.4,474.7,737.5,482.1z"/>
			<path class="st2" d="M744.2,493.7c-9.1,5.2-9.3,21.7-0.6,36.8c8.7,15.1,23.1,23.1,32.2,17.9c9.1-5.2,9.3-21.7,0.6-36.8
				C767.7,496.4,753.3,488.4,744.2,493.7z"/>
			<path class="st1" d="M752.2,507.6c-4.5,2.6-4.6,10.7-0.3,18.1c4.3,7.4,11.4,11.4,15.8,8.8c4.5-2.6,4.6-10.7,0.3-18.1
				C763.8,508.9,756.7,505,752.2,507.6z"/>
		</g>
		<g>
			<path class="st1" d="M824.7,533.6c-12.9,7.4-13.3,30.9-0.9,52.4c12.4,21.5,32.9,32.9,45.8,25.4c12.9-7.4,13.3-30.9,0.9-52.4
				C858.1,537.5,837.6,526.1,824.7,533.6z"/>
			<path class="st2" d="M831.4,545.1c-9.1,5.2-9.3,21.7-0.6,36.8c8.7,15.1,23.1,23.1,32.2,17.9c9.1-5.2,9.3-21.7,0.6-36.8
				C854.9,547.9,840.5,539.9,831.4,545.1z"/>
			<path class="st1" d="M839.4,559.1c-4.5,2.6-4.6,10.7-0.3,18.1c4.3,7.4,11.4,11.4,15.8,8.8c4.5-2.6,4.6-10.7,0.3-18.1
				C851,560.4,843.9,556.5,839.4,559.1z"/>
		</g>
		<g>
			<path class="st3" d="M936,585.5c16-9.3,16.5-38.4,1.1-65.1c-8.1-14-19-24.6-29.8-30.1l-171.8-103c-9.8-5-19.5-5.9-27.1-1.5
				l-65,38.2l24.5,4.8L853,540.2c0,0,28.4,26,25.2,57.9l-7.2,25.6L936,585.5z"/>
			<path class="st1" d="M872.1,558.5c-8.1-14-19-24.6-29.8-30.1l-171.8-103c-9.8-5-19.5-5.9-27.2-1.5c-16,9.3-16.5,38.4-1.1,65.1
				c7.7,13.4,17.9,23.6,28.3,29.3l171.8,103c10.3,5.7,20.7,7,28.7,2.3C887,614.4,887.5,585.3,872.1,558.5z M865.5,614.2
				c-6.5,3.7-14.9,2.7-23.2-1.9l-171.8-103c-8.3-4.6-16.4-12.8-22.6-23.5c-12.4-21.5-12-44.9,0.9-52.4c6.1-3.5,13.9-2.8,21.8,1.2
				l171.8,103c8.7,4.4,17.5,13,24,24.3C878.8,583.3,878.4,606.8,865.5,614.2z"/>
			<g>
				<polygon class="st1" points="697.4,444.6 764.9,404.9 759.6,401.7 692.7,441.1 				"/>
				<polygon class="st1" points="827.8,524 896.7,483.9 891.4,480.7 823,520.5 				"/>
				<path class="st1" d="M738.5,389.1l-3.1-1.9c-0.8-0.4-1.7-0.8-2.5-1.2l-69.4,40.9l1.7,1.3l2.6,0.5l1.7,1L738.5,389.1z"/>
				<path class="st1" d="M921.6,500.6c-1.4-1.3-2.9-2.6-4.3-3.8l-68.6,40.4l2.6,2l1.7,1c0,0,0.2,0.2,0.5,0.5L921.6,500.6z"/>
				<polygon class="st1" points="817.6,436.4 812.3,433.2 742.7,473.8 748,477 				"/>
				<polygon class="st1" points="791.2,420.6 785.9,417.4 716.4,458 721.7,461.2 				"/>
				<path class="st1" d="M947,546.3c-0.4-1.8-0.8-3.7-1.3-5.6l-68.7,40.4c0.4,1.9,0.7,3.8,1,5.8L947,546.3z"/>
				<polygon class="st1" points="844,452.2 838.6,449 769,489.6 774.3,492.8 				"/>
				<path class="st1" d="M946.5,571.3c0.7-2.2,1.2-4.7,1.5-7.2l-72.2,42.5l-1.2,4.3l2.1,1.5L946.5,571.3z"/>
				<path class="st1" d="M867.3,558.1l4.2,3.1l66.5-39.2c-0.3-0.6-0.6-1.2-0.9-1.8c-0.6-1-1.2-2-1.8-2.9L867,557.6
					C867.1,557.8,867.2,557.9,867.3,558.1z"/>
				<polygon class="st1" points="870.3,468.1 865,464.9 795.3,505.5 800.6,508.7 				"/>
			</g>
			<path class="st1" d="M858.3,495L739,423.2c0,0-22.9,1.3-54,15.8l152.9,92C858.7,511.8,858.3,495,858.3,495z"/>
		</g>
	</g>
	<g>
		<g>
			<path class="st4" d="M875.8,268.4c-4.9-8.4-15.5-14.8-20.8-17.7c-7.5-9.7-19.2-16.1-32.5-16.1c-22.6,0-41,18.3-41,41
				c0,22.6,18.3,41,41,41c7.3,0,14.1-1.9,20-5.2c6.6,3.7,5.5,11.2,10.8,14.2c5.5,3.2,11-3.2,7.9-13c-2-6.1-4.6-10-6.4-11.7
				c1.7-2.2,3.2-4.5,4.4-7c3.6,2.5,4.8,5.7,6.8,14c2.4,9.8,13.4,6.3,13-1.6c-0.4-7.9-4.3-17.3-4.3-17.3
				C881.7,287.3,882.5,279.8,875.8,268.4z"/>
			<path class="st5" d="M869.3,285.6c1.3,2.6,5.4,3.3,5.4,3.3c2.9-0.7,4.7-2.4,5.4-4.9c-2.7,1.4-6.1-0.6-8.4-4.4
				c-2.9-4.7-7.1-8.4-15.5-13.9c-8.4-5.5-9.5-11-9.5-11c-0.5,1-0.8,2-1.1,2.9c-0.9,1.9-2.4,4.7-5,7.6c-6.6,7.6-5.8,19.2,7.9,11
				l-1.1,6.8c0,0-5,3.3-6.9,6.7c-1.2-0.7-2-1.4-2-1.4c-3.4,6.3-12.1,1.6-16.3-7.1c-4.2-8.7-1.1-12.3-1.1-12.3
				c-9.7-11.3-4.5-28.9-4.5-28.9l-7-3.2c-16.4,5.4-28.2,20.7-28.2,38.9c0,22.6,18.3,41,41,41c7.3,0,14.1-1.9,20-5.2
				c6.6,3.7,5.5,11.2,10.8,14.2c3.2,1.8,6.3,0.5,7.9-2.8c-4.4,0.4-4.7-5.2-7.2-10.3c-2.9-6-8.7-6.8-6.8-10.8
				c1.8-3.9,7.6-0.8,7.6-0.8c1.7-2.2,3.2-4.5,4.4-7c3.6,2.5,4.8,5.7,6.8,14c2,8.2,10,7.1,12.3,1.9c-6.8,0.8-7.5-9.4-10.4-15.4
				C864.8,287.7,869.3,285.6,869.3,285.6z"/>
		</g>
		<path class="st4" d="M761.8,222.8c0,22.6-18.3,41-41,41c-22.6,0-41-18.3-41-41c0-22.6,18.3-41,41-41
			C743.5,181.8,761.8,200.2,761.8,222.8z"/>
		<g>
			<path class="st6" d="M840.6,238.6l-100.8-52.1c0,0-23.7,2-37.3,31c-12.6,26.8,0.5,42.5,0.5,42.5l94.3,48.1
				c0,0-13.5-17.6,1.6-46.5C814.4,232.1,840.6,238.6,840.6,238.6z"/>
			<path class="st7" d="M804.5,253l-68.1-34.7c2-7.5,7.5-13.4,7.5-13.4l-31.9,12.2l-12,37.4c1.5,3.6,3.1,5.5,3.1,5.5l94.3,48.1
				c0,0-13.5-17.6,1.6-46.5C800.6,258.4,802.5,255.5,804.5,253z"/>
			<path class="st8" d="M752.9,209.1c-10.1,7.7,47.3,35.7,56.2,29.4C818,232.3,761.8,202.3,752.9,209.1z"/>
		</g>
		<g>
			<path class="st4" d="M728.1,189.2l21.7,13.8c0,0-15.8,5.9-24.8,26.8c-9.1,20.9-0.4,41.4-0.4,41.4l-20.1-9.1l-3.5-42.9
				L728.1,189.2z"/>
			<path class="st5" d="M734.6,214.4l-5.7-3.6c3.3-6.6,4.8-13.4,5.4-17.7l-6.2-3.9l-27.2,29.9l3.5,42.9l20.1,9.1
				c0,0-8.7-20.5,0.4-41.4C727.7,223.3,731.2,218.3,734.6,214.4z"/>
			<path class="st4" d="M733.5,179.3c0,33.9-27.5,61.5-61.5,61.5c-33.9,0-61.5-27.5-61.5-61.5c0-33.9,27.5-61.5,61.5-61.5
				C706,117.9,733.5,145.4,733.5,179.3z"/>
		</g>
	</g>
	<g>
		<path class="st6" d="M734,695.8c0,0,31.5-18.1,76.4-43.3c45.3-25.4,59.2-41.1,59.2-41.1s15.6-39.3-27.3-73.9L663.9,432.7
			c0,0-20.5-1.6-48.1,13.4c-27.6,15-57.5,33.1-81.9,50.4c-18.5,13.2-26.8,33.1-26.8,33.1L734,695.8z"/>
		<path class="st8" d="M835.2,545.7c-7.5-0.7-30.9,17.6-54.4,33.9c-26.2,18.1-52.1,34.7-50.4,38.6c3.2,7.5,82.7-42.2,106.8-41.4
			c8.4,0.3,16.5,28.4,23.6,23.2C867.9,595,855.3,547.7,835.2,545.7z"/>
		<path class="st7" d="M810.4,652.5c45.3-25.4,59.2-41.1,59.2-41.1s1.5-3.7,2.3-9.9c-30,32.6-122.2,76.7-124.8,74.1
			c-2.6-2.6,0-18.9-15.8-39.4c-16.7-21.7-43.1-34.1-43.1-34.1l-54.6,11l15,20.2l85.3,62.5C734,695.8,765.5,677.7,810.4,652.5z"/>
		<path class="st7" d="M833.6,532.4l-169.7-99.8c0,0-20.5-1.6-48.1,13.4c-27.6,15-57.5,33.1-81.9,50.4c-9.6,6.8-16.4,15.5-20.8,22.2
			L682,594.2c0,0,26.8-13.1,60.4-32.6c33.6-19.4,46.2-28.4,47.8-32.6l27.8,16.3C818,545.3,827.5,539.6,833.6,532.4z"/>
	</g>
	<g>
		<path class="st6" d="M662,438.2l155.5,94.5c41.5-24.7,40.8-51.1,40.8-51.1v-7.9L662,430.3V438.2z"/>
		<path class="st7" d="M662,438.2l155.5,94.5c41.5-24.7,40.8-51.1,40.8-51.1v-7.9L662,430.3V438.2z"/>
		<polygon class="st7" points="817.5,524.8 817.5,532.7 662,438.2 756.1,468.1 		"/>
		<path class="st6" d="M662,430.3l155.5,94.5c41.5-24.7,40.8-51.1,40.8-51.1L739,402C739,402,704.1,404,662,430.3z"/>
		<path class="st7" d="M684.1,443.7l104,63.2c-0.1-5.6-0.8-11.2-1.9-12.6c-3.4-4.5-96.9-56.2-96.9-56.2L684.1,443.7z"/>
	</g>
	<g>
		<path class="st6" d="M661,428.2c7.5,4,121.9,65.7,122.9,69.9c1.1,4.2,2.1,25.2-0.5,31.5c-2.6,6.3-94.1,58.1-100.3,59.4
			c-5.3,1.1-128.2-76.7-130.8-78.3c-2.6-1.6-12.6-9.5-28.4,0c0,0-1-22.1,1.1-30.5c2.1-8.4,84-50.4,91.4-55.1
			C623.7,420.3,647.3,420.8,661,428.2z"/>
		<path class="st8" d="M687.8,449.7c0,0,74.1,41.5,76.2,50.4c2.1,8.9-87.2,53.1-84,59.4c3.2,6.3,85.1-43.1,89.8-43.6
			c4.7-0.5,2.6,12.1,7.9,10.5c5.3-1.6,2.6-25.2,0.5-28.4c-2.1-3.1-88.8-53-88.8-53L687.8,449.7z"/>
		<g>
			<path class="st7" d="M675.3,595.7c0,0,0-0.1,0-0.1C675.2,595.8,675.2,595.8,675.3,595.7z"/>
			<path class="st7" d="M673.7,565.4c-1.6-1.2-113.1-65.4-135.1-77.3c-7.5-4.1-10.7-7.5-11.8-10.4c-1,1-1.7,1.8-1.8,2.5
				c-2.1,8.4-1.1,30.5-1.1,30.5c15.8-9.5,25.7-1.6,28.4,0c2.3,1.4,96.7,61.1,123.8,75.3C675.7,575.7,676.4,567.4,673.7,565.4z"/>
		</g>
		<g>
			<path class="st3" d="M591.1,480.4c-0.6,6.1,58.8,38.9,65.1,38.9c6.3,0,65.1-35.2,65.7-39.9c0.5-4.7-61.5-38.3-66.2-38.3
				C651,441.1,591.7,475.2,591.1,480.4z"/>
			<path class="st1" d="M673.3,460.2c-8.7,0.4-61.5,27.2-61.5,34.3c0,0.8,0.2,1.7,0.6,2.6c7.7,4.7,16.4,9.6,24,13.6
				c10.9-0.3,62.8-28.8,62.8-36.2C699.3,468.9,682,459.8,673.3,460.2z"/>
			<path class="st1" d="M655.7,445.4c4.3,0,54.9,27.2,64.6,36.1c1-0.9,1.6-1.7,1.6-2.1c0.5-4.7-61.5-38.3-66.2-38.3
				c-4.7,0-64.1,34.1-64.6,39.4c-0.1,0.6,0.4,1.4,1.4,2.4C601.3,474,651.4,445.4,655.7,445.4z"/>
		</g>
	</g>
	<g>
		<path class="st0" d="M698.5,698.6L505,519.7l-72,37.9c0,0-28.8,45.1,23.2,77.2C503.5,663.9,643.8,747,643.8,747l22.5-8.3
			L698.5,698.6z"/>
		<g>
			<path class="st1" d="M549.7,546.4c-12.4-21.5-32.9-32.9-45.8-25.4l-60.6,34.7l44.9,77.8l60.6-34.7
				C561.7,591.3,562.1,567.8,549.7,546.4z"/>
			<path class="st2" d="M549.7,546.4c-12.4-21.5-32.9-32.9-45.8-25.4l-60.6,34.7l44.9,77.8l60.6-34.7
				C561.7,591.3,562.1,567.8,549.7,546.4z"/>
			<path class="st1" d="M443.3,555.7c-12.9,7.4-13.3,30.9-0.9,52.4c12.4,21.5,32.9,32.9,45.8,25.4c12.9-7.4,13.3-30.9,0.9-52.4
				C476.7,559.6,456.2,548.2,443.3,555.7z"/>
			<path class="st2" d="M449.9,567.2c-9.1,5.2-9.3,21.7-0.6,36.8c8.7,15.1,23.2,23.1,32.2,17.9c9.1-5.2,9.3-21.7,0.6-36.8
				C473.4,570,459,562,449.9,567.2z"/>
			<path class="st1" d="M458,581.1c-4.5,2.6-4.6,10.7-0.3,18.1c4.3,7.4,11.4,11.4,15.8,8.8c4.5-2.6,4.6-10.7,0.3-18.1
				C469.5,582.5,462.4,578.6,458,581.1z"/>
		</g>
		<g>
			<path class="st1" d="M635.2,597.3c-12.4-21.5-32.9-32.9-45.8-25.4l-60.6,34.7l44.9,77.8l60.6-34.7
				C647.2,642.3,647.6,618.8,635.2,597.3z"/>
			<path class="st2" d="M635.2,597.3c-12.4-21.5-32.9-32.9-45.8-25.4l-60.6,34.7l44.9,77.8l60.6-34.7
				C647.2,642.3,647.6,618.8,635.2,597.3z"/>
			<path class="st1" d="M528.7,606.6c-12.9,7.4-13.3,30.9-0.9,52.4c12.4,21.5,32.9,32.9,45.8,25.4c12.9-7.4,13.3-30.9,0.9-52.4
				C562.1,610.5,541.6,599.2,528.7,606.6z"/>
			<path class="st2" d="M535.4,618.2c-9.1,5.2-9.3,21.7-0.6,36.8c8.7,15.1,23.2,23.1,32.2,17.9c9.1-5.2,9.3-21.7,0.6-36.8
				C558.9,620.9,544.5,612.9,535.4,618.2z"/>
			<path class="st1" d="M543.5,632.1c-4.5,2.6-4.6,10.7-0.3,18.1c4.3,7.4,11.4,11.4,15.8,8.8c4.5-2.6,4.6-10.7,0.3-18.1
				C555,633.4,547.9,629.5,543.5,632.1z"/>
		</g>
		<g>
			<path class="st1" d="M615.9,658.1c-12.9,7.4-13.3,30.9-0.9,52.4c12.4,21.5,32.9,32.9,45.8,25.4c12.9-7.4,13.3-30.9,0.9-52.4
				C649.3,662,628.8,650.6,615.9,658.1z"/>
			<path class="st2" d="M622.6,669.6c-9.1,5.2-9.3,21.7-0.6,36.8c8.7,15.1,23.1,23.1,32.2,17.9c9.1-5.2,9.3-21.7,0.6-36.8
				C646.1,672.4,631.7,664.4,622.6,669.6z"/>
			<path class="st1" d="M630.6,683.6c-4.5,2.6-4.6,10.7-0.3,18.1c4.3,7.4,11.4,11.4,15.8,8.8c4.5-2.6,4.6-10.7,0.3-18.1
				C642.2,684.9,635.1,681,630.6,683.6z"/>
		</g>
		<g>
			<path class="st3" d="M727.2,710c16-9.3,16.5-38.4,1.1-65.1c-8.1-14-19-24.6-29.8-30.1l-171.8-103c-9.8-5-19.5-5.9-27.1-1.5
				l-65,38.2l24.5,4.8l185.2,111.5c0,0,28.4,26,25.2,57.9l-7.2,25.6L727.2,710z"/>
			<path class="st1" d="M663.3,683c-8.1-14-19-24.6-29.8-30.1l-171.8-103c-9.8-5-19.5-5.9-27.1-1.5c-16,9.3-16.5,38.4-1.1,65.1
				c7.7,13.4,17.9,23.6,28.3,29.3l171.8,103c10.3,5.7,20.7,6.9,28.7,2.3C678.2,738.9,678.7,709.7,663.3,683z M656.7,738.7
				c-6.5,3.7-14.9,2.7-23.2-1.9l-171.8-103c-8.3-4.6-16.5-12.8-22.6-23.5c-12.4-21.5-12-44.9,0.9-52.4c6.1-3.5,13.9-2.8,21.8,1.2
				l171.8,103c8.7,4.4,17.5,13,24,24.3C670,707.8,669.6,731.3,656.7,738.7z"/>
			<g>
				<polygon class="st1" points="488.6,569.1 556.1,529.4 550.8,526.2 483.9,565.6 				"/>
				<polygon class="st1" points="619,648.5 687.9,608.3 682.6,605.1 614.2,645 				"/>
				<path class="st1" d="M529.8,513.6l-3.1-1.9c-0.8-0.4-1.7-0.8-2.5-1.2l-69.4,40.9l1.7,1.3l2.6,0.5l1.7,1L529.8,513.6z"/>
				<path class="st1" d="M712.8,625.1c-1.4-1.3-2.9-2.6-4.3-3.8l-68.6,40.4l2.6,2l1.7,1c0,0,0.2,0.2,0.5,0.5L712.8,625.1z"/>
				<polygon class="st1" points="608.8,560.9 603.5,557.7 533.9,598.3 539.2,601.5 				"/>
				<polygon class="st1" points="582.4,545.1 577.1,541.9 507.6,582.4 512.9,585.6 				"/>
				<path class="st1" d="M738.3,670.8c-0.4-1.8-0.8-3.7-1.3-5.6l-68.7,40.4c0.4,1.9,0.7,3.8,1,5.8L738.3,670.8z"/>
				<polygon class="st1" points="635.2,576.7 629.8,573.5 560.2,614.1 565.5,617.3 				"/>
				<path class="st1" d="M737.7,695.8c0.7-2.2,1.2-4.6,1.5-7.2L667,731.1l-1.2,4.3l2.1,1.5L737.7,695.8z"/>
				<path class="st1" d="M658.5,682.6l4.2,3.1l66.5-39.2c-0.3-0.6-0.6-1.2-0.9-1.8c-0.6-1-1.2-2-1.8-2.9l-68.3,40.2
					C658.3,682.2,658.4,682.4,658.5,682.6z"/>
				<polygon class="st1" points="661.5,592.5 656.2,589.3 586.5,630 591.8,633.2 				"/>
			</g>
			<path class="st1" d="M530.3,513.9c-26.7,21.1-34.7,43.2-34.7,43.2L619.8,632c31.6-1.9,60-13.4,74.1-20.1L530.3,513.9z"/>
		</g>
	</g>
	<g>
		<path class="st6" d="M499.6,545.6v7.9L620,625.7c0,0,41.7-5.3,79.3-27.6v-7.9L499.6,545.6z"/>
		<path class="st7" d="M499.6,545.6v7.9L620,625.7c0,0,41.7-5.3,79.3-27.6v-7.9L499.6,545.6z"/>
		<polygon class="st7" points="620,617.8 620,625.7 499.6,553.5 499.6,545.6 		"/>
		<path class="st6" d="M542.2,495.7c-37.5,23.8-42.6,49.9-42.6,49.9L620,617.8c0,0,41.7-5.3,79.3-27.6L542.2,495.7z"/>
	</g>
	<g>
		<g>
			<path class="st4" d="M587.2,399.6c0,0,10.5,25.7,17.9,47.8c7.4,22.1,10,37.3,12.1,43.1c2.1,5.8,11.6,14.2,20.5,14.7
				c8.9,0.5,53.6-23.6,56.7-32.6c3.2-8.9-6.3-65.1-27.3-100.9L587.2,399.6z"/>
			<path class="st5" d="M667.8,485.7c-29.9,17.9-41.2,10.8-44.9,2.8c3.7,1.4,11.9,3,22.8-3.3c15-8.7,37.8-22.1,47-27.8
				c0.5-0.3,1-0.6,1.4-0.9c-0.2-1.4-0.4-2.8-0.6-4.3c-0.7,0.6-1.4,1.3-2.4,1.9c-8.1,5-30.7,18.6-46.2,27.3
				c-11.1,6.2-20,4.4-23.3,3.4c-1-3.4-2.3-8.1-4.1-14.2c3.8,1.3,11.9,2.8,22.7-3.4c15-8.7,37.8-22.1,47-27.8
				c1.5-0.9,2.6-1.8,3.5-2.6c-0.3-1.5-0.7-3-1-4.6c-0.9,1.3-2.1,2.6-4,3.8c-8.1,5-30.7,18.6-46.2,27.3c-10.9,6.1-19.6,4.5-23,3.5
				c-1.4-4.5-3-9.6-4.9-15.3c3.8,1.3,11.9,2.8,22.7-3.4c15-8.7,37.8-22.1,47-27.8c2-1.2,3.4-2.4,4.4-3.5c-0.4-1.5-0.9-3-1.4-4.6
				c-0.8,1.6-2.2,3.2-4.6,4.7c-8.1,5-30.7,18.6-46.2,27.3c-11,6.2-19.8,4.5-23.2,3.4c-0.3-1-0.6-1.9-1-2.9
				c-1.6-4.8-2.9-8.9-3.8-12.4c3.7,1.3,11.9,2.9,22.7-3.4c15-8.7,37.8-22.1,47-27.8c1.8-1.1,3.1-2.2,4.1-3.2c-0.5-1.4-1-2.7-1.6-4.1
				c-0.8,1.3-2.1,2.7-4.1,3.9c-8.1,5-30.7,18.6-46.2,27.3c-10.5,5.9-19,4.6-22.7,3.6c-1.6-8.8,0.4-12.5,7.2-13.2
				c6.4-0.6,13.3-3,20.5-6.7c17.6-8.9,30.5-17.1,41.1-24.4c-2-4.3-4.2-8.5-6.5-12.4l-79.8,27.8c0,0,10.5,25.7,17.9,47.8
				c7.4,22.1,10,37.3,12.1,43.1c2.1,5.8,11.6,14.2,20.5,14.7c8.9,0.5,53.6-23.6,56.7-32.6c0.4-1.2,0.6-3.2,0.6-6
				C690.2,472.2,680.7,478,667.8,485.7z"/>
		</g>
		<g>
			<path class="st6" d="M572,371.2c0,0,4.2,16.3,8.4,27.3c4.2,11,29.4,16.8,52,4.2c22.6-12.6,27.3-16.3,40.4-24.7
				c13.1-8.4,18.4-24.2,6.8-49.5L572,371.2z"/>
			<path class="st7" d="M679.6,328.5L572,371.2c0,0,4.2,16.3,8.4,27.3c4.1,10.7,27.7,16.4,49.7,5.4c-16.1-0.5-14.6-19.9,0.7-26.9
				c15.2-6.9,44.6-25.3,54.4-31.5C684.3,340.4,682.5,334.7,679.6,328.5z"/>
			<path class="st7" d="M623.4,375.4c19.2-9.2,48.2-26.3,60.9-34c-1-4-2.6-8.3-4.7-12.9L572,371.2c0,0,1.3,5.2,3.2,11.6
				C588.8,384.2,608.7,382.4,623.4,375.4z"/>
			<path class="st8" d="M681,358.8c0-6.3-26.8,11.6-26.3,16.8C655.2,380.9,681,366.2,681,358.8z"/>
		</g>
	</g>
	<g>
		<path class="st6" d="M554.6,174.7c-27.8,15.8-56.7,30.9-46.7,79.3c10,48.4,16.5,72.1,21.5,88.2c8.4,26.8,46.3,52.2,105.6,23.1
			c27.4-13.4,52-30.5,72.5-44.1c19.1-12.7,16.8-39.4,11-71.4c-4.2-23.2-8.9-46-13.1-64.1c-4.2-18-26.8-60.4-85.1-43.6L554.6,174.7z"
			/>
		<path class="st8" d="M613.2,210.2c-2.1,5.8,21.5,13.1,48.3,11c17.6-1.4,28.4,17.3,31.5,38.9c3.1,21.5,5.3,43.1,10.5,41
			c5.3-2.1,3.7-24.2-0.5-58.8c-4.2-34.7-10.5-53.6-14.7-53.1c-4.2,0.5-8.2,9.3-22.6,13.7C636.3,211.8,616.4,201.3,613.2,210.2z"/>
		<path class="st4" d="M708,310.3c8.4-6.8,9.9-17.5,8.4-35.7c-2.5-30.4-12.9-74.1-17.9-90.9c-6.6-22.3-29.9-44.9-65.4-44.3
			c-4.1,0.6-8.4,1.5-12.9,2.8l-2.4,1.2c41.1-6.7,69.6,18.8,76.2,41.3c4.5,15.3,15.4,63.4,17.7,91.1c1.4,16.7,0,26.4-7.7,32.6
			c-12.1,9.8-47.9,31.2-62.8,38.3c-14.9,7.2-18.5,0.9-19.7-11c-1.4-14.4-8.1-89.6-21.8-115.6c-13.6-25.7-45-35.5-64.1-34.2
			c-1.6,1.1-3.2,2.1-4.7,3.2c20.5-1.4,52.7,8.5,65.1,33.9c14.2,28.9,20,101.4,21.5,117.1c1.3,13.1,5.3,20,21.5,12.1
			C655.5,344.4,694.7,321,708,310.3z"/>
		<path class="st7" d="M635.6,365.1c-12.6,1-21-4.8-23.2-22.8c-6.8-55.7-6.8-104.5-34.7-129.7c-19.8-17.9-42.8-18.3-54.4-17.1
			c-13.4,12.4-21.4,29.5-15.4,58.6c10,48.4,16.5,72.1,21.5,88.2c8.4,26.8,46.3,52.2,105.6,23.1C635.2,365.3,635.4,365.2,635.6,365.1
			z"/>
		<path class="st4" d="M687,176.8c5.7-13.4-24.9-28.3-58.6-36.6c-2.6,0.5-5.3,1.2-8.1,2l-65.7,32.6c-3,1.7-6,3.4-8.9,5.1
			c6.1,3.3,29.6,15,62.5,18.6C646.5,202.6,678.1,197.9,687,176.8z"/>
		<path class="st9" d="M622.6,250.1c-1.4,4.7,2.4,32,5.8,32.3c3.4,0.3,15.2-5,16.5-10c1.3-5-2.2-29.1-5.1-31.2
			C637.1,239.1,624,245.7,622.6,250.1z"/>
		<path class="st9" d="M673.4,220.9c-1.3,4.8,3,31.9,6.4,32.1c3.4,0.2,15.1-5.3,16.4-10.3c1.2-5-2.7-29-5.6-31.1
			C687.6,209.6,674.6,216.4,673.4,220.9z"/>
		<path class="st10" d="M640,241.2c-0.5-0.4-1.4-0.5-2.6-0.3c2.6,6.1,5.1,25.1,3.9,29.4c-1.1,4.3-10,8.8-14.6,9.8
			c0.6,1.4,1.2,2.3,1.8,2.3c3.4,0.3,15.2-5,16.5-10C646.4,267.4,642.9,243.3,640,241.2z"/>
		<path class="st10" d="M690.6,211.7c-0.5-0.4-1.4-0.4-2.5-0.3c2.7,6.1,5.5,24.9,4.5,29.3c-1.1,4.3-9.9,9-14.5,10
			c0.6,1.4,1.2,2.3,1.8,2.3c3.4,0.2,15.1-5.3,16.4-10.3C697.4,237.8,693.5,213.7,690.6,211.7z"/>
	</g>
	<g>
		<path class="st6" d="M629.2,11.1c-80.1-23.5-126.6,42.2-117.4,107.9c9.2,65.8,92.4,86.1,148.9,72.5
			C752.1,169.5,728.5,40.3,629.2,11.1z"/>
		<path class="st4" d="M606.2,89.9c40.3,0,74.4-16,85.4-38.1c-2.4-2.9-4.9-5.6-7.5-8.3c-5.7,22.7-38.4,40.1-77.9,40.1
			c-39.8,0-72.7-17.7-78-40.8c-2.3,3.5-4.5,7.1-6.4,10.9C533.8,74.8,567,89.9,606.2,89.9z"/>
		<path class="st7" d="M652.8,193.2c-65.9,0.2-112.7-42.1-109.5-96.2c2.6-43.6,38.3-78,74.5-88.6c-73-14.3-114.7,48.1-106,110.7
			C520.6,181.8,596.8,203.2,652.8,193.2z"/>
		<path class="st0" d="M684,43.5L684,43.5c0,0-15.4,52.2-109,36.1c0,0,48.8,56.7,12,111.4c24.6,6,51.2,6,73.7,0.6
			C731.7,174.4,733.3,92.8,684,43.5z"/>
		<path class="st1" d="M591.1,90.2c0,0,68.3,11,96.1-34.7c0,0,34.7,36.2,21.5,83c0,0-5.2-24.2-33.6-24.2
			C635.3,114.3,608.5,106.5,591.1,90.2z"/>
		<path class="st11" d="M694.4,174.9c-40.1,20.8-87.3,7.6-100.3,3.2c-1.9,4.3-4.2,8.6-7.1,12.9c24.6,6,51.2,6,73.7,0.6
			C674.6,188.2,685.7,182.4,694.4,174.9z"/>
		<path class="st8" d="M668.8,52.3c-3.5,10.4-20.6,14-38.2,8.1C613,54.5,601.6,41.3,605,30.9c3.5-10.4,20.6-14,38.2-8.1
			C660.8,28.7,672.3,41.9,668.8,52.3z"/>
	</g>
	<g>
		<g>
			<path class="st4" d="M594.5,430.7c-4.3-4.8-10.1-6.5-14.1-7.1c-7.5-9.5-19.1-15.6-32.1-15.6c-22.6,0-41,18.3-41,41
				c0,21.1,16,38.5,36.5,40.7c6.4,7.4,13.1,10.3,26.6,10c14.2-0.4,12.2-8.7,12.2-8.7c9.5-4.3,2.8-11.4,2.8-11.4
				c3.5-5.9,1.2-8.7-1.7-10.1c3.5-6,5.5-13,5.5-20.5c0-1.3-0.1-2.6-0.2-3.9C599.9,450.2,601.2,438,594.5,430.7z"/>
			<path class="st5" d="M582.7,491c9.5-4.3,2.8-11.4,2.8-11.4c0.6-1.1,1-2.1,1.3-3c-8.5,2.3-24.1-0.9-30.5-6.9
				c-7.1-6.7-9.9-21-9.9-21c-9.5-14.2-2-34.5-2-34.5L509,437.6c-1,3.6-1.6,7.4-1.6,11.3c0,21.1,16,38.5,36.5,40.7
				c6.4,7.4,13.1,10.3,26.6,10C584.7,499.2,582.7,491,582.7,491z"/>
			<path class="st5" d="M582.5,434.2c-10-2.9-7.9-8.9-7.9-8.9c-13.4,14.2-12.6,28.4-5.3,27.3c5.8-0.8,11-13.1,11-13.1
				c5,1,8.7,5.6,8.7,5.6c5.1,2.4,8,1,9-1.9C593.2,443.7,590.4,436.5,582.5,434.2z"/>
		</g>
		<g>
			<path class="st4" d="M499.5,381.2c0,22.6-18.3,41-41,41c-22.6,0-41-18.3-41-41c0-22.6,18.3-41,41-41
				C481.1,340.2,499.5,358.5,499.5,381.2z"/>
			<path class="st5" d="M499.5,381.2c0,22.6-18.3,41-41,41c-22.6,0-41-18.3-41-41c0-22.6,18.3-41,41-41
				C481.1,340.2,499.5,358.5,499.5,381.2z"/>
		</g>
		<g>
			<path class="st6" d="M566.7,412.7l-89.3-67.8c0,0-23.7,2-37.3,31c-12.6,26.8,0.5,42.5,0.5,42.5l83,63c0,0-16.1-19.1,1.6-46.5
				C543.5,406.7,566.7,412.7,566.7,412.7z"/>
			<path class="st7" d="M531.1,427.2L473.6,385c9.6-21,27.2-20.1,30.5-19.8l-26.7-20.3c0,0-23.7,2-37.3,31
				c-12.6,26.8,0.5,42.5,0.5,42.5l83,63c0,0-16.1-19.1,1.6-46.5C527.1,432,529.1,429.4,531.1,427.2z"/>
			<path class="st8" d="M491.6,371.5c-12.8,8,36.8,44.6,47.3,38.9C549.4,404.5,500,366.2,491.6,371.5z"/>
		</g>
		<g>
			<path class="st4" d="M593.5,258.8c0,33.9-27.5,61.5-61.5,61.5c-33.9,0-61.5-27.5-61.5-61.5c0-33.9,27.5-61.5,61.5-61.5
				C566,197.3,593.5,224.8,593.5,258.8z"/>
			<path class="st5" d="M537.9,197.6c-1.9-0.2-3.9-0.3-5.8-0.3c-33.9,0-61.5,27.5-61.5,61.5c0,33.9,27.5,61.5,61.5,61.5l-2.4-5.2
				c-14.2-10-26.7-26.9-25.5-53.7C505.8,225.9,522.1,206.1,537.9,197.6z"/>
		</g>
		<g>
			<path class="st4" d="M506.5,366.9l30-51.1c-39.4-10.5-58-34.9-58-34.9L436.4,351c0,0,19.3,4.7,41.6,22.1c0,0,10-12.1,22.9-10
				L506.5,366.9z"/>
			<path class="st5" d="M479.8,365.7l35.5-57.6c-24.9-11.6-36.8-27.2-36.8-27.2L436.4,351c0,0,19.3,4.7,41.6,22.1
				c0,0,10-12.1,22.9-10l5.7,3.8l2-3.4C494.6,351.7,479.8,365.7,479.8,365.7z"/>
		</g>
	</g>
</g>
</svg>
