<?xml version="1.0" encoding="utf-8"?>
<!-- Generator: Adobe Illustrator 22.0.0, SVG Export Plug-In . SVG Version: 6.00 Build 0)  -->
<svg version="1.1" id="Layer_1" xmlns="http://www.w3.org/2000/svg" xmlns:xlink="http://www.w3.org/1999/xlink" x="0px" y="0px"
	 viewBox="0 0 1366 768" style="enable-background:new 0 0 1366 768;" xml:space="preserve">
<style type="text/css">
	.st0{fill:#5385A6;}
	.st1{fill:#B5CBD8;}
	.st2{fill:#E4ECF1;}
	.st3{opacity:0.8;fill:#C2E0F2;}
	.st4{fill:#FFFFFF;}
	.st5{fill:#177FB3;}
	.st6{opacity:0.6;fill:#177FB3;}
	.st7{opacity:0.8;fill:#B5CBD8;}
	.st8{fill:#19212C;}
	.st9{fill:#2E3C4D;}
</style>
<g>
	<g>
		<path class="st0" d="M772.3,641c-13.1-23.5-82-62.7-82-62.7c-19.4,3.3-49.8,23.4-52.7,30.8c-2.8,7.4-2.1,17.8,0,25.7
			c1.4,10.4,73.8,50.8,84.2,49.7c10.4-1.1,49.7-21.5,50.5-29.7C774.5,647.2,772.3,641,772.3,641z"/>
		<path class="st1" d="M720,678.6c-1.9-5.9-10.3-9.4-24.9-18.3c-14.6-8.8-15.9-13.3-8.4-17.7c6.8-4,44.4-29.2,51.1-33.8
			c-22.7-16.4-47.5-30.5-47.5-30.5c-19.4,3.3-49.8,23.4-52.7,30.8c-2.2,5.7-2.2,13.3-1.2,20l0,0l0,0c0.3,2,0.7,3.9,1.2,5.7
			c1.4,10.4,73.8,50.8,84.2,49.7c10.4-1.1,49.7-21.5,50.5-29.7c0.4-1.3,0.6-2.6,0.7-3.8C761.9,662.3,731.9,678.6,720,678.6z"/>
		<g>
			<g>
				<path class="st2" d="M782.7,488.8l-54.9-1.7c0,0-29.7,12.6-43,28.2c-13.4,15.6-37.6,79.4-38.6,82.2c-2.2,6.4-0.7,15.8,4.4,24.7
					c7.3,12.7,19.5,19.5,27.1,15.1l48.4-29.8c2-1.2,3.5-3,4.5-5.3c16.6-22.6,49.5-86.9,52.6-95.5
					C786.6,497.2,782.7,488.8,782.7,488.8z"/>
			</g>
			<path class="st3" d="M741.1,487.8l-1.3-0.3l-12-0.4c0,0-29.7,12.6-43,28.2c-13.4,15.6-37.6,79.4-38.6,82.2
				c-2.2,6.4-0.7,15.8,4.4,24.7c5.3,9.2,13.2,15.3,20,16.2c7.3-15.3,13.3-27.4,27.7-57.8c16.4-34.5,31.4-58,31.4-58L741.1,487.8z"/>
			<path class="st1" d="M655.7,599.2c-5,2.9-5.1,11.9-0.3,20.3c4.8,8.3,12.7,12.7,17.7,9.8c5-2.9,5.1-11.9,0.3-20.3
				C668.6,600.7,660.7,596.3,655.7,599.2z"/>
		</g>
		<g>
			<path class="st0" d="M780,463.6c-7.3-12.7-19.5-19.5-27.1-15.1l-48.4,29.8c-7.6,4.4-7.9,18.3-0.5,31
				c7.3,12.7,19.5,19.5,27.1,15.1l48.4-29.8C787.1,490.2,787.4,476.3,780,463.6z"/>
			<path class="st1" d="M709.1,486.4c-5,2.9-5.1,11.9-0.3,20.3c4.8,8.3,12.7,12.7,17.7,9.8c5-2.9,5.1-11.9,0.3-20.3
				C722,487.9,714.1,483.5,709.1,486.4z"/>
			<path class="st2" d="M745.6,496.3c-3.7,4.8-3,19.8-18.8,32.7l29.2-7.4l28.2-22.3c0,0,0.2-21-7.4-23.3
				C771.8,474.5,752,487.8,745.6,496.3z"/>
			<path class="st4" d="M779.7,494.7c2.8,5.1-1.2,12.6-8.9,16.8c-7.7,4.2-16.2,3.5-19-1.6c-2.8-5.1,1.2-12.6,8.9-16.8
				C768.4,488.9,776.9,489.6,779.7,494.7z"/>
		</g>
		<g>
			<path class="st2" d="M684,345.4c-9.2,14.2-5.2,39.3,0,68.3c5.2,28.9,8.2,60.1,20.8,69c0,0,8.9-11.9,23,4.5c0,0,31.9-13.4,49-28.2
				c0,0,2.2-31.2-4.5-67.5c-6.7-36.4-21.5-69-31.9-72.7C730,314.9,690.7,335,684,345.4z"/>
			<path class="st4" d="M767.5,457.3c-8,1.8-7.4-21.7-13.7-49.2c-6.3-27.5-17.1-48.4-9.1-50.3c8-1.8,19.6,18.9,26,46.4
				C776.9,431.7,775.5,455.5,767.5,457.3z"/>
			<path class="st0" d="M714.2,367.1c-1.8,5.5,5.4,39.1,8.9,40.1c3.5,1,38.6-19.3,40.6-23.7c2-4.4-7.4-35.1-10.4-37.1
				C750.3,344.4,714.6,365.6,714.2,367.1z"/>
			<path class="st3" d="M710.1,385.1c5.8-11.1,41.1-26.3,53.3-27.7c-7.2-20.8-16.1-36.3-23-38.8c-10.4-3.7-49.7,16.3-56.4,26.7
				c-9.2,14.2-5.2,39.3,0,68.3c5.2,28.9,8.2,60.1,20.8,69c0,0,8.9-11.9,23,4.5C717.5,472.7,703.5,398,710.1,385.1z"/>
		</g>
	</g>
	<g>
		<path class="st0" d="M681.3,691.4c-13.1-23.5-82-62.7-82-62.7c-19.4,3.3-49.8,23.4-52.7,30.8c-2.8,7.4-2.1,17.8,0,25.7
			c1.4,10.4,73.8,50.8,84.2,49.7c10.4-1.1,49.7-21.5,50.5-29.7C683.5,697.6,681.3,691.4,681.3,691.4z"/>
		<path class="st1" d="M628.9,729c-1.9-5.9-10.3-9.4-24.9-18.3c-14.6-8.8-15.9-13.3-8.4-17.7c6.8-4,44.4-29.2,51.1-33.8
			c-22.7-16.4-47.5-30.5-47.5-30.5c-19.4,3.3-49.8,23.4-52.7,30.8c-2.2,5.7-2.2,13.3-1.2,20.1l0,0l0,0c0.3,2,0.7,3.9,1.2,5.7
			c1.4,10.4,73.8,50.8,84.2,49.7c10.4-1.1,49.7-21.5,50.5-29.7c0.4-1.3,0.6-2.6,0.8-3.8C670.8,712.8,640.8,729,628.9,729z"/>
		<g>
			<g>
				<path class="st2" d="M691.6,539.3l-54.9-1.7c0,0-29.7,12.6-43,28.2c-13.4,15.6-37.6,79.4-38.6,82.2c-2.2,6.4-0.7,15.8,4.4,24.7
					c7.3,12.7,19.5,19.5,27.1,15.1l48.4-29.8c2-1.2,3.5-3,4.5-5.3c16.6-22.6,49.5-86.9,52.6-95.5
					C695.6,547.7,691.6,539.3,691.6,539.3z"/>
			</g>
			<path class="st3" d="M650.1,538.2l-1.3-0.3l-12-0.4c0,0-29.7,12.6-43,28.2c-13.4,15.6-37.6,79.4-38.6,82.2
				c-2.2,6.4-0.7,15.8,4.4,24.7c5.3,9.2,13.2,15.3,20,16.3c7.3-15.3,13.3-27.4,27.7-57.8c16.4-34.5,31.4-58,31.4-58L650.1,538.2z"/>
			<path class="st1" d="M564.6,649.6c-5,2.9-5.1,11.9-0.3,20.3c4.8,8.3,12.7,12.7,17.7,9.8c5-2.9,5.1-11.9,0.3-20.3
				C577.6,651.1,569.6,646.7,564.6,649.6z"/>
		</g>
		<g>
			<path class="st0" d="M689,514.1c-7.3-12.7-19.5-19.5-27.1-15.1l-48.4,29.8c-7.6,4.4-7.9,18.3-0.5,31
				c7.3,12.7,19.5,19.5,27.1,15.1l48.4-29.8C696.1,540.7,696.3,526.8,689,514.1z"/>
			<path class="st1" d="M618.1,536.8c-5,2.9-5.1,11.9-0.3,20.3c4.8,8.3,12.7,12.7,17.7,9.8c5-2.9,5.1-11.9,0.3-20.3
				C631,538.3,623.1,533.9,618.1,536.8z"/>
			<path class="st2" d="M654.5,546.7c-3.7,4.8-3,19.8-18.8,32.7l29.2-7.4l28.2-22.3c0,0,0.2-21-7.4-23.3
				C680.8,525,661,538.3,654.5,546.7z"/>
			<path class="st4" d="M689.4,539.9c2.8,5.1-1.2,12.6-8.9,16.8c-7.7,4.2-16.2,3.5-19-1.6c-2.8-5.1,1.2-12.6,8.9-16.8
				C678.2,534.1,686.7,534.8,689.4,539.9z"/>
			<path class="st4" d="M640.4,630.4c-5.9-3,8.7-21.3,21.6-46.6c12.9-25.2,19.1-47.8,25-44.8c5.9,3,0.2,25.9-12.6,51.1
				C661.4,615.3,646.2,633.4,640.4,630.4z"/>
		</g>
		<g>
			<path class="st2" d="M592.9,395.8c-9.1,14.2-5.2,39.3,0,68.3c5.2,28.9,8.2,60.1,20.8,69c0,0,8.9-11.9,23,4.5
				c0,0,31.9-13.4,49-28.2c0,0,2.2-31.2-4.5-67.5c-6.7-36.4-21.5-69-31.9-72.7C639,365.4,599.6,385.4,592.9,395.8z"/>
			<path class="st4" d="M674.6,507.8c-8,1.8-7.4-21.7-13.7-49.2c-6.3-27.5-17.1-48.4-9.1-50.3c8-1.8,19.6,18.9,26,46.4
				C684,482.2,682.6,505.9,674.6,507.8z"/>
			<path class="st0" d="M623.1,417.6c-1.8,5.5,5.4,39.1,8.9,40.1c3.5,1,38.6-19.3,40.6-23.8c2-4.5-7.4-35.1-10.4-37.1
				C659.2,394.8,623.6,416.1,623.1,417.6z"/>
			<path class="st3" d="M619.1,435.6c5.8-11.1,41.1-26.2,53.3-27.7c-7.2-20.8-16.1-36.3-23-38.8c-10.4-3.7-49.7,16.3-56.4,26.7
				c-9.1,14.2-5.2,39.3,0,68.3c5.2,28.9,8.2,60.1,20.8,69c0,0,8.9-11.9,23,4.5C626.5,523.2,612.5,448.4,619.1,435.6z"/>
		</g>
	</g>
	<g>
		<path class="st0" d="M850.5,385.2c-0.2-5.4-2.3-18.9-3.5-25.8c0.4-1.9,0.6-3.8,0.6-5.8c0-16.8-13.6-30.5-30.5-30.5
			s-30.5,13.6-30.5,30.5c0,9.7,4.6,18.4,11.7,24c-0.9,3.3-1.8,7.3-2.3,10.6c-1,7.2,1.7,11.9,8.2,11.4c2.7-0.2,4.3-2.6,5.6-5.8
			c2,5.7,8.3,3.1,8.3,3.1s-5.7,5.9-2,9.7c3.7,3.7,9.9-0.7,9.9-0.7s-6.4,5.9-1.5,9.4c4.9,3.5,16.3-2.7,19.5-7.2
			C847.2,403.5,850.7,392.6,850.5,385.2z"/>
		<path class="st1" d="M835,399.3c3.1-7.1-2.6-19-2.6-19c-16.8-4.4-14.2-27-14.2-27l-6.2-26.5l-15.8,4.6c-5.9,5.6-9.6,13.4-9.6,22.2
			c0,9.7,4.6,18.4,11.7,24c-0.9,3.3-1.8,7.3-2.3,10.6c-1,7.2,1.7,11.9,8.2,11.4c2.7-0.2,4.3-2.6,5.6-5.8c2,5.7,8.3,3.1,8.3,3.1
			s-5.7,5.9-2,9.7c3.7,3.7,9.9-0.7,9.9-0.7s-6.4,5.9-1.5,9.4c1.2,0.9,2.8,1.1,4.6,1C826.8,412.1,832.3,405.4,835,399.3z"/>
		<path class="st2" d="M766.1,285c0,0,14.7,52,21.1,72.8c0,0,10.1,4.9,30.4-0.6c20.3-5.4,27.3-15.4,27.3-15.4s-8-43.5-16.5-78.1
			L766.1,285z"/>
		<path class="st3" d="M803.1,285.2l-6.2-10.7L766.1,285c0,0,14.7,52,21.1,72.8c0,0,10.1,4.9,30.4-0.6c0.7-0.2,1.3-0.4,2-0.6
			L803.1,285.2z"/>
		<path class="st4" d="M840.5,339.8c-6.1,2.6-13.9-32.3-19.8-46.2c-5.9-14-14.9-23.5-8.8-26c6.1-2.5,13.9-8.5,21.6,20.7
			C837.5,302.9,846.6,337.3,840.5,339.8z"/>
		<path class="st0" d="M769.8,292.4c-15-13.4-16.3-36.4-2.9-51.4c13.4-15,36.4-16.3,51.4-2.9c9.7,8.7,13.7,21.5,11.6,33.5
			C818.9,287.5,787.8,295.3,769.8,292.4z"/>
		<path class="st1" d="M794.8,250.5l-1.4-21.6c-9.8,0.2-19.5,4.2-26.5,12.1c-13.4,15-12.1,38,2.9,51.4c9.2,1.5,21.8,0.1,33.4-3.6
			C794.4,272.4,794.8,250.5,794.8,250.5z"/>
		<path class="st2" d="M764.6,273.1c0,0,16.8,21.8,19.3-11.9c6.9-8.4,17.8-18.8,36.1-20.8c0,0-1.1-4.6-16-33.9
			c-14.8-29.3-22.1-39.3-22.1-39.3s-3.5,17.3-25.2,29.2L764.6,273.1z"/>
		<path class="st3" d="M767.7,193.6l-7.6,0.8c-1.1,0.7-2.2,1.3-3.4,2l7.9,76.7c0,0,16.8,21.8,19.3-11.9c2.9-3.5,6.4-7.3,10.9-10.7
			C784.2,228.4,767.7,193.6,767.7,193.6z"/>
	</g>
	<g>
		<path class="st4" d="M804.7,231.3c-5.5,3.6-19.4-29.3-27.7-42c-8.3-12.7-18.9-20.4-13.3-24c5.5-3.6,12.1-10.8,25,16.5
			C795.1,195.5,810.2,227.7,804.7,231.3z"/>
		<circle class="st0" cx="734.9" cy="163.1" r="48"/>
		<path class="st5" d="M705.7,119.1c0,0-37.8-18.1-68.3-15.1c-30.4,3-90.5,40.1-100.2,62.3c-9.6,22.3-5.7,117.8,6.2,145.8l43.5,30.2
			l118.7-178.9V119.1z"/>
		<path class="st6" d="M591.4,183.2c-34.8-19.8-49.8-15.9-56.1-10.7c-7,30.1-2.8,113.6,8.1,139.5l43.5,30.2l5.8-8.7
			C593.1,290.9,591.4,183.2,591.4,183.2z"/>
		<path class="st0" d="M700.4,121.7c-24.6-1.1-105.1,40.4-116.8,60.4c-11.6,20-7.9,148.4-7.9,148.4l-37.6-15.8
			c0,0,9.9,66.3,55.4,84.1c45.5,17.8,76.4,6.5,112.8-17.8c36.4-24.3,49.5-39.6,53.4-70.3s2.6-91.1,1-123.7
			C758.8,147.4,728.3,122.9,700.4,121.7z"/>
		<path class="st1" d="M700.4,121.7c-24.6-1.1-105.1,40.4-116.8,60.4c-11.6,20-7.9,148.4-7.9,148.4l-37.6-15.8
			c0,0,9.9,66.3,55.4,84.1c45.5,17.8,76.4,6.5,112.8-17.8c36.4-24.3,49.5-39.6,53.4-70.3s2.6-91.1,1-123.7
			C758.8,147.4,728.3,122.9,700.4,121.7z"/>
		<path class="st2" d="M705.7,119.1c-24.6-1.1-105.1,40.4-116.8,60.4c-11.6,20-7.9,148.4-7.9,148.4L543.5,312
			c0,0,9.9,66.3,55.4,84.1c45.5,17.8,76.4,6.5,112.8-17.8c36.4-24.3,49.5-39.6,53.4-70.3c4-30.7,2.6-91.1,1-123.7
			C764.1,144.8,733.7,120.3,705.7,119.1z"/>
		<path class="st3" d="M697.6,369.6c-21.4,11.5-41.1,16.7-58.6,17.5c2.8-13,9.8-48.6,10.8-80.5c1.3-39.8-6.6-76.3-6.6-76.3
			l-61.5-2.4c-2.3,43.8-0.6,99.9-0.6,99.9L543.5,312c0,0,2.1,13.8,8.6,30.5c7.8,19.9,22,43.9,46.8,53.6
			c45.5,17.8,76.4,6.5,112.8-17.8c35.4-23.7,48.7-38.8,53.1-67.9C752.5,335.5,736.2,348.9,697.6,369.6z"/>
		<path class="st7" d="M543.5,312c0,0,2.1,13.8,8.6,30.5c7.8,19.9,22,43.9,46.8,53.6c45.5,17.8,76.4,6.5,112.8-17.8
			C577.1,453.1,543.5,312,543.5,312z"/>
		<path class="st0" d="M698.9,119.6c-22.1,3.5-65.4,24.3-91,42.4c8.7,13.5,30.5,23.1,56.1,23.1c33.2,0,60.2-16.2,60.2-36.1
			C724.1,136.8,714.2,126.1,698.9,119.6z"/>
		<path class="st4" d="M732.4,136.7c-8.2,0.2,11,30.5-37,46.1c-37.4,12.2-68,12.2-64.1,22.2c3.9,10,33.4,6.8,66.6-5.1
			c14.9-5.4,39.8,12.1,41.1,29c4.4,60.4-16.9,104.9-1,104.4c15.9-0.4,26.1-44.8,26-99.1C763.7,165.3,748.2,136.3,732.4,136.7z"/>
		<path class="st5" d="M752.5,216c0-14.9-11.9,5.2-31.9,16.3c-24.7,13.7-44.5,10.4-44.5,26c0,14.1,27.3,7.2,46-4.5
			C745.8,239,752.5,228.6,752.5,216z"/>
		<path class="st6" d="M724.7,251.2c-18.7,11.7-46,18.6-46,4.5c0-2.9,0.7-5.1,1.9-6.9c-2.9,2.2-4.6,5.1-4.6,9.6
			c0,14.1,27.3,7.2,46-4.5c9.7-6.1,16.5-11.4,21.2-16.4C738.8,241.7,732.8,246.2,724.7,251.2z"/>
	</g>
	<g>
		<path class="st2" d="M751.3,100.4c0,16.6-4.7,32-12.9,45.1c-25.5,38.8-111.9,42.4-144.7,0.6c-8.4-13.2-13.3-28.9-13.3-45.7
			c0-47.2,38.2-85.4,85.4-85.4C713.1,15,751.3,53.2,751.3,100.4z"/>
		<path class="st3" d="M693.8,19.7c-8.7-3-18.1-4.7-27.9-4.7c-47.2,0-85.4,38.2-85.4,85.4c0,16.8,4.9,32.5,13.3,45.7
			c9.3,11.8,22.9,20,38.2,24.8c-14.3-18.6-30.7-51.3-13.9-91.2C637.1,34.4,674.4,22.7,693.8,19.7z"/>
		<path class="st4" d="M724,58.9c-3.9,7.5-16.3,8.7-27.6,2.7c-11.3-6-17.2-16.8-13.3-24.3c3.9-7.5,16.3-8.7,27.6-2.7
			C722,40.6,727.9,51.4,724,58.9z"/>
		<path class="st8" d="M738.4,145.5c8.2-13.1,12.9-28.6,12.9-45.1c0-2-0.1-4.1-0.2-6.1c-4.3-32.3-30.5-47.1-30.5-47.1
			c-40.1,10.4-69.3,40.1-69.3,40.1s37.1,37.1,20.6,88.6C699.7,174.7,726.2,164.2,738.4,145.5z"/>
		<path class="st9" d="M664.2,89.3c0,0,17.8-21.3,56.9-32.7c0,0,18.7,13,23.7,36.6C744.8,93.3,714.6,70.5,664.2,89.3z"/>
		<path class="st0" d="M593.7,99c-8.8,5.1-9.1,21.1-0.6,35.7c8.5,14.7,22.5,22.4,31.3,17.4c8.8-5.1,9.1-21.1,0.6-35.7
			C616.5,101.7,602.5,93.9,593.7,99z"/>
		<path class="st2" d="M596.1,109c-6.3,3.6-6.5,15.1-0.4,25.6c6.1,10.5,16.1,16,22.4,12.4c6.3-3.6,6.5-15.1,0.4-25.6
			C612.4,111,602.4,105.4,596.1,109z"/>
		<path class="st7" d="M605.6,109.1c-3.5-1.5-6.8-1.6-9.5-0.1c-6.3,3.6-6.5,15.1-0.4,25.6c4.8,8.3,12,13.4,17.9,13.5
			C606,133.8,605.2,118.6,605.6,109.1z"/>
	</g>
	<g>
		<path class="st0" d="M645.4,236.3c0,26.5-21.5,48-48,48c-26.5,0-48-21.5-48-48c0-26.5,21.5-48,48-48
			C623.9,188.3,645.4,209.8,645.4,236.3z"/>
		<path class="st1" d="M606.8,189.3c-3-0.6-6.2-0.9-9.4-0.9c-26.5,0-48,21.5-48,48c0,20.7,13.1,38.3,31.5,45l0.6-0.6
			C563.8,219.7,597.1,195,606.8,189.3z"/>
		<path class="st0" d="M590.6,457.6c-1.4-15.5-14.5-27.6-30.3-27.6c-16.8,0-30.5,13.7-30.5,30.5c0,6.7,2.2,12.9,5.9,17.9
			c1.2,6.8,3.8,17.1,8.3,22.8c7.1,8.9,17.1,7.8,17.1,7.8c4.5,8.2,14.1,5.6,14.1,5.6s7.1,9.3,13.4,4.8c6.3-4.5-1.1-11.5-5.2-20.8
			c-2.3-5.3-2.2-11.8-1.7-16.4c3.1-3,5.6-6.8,7.2-10.9c8.5-0.6,17.3,4.1,17.6-2.4C606.6,461.9,595.9,458.7,590.6,457.6z"/>
		<path class="st1" d="M588.5,519.4c1.4-1,2.1-2.2,2.3-3.5c-16.5,2.8-25.7-31.2-25.7-31.2c-9.7-5.7-9.7-19.9-9.7-19.9l-1.3-34.2
			c-13.9,2.9-24.3,15.1-24.3,29.8c0,6.7,2.2,12.9,5.9,17.9c1.2,6.8,3.8,17.1,8.3,22.8c7.1,8.9,17.1,7.8,17.1,7.8
			c4.5,8.2,14.1,5.6,14.1,5.6S582.2,523.8,588.5,519.4z"/>
		<path class="st2" d="M516.5,365.1c0,0,5.6,58.4,13.4,98.5c0,0,32.2,14.1,60.4-9.9c0,0-1-45-4.9-90.3
			C585.3,363.4,549.2,377.3,516.5,365.1z"/>
		<path class="st3" d="M539.9,369.9c-7.6-0.5-15.6-1.9-23.4-4.8c0,0,5.6,58.4,13.4,98.5c0,0,9.9,4.3,23.5,4.1
			C549.1,443,543.3,398,539.9,369.9z"/>
		<path class="st4" d="M580.7,447c-8.4,1.5-8.4-44.7-11.8-63.9c-3.4-19.3-12.2-33.9-3.8-35.4c8.4-1.5,19.9-6.8,21.4,32.2
			C587.3,399.5,589.1,445.5,580.7,447z"/>
		<path class="st0" d="M587.1,355.1c0,20.1-16.3,36.4-36.4,36.4c-20.1,0-36.4-16.3-36.4-36.4c0-20.1,16.3-36.4,36.4-36.4
			C570.7,318.6,587.1,334.9,587.1,355.1z"/>
		<path class="st1" d="M547.7,318.8c-18.7,1.5-33.5,17.2-33.5,36.3c0,17.8,12.7,32.5,29.5,35.7c-2.9-22.8,1.5-43.7,1.5-43.7
			L547.7,318.8z"/>
		<path class="st2" d="M550.6,241.8c0,0-9.2,22.9-19.5,52.6c-6,17.2-10.9,34.1-13.5,47.6c0,0-3.7,17.4,7.4,20.8
			c11.2,3.3,18.6-13.4,18.6-13.4s17.8-11.9,40.1-7.8c0,0,28.2-53.4,33.8-62.3c0,0-1.5-5.9-1.1-11.5
			C616.3,267.8,577,267.8,550.6,241.8z"/>
		<path class="st4" d="M605.9,290.7c3.9-8.2,6.7-16.2,8.3-22.9c-2.5-0.1-7.2-0.5-13.1-1.5c-2.2,5.5-4.7,11.9-7.8,18.5
			c-9.7,20.4-21.8,34.9-15.9,37.7C583.5,325.3,596.2,311,605.9,290.7z"/>
		<path class="st4" d="M727.3,584.9c-5.8-3.1,9-21.2,22.2-46.3c13.2-25.1,19.8-47.6,25.6-44.5c5.8,3.1-0.1,25.9-13.4,51
			C748.6,570.1,733.2,587.9,727.3,584.9z"/>
		<path class="st3" d="M577.1,259.2c-9-3.8-18.4-9.4-26.5-17.4c0,0-9.2,22.9-19.5,52.6c-6,17.2-10.9,34.1-13.5,47.6
			c0,0-3.7,17.4,7.4,20.8c11.2,3.3,18.6-13.4,18.6-13.4S558.3,302,577.1,259.2z"/>
		<path class="st1" d="M534.6,331.5c-4.1-1.4-9.3,2.9-11.7,9.7c-2.4,6.8-1,13.5,3.1,14.9c4.1,1.4,9.3-2.9,11.7-9.7
			C540.1,339.6,538.7,332.9,534.6,331.5z"/>
	</g>
</g>
</svg>
