<?xml version="1.0" encoding="utf-8"?>
<!-- Generator: Adobe Illustrator 22.0.0, SVG Export Plug-In . SVG Version: 6.00 Build 0)  -->
<svg version="1.1" id="Layer_1" xmlns="http://www.w3.org/2000/svg" xmlns:xlink="http://www.w3.org/1999/xlink" x="0px" y="0px"
	 viewBox="0 0 1366 768" style="enable-background:new 0 0 1366 768;" xml:space="preserve">
<style type="text/css">
	.st0{fill:#E4ECF1;}
	.st1{opacity:0.8;fill:#C2E0F2;}
	.st2{fill:#FFFFFF;}
	.st3{fill:#5385A6;}
	.st4{fill:#B5CBD8;}
	.st5{fill:#19212C;}
	.st6{fill:#177FB3;}
	.st7{opacity:0.6;fill:#177FB3;}
	.st8{fill:#2E3C4D;}
</style>
<g>
	<g>
		<g>
			<path class="st0" d="M736.1,613.8c-1.7,4.1-6.8,13.7-5.4,20.8c1.4,7.1,5.9,11.6,21.3,14.7c13.3,2.7,27.7,18.1,41,16.8
				c7.4-0.8,9.7-8.4,8.4-14c-1-4.5-9.4-10.5-12.3-12.1c-14-7.7-21.8-11.5-32.6-24.7L736.1,613.8z"/>
			<path class="st1" d="M801.3,658.5c-6.3,6.6-15.5,2.5-25.2-3.1c-5-2.9-11.5-6.4-17.1-8.6c-11.9-4.7-11.2-15.2-11.2-15.2l-0.2-17
				l-11.4-0.9c-1.7,4.1-6.8,13.7-5.4,20.8c1.4,7.1,5.9,11.6,21.3,14.7c13.3,2.7,27.7,18.1,41,16.8
				C797.7,665.6,800.3,662.3,801.3,658.5z"/>
			<path class="st2" d="M763.3,627.2c-1.8,0.1-1.3,2.2-3.4,4.7c-2.1,2.4-7.1,2.7-7.1,5.1c0,2.4,6.3,2.6,13.2,2.9
				c14.4,0.6,28.4,14.7,31.9,13.3c2.9-1.1-6.4-9.2-11.9-12C772.4,634.1,766,627.1,763.3,627.2z"/>
		</g>
		<g>
			<path class="st3" d="M733.6,617.2c0,0-2.1,16.3,13.4,16.3c17.4,0,12.2-18.1,12.2-18.1L733.6,617.2z"/>
			<path class="st4" d="M747.6,616.2l-14,1c0,0-2.1,16.3,13.4,16.3c0.3,0,0.4,0,0.7,0V616.2z"/>
		</g>
		<g>
			<path class="st3" d="M715.5,483.5c0,0,0.5,10,3.4,14.5l23.8,9.7l6.1-8.8c0,0,5.9-13.1,3.2-22.4l-34-15.4L715.5,483.5z"/>
			<path class="st4" d="M718,461.1l-2.5,22.4c0,0,0.5,10,3.4,14.5l15.6,6.4l1.1-11.4c-2.6-8.4-3.8-19.7-3.8-19.7v-6L718,461.1z"/>
		</g>
		<g>
			<path class="st0" d="M699.2,400.2c0,0,11.3,48.4,12.7,61.6c1.4,13.2,3.6,21.7,3.6,21.7s2.9-10,13.6-8.6c10.7,1.4,12.7,14,12.7,14
				s10.9-3.2,14-11.3c3.2-8.2,5-37.6,4.1-72c-0.9-34.4-10.4-64.3-19.9-73.4L699.2,400.2z"/>
			<path class="st2" d="M744.6,359.8c-8.3,0.3-2.6,29.5,1.3,48.1c3.8,18.6,1.9,63.1,6.1,63.8c3.5,0.6,5.1-22.1,3.8-57.7
				C754.6,378.4,750.7,359.6,744.6,359.8z"/>
			<path class="st1" d="M744.5,338.1c-1.5-2.4-3-4.5-4.5-5.9l-40.8,68c0,0,11.3,48.4,12.7,61.6c1.4,13.2,3.6,21.7,3.6,21.7
				s2.9-10,13.6-8.6c1.7,0.2,3.1,0.7,4.4,1.4c-4-20.7-5.3-49.8-6.7-65.3c-1.8-20.4,1.8-39.9,6.3-50.3
				C735.1,356.3,740.2,346.4,744.5,338.1z"/>
			<path class="st3" d="M699.2,400.2c0,0,0.6,2.8,1.6,7.1c11.3-0.7,16.6-11.4,19.3-18.8c2.7-7.7,11.2-29.7,15.1-37.7
				c3.1-6.4,6.1-12.2,6.8-16.3c-0.5-0.7-1.1-1.3-1.6-1.8l-0.5-0.2L699.2,400.2z"/>
			<path class="st4" d="M699.2,400.2c0,0,0.6,2.8,1.6,7.1c11.3-0.7,16.6-11.4,19.3-18.8c2.7-7.7,11.2-29.7,15.1-37.7
				c3.1-6.4,6.1-12.2,6.8-16.3c-0.5-0.7-1.1-1.3-1.6-1.8l-0.5-0.2L699.2,400.2z"/>
		</g>
		<g>
			<path class="st0" d="M727.4,483.1c-7.1-0.7-10.9,12.2-11.2,16.6c-0.3,4.4-4.1,13-0.7,38.2c3.4,25.1,9.6,27,18.1,79.3
				c1.3,7.9,8,13.2,14.5,12.2c9.5-1.4,12-6.8,11.1-18.3c-1.8-22.9-0.7-48.5-0.2-62.1c1.4-42.1-3.6-54.7-5.4-55.5
				c-3.6-1.6-14.3,6.9-14.3,6.9S737.6,484.1,727.4,483.1z"/>
			<path class="st2" d="M750.1,500c-6,0.5-2.6,48.1-1.6,67.4c1,19.2,3.2,54.5,6.4,52.9c3.2-1.6,0.3-33.1,0-56.1
				C754.6,535.6,757.8,499.4,750.1,500z"/>
			<path class="st1" d="M739.3,500.4c0,0-1.7-16.4-11.9-17.3c-7.1-0.7-10.9,12.2-11.2,16.6c-0.3,4.4-4.1,13-0.7,38.2
				c3.4,25.1,9.6,27,18.1,79.3c1.3,7.9,8,13.2,14.5,12.2c0.1,0,0.1,0,0.2,0c-5.8-11.3-8.1-56.9-9.3-85.1
				C737.6,512.7,739.3,500.4,739.3,500.4z"/>
			<path class="st4" d="M725.8,489.6c-3.5,0.5-5.6,5.7-4.7,11.5c0.9,5.8,4.5,10.1,8,9.6c3.5-0.5,5.6-5.7,4.7-11.5
				C732.9,493.4,729.3,489.1,725.8,489.6z"/>
		</g>
	</g>
	<g>
		<g>
			<path class="st3" d="M757.8,334.8l0.4,5c0,0,2.9,5.3,10.3,3.2c7.4-2.1,8.2-6,8.2-6l-0.9-5.7L757.8,334.8z"/>
			<path class="st4" d="M767.3,343.3c-0.6-3.2-1.2-8.1-1.5-10.1l-8,1.5l0.4,5C758.2,339.8,760.8,344.6,767.3,343.3z"/>
		</g>
		<g>
			<g>
				<path class="st0" d="M757.6,335.4c0,0,8.2,7.7,18.6-2.7c0,0-2.9-27.3-5.7-45.3c-3.8-24.7-11.3-41.2-16.1-47.1l-16.8,1.4
					c0,0-3.2,22.7,0.9,44.9C742.7,308.7,751.3,309.1,757.6,335.4z"/>
				<path class="st1" d="M752.6,287.8c-4.1-16.5-3.2-38.7-3.2-38.7l0.4-8.5l-12.2,1c0,0-3.2,22.7,0.9,44.9
					c4.1,22.2,12.7,22.7,19,48.9c0,0,3.9,3.6,9.6,2.5C764,321.5,756.4,303.1,752.6,287.8z"/>
				<path class="st2" d="M756.2,254.9c-7.4,0.9,1.9,28.9,6.7,41.1c4.8,12.2,6.1,36.3,8.7,35.6c2.6-0.6-2.9-28.6-3.9-38.8
					C766.5,279.6,761.3,254.3,756.2,254.9z"/>
				<path class="st3" d="M747.9,244.6l0.5-3.8l-10.6,0.9c0,0-1.5,10.6-1.1,24.3C749.9,265.9,747.9,244.6,747.9,244.6z"/>
			</g>
			<g>
				<path class="st3" d="M752.2,230.1c0,0,9.1,14.9-2,22.9c0,0-1.8-5.2-9.1-7.9C741.1,245,740.4,230.5,752.2,230.1z"/>
				<path class="st4" d="M754.2,234.6c-1-2.7-2.1-4.5-2.1-4.5c-11.8,0.5-11.1,14.9-11.1,14.9c3.3,1.2,5.4,2.9,6.8,4.5
					c0-5.3,0.4-10.3,1.6-12.3C750.8,235.2,752.9,235,754.2,234.6z"/>
			</g>
			<g>
				<path class="st0" d="M740.4,161.9c0,0,9.5,33.1,14.5,70.2c0,0-7.3-1.4-8.6,7.2c-1.4,8.6,0.5,26.3-11.8,23.6L713.2,175
					L740.4,161.9z"/>
				<path class="st1" d="M740.4,161.9c0,0,4.6,16.1,9.1,38.5c1.1,12.2,1.1,25.8-0.5,33.3c-1.2,1.1-2.3,2.8-2.7,5.6
					c-1.4,8.6,0.5,26.3-11.8,23.6L713.2,175L740.4,161.9z"/>
			</g>
		</g>
		<g>
			<path class="st0" d="M757.8,338.3c0,0,8.3,6.6,19-2.3c0,0,5.7,15.9,7.2,20.8c1.6,5,1.1,13.6,0.7,17.9c-0.5,4.3-5.9,17.4-9.7,16.8
				c-3.9-0.7,1.1-10.5,1.6-13.3c0.7-4.1-0.2-9.7-0.2-9.7s-1.6,6.6-3.3,10.9c-1.4,3.5-6.5,11.2-9,10.1c-2.5-1.1-0.2-7.2-0.2-7.2
				s-1.9,2.7-3.6,2c-0.9-0.4-1.9-3.4,0-6.6c0,0-4.1,0.7-2.3-4.1c1.8-4.8,2.7-6.6,3.6-8.6c0.9-2,2.7-6.3-1.1-9.5
				C756.7,352.4,756.5,347.4,757.8,338.3z"/>
			<path class="st1" d="M777.9,390c-4-1,0.1-7.4,1.6-11.6c1.5-4.4,1.4-9.3,0-14.1c-1.4-4.8-4.4-13.1-4.4-13.1s-2.7,2.9-4.7,1.8
				c-2.5-1.4-3-10.4-3.2-12.4c-5.7,0.7-9.4-2.3-9.4-2.3c-1.4,9.1-1.1,14,2.7,17.2c3.8,3.2,2,7.5,1.1,9.5c-0.9,2-1.8,3.9-3.6,8.6
				c-1.8,4.8,2.3,4.1,2.3,4.1c-1.9,3.2-0.9,6.2,0,6.6c1.7,0.7,3.6-2,3.6-2s-2.3,6.1,0.2,7.2c2.5,1.1,7.6-6.6,9-10.1
				c1.7-4.3,3.3-10.9,3.3-10.9s0.9,5.7,0.2,9.7c-0.5,2.8-5.4,12.6-1.6,13.3C776,391.7,777,391.1,777.9,390z"/>
			<path class="st0" d="M770.9,347.9c-2.1,1.4-3.2,9.9-3.2,12.7c0,2.7,0.3,8.4,1.9,9.7c2.1,1.7,3.1-0.2,3.2-3.2
				c0.2-3.2,0.1-6.5,0.4-7.6c0.3-1.1,1.4-2.8,2.2-5.2C777.2,348.9,774.4,345.5,770.9,347.9z"/>
			<path class="st2" d="M774.3,340.7c-3.1,1.1-5.3,16-3.5,15.9c1.8-0.2,2.9-9.1,4.7-9.3c1.8-0.2,4.3,10.3,5.1,12.4
				c0.8,2.1,1.1,11.3,2.4,11.2c1.3-0.2,1.1-8.3-0.2-12.7C781.5,353.9,778.3,339.3,774.3,340.7z"/>
		</g>
		<g>
			<path class="st3" d="M743,155.2c0,17.1-13.8,30.9-30.9,30.9c-17.1,0-30.9-13.8-30.9-30.9c0-17.1,13.8-30.9,30.9-30.9
				C729.2,124.3,743,138.1,743,155.2z"/>
			<path class="st4" d="M720.1,125.4c-2.6-0.7-5.2-1.1-8-1.1c-17.1,0-30.9,13.8-30.9,30.9c0,14.4,9.8,26.4,23.1,29.9
				C694.9,155.6,710.8,134.6,720.1,125.4z"/>
		</g>
	</g>
	<g>
		<polygon class="st5" points="633.1,147.9 654.7,131.9 679.2,122.5 704.3,130.8 718.9,159.6 688,187.2 637,163.4 		"/>
		<path class="st0" d="M596.3,184.1c0,0,11.8-19.9,36.7-37.1c0,0,20.4,5.4,36.2,13.6c15.9,8.2,35.5,7.3,39-7.7
			c3.4-15-23.6-28.1-29-30.4c0,0,36.7,0,50.3,19.9c13.6,19.9,18.9,54.8,19,68.9c0.2,22.8-6.8,36.9-7.9,46.9
			c-1.1,9.4-0.6,22.6,0,32.6c0.5,8.2,0,22.9,0,22.9l-0.5,17.2l-51.9,21.7L642.4,335c0,0-1.3-41.9-3.4-51c-2.2-9.5-12.8-40.1-21-48.2
			C609.9,227.6,596.3,184.1,596.3,184.1z"/>
		<path class="st1" d="M724.5,250.7c-12.9,7.1-31.2,11.9-45.9,10c-22.3-2.9-21.1-11.4-21.2-23.5c0,0,0-0.1,0-0.1
			c-0.3-33-8.8-52-22.8-62.5c-9-6.8-20-6.5-26.8-5.5c-7.8,8.6-11.5,15-11.5,15s13.6,43.5,21.7,51.6c8.2,8.2,18.8,38.8,21,48.2
			c2.1,9.1,3.4,51,3.4,51l39.5,15.2c-5.6-9-10.3-18-14.1-27.3c-11.1-29.4,15.4-49.8,50.7-62.4c12.2-4.3,18-2,21.8,0.5
			c0.1-1,0.2-1.9,0.3-2.9c0.9-8.2,5.8-19.2,7.4-35.4C745.3,230.4,739,242.7,724.5,250.7z"/>
		<path class="st2" d="M652.9,160.9c-3.5,4.2,13.1,19.1,34,20.5c23.7,1.6,31.8-3.5,39.1,2.2c7.4,5.8,11.9,34,17,33
			c4.1-0.8-0.5-35.4-5.8-50c-6.7-18.6-16.4-30.8-29.2-35l-5.5,2.9c0,0,12.4,8.2,11.5,17c-1,10.3-4.8,17.3-22.5,18.3
			C668.2,171.2,656.9,156.2,652.9,160.9z"/>
		<path class="st2" d="M724.8,266.8c-13.5,3.8-15.4,18-4.5,27.9c9.3,8.5,6.1,28.6,10.6,26.9c4.5-1.6,6.1-17.6,5.5-33.4
			C735.7,272.6,734.2,264.1,724.8,266.8z"/>
		<g>
			<path class="st5" d="M726.3,206.4c8.4,2.6,11.8,16.1,7.5,30.1c-4.3,14-14.6,23.3-23.1,20.7c-8.4-2.6-11.8-16.1-7.5-30.1
				C707.5,213.1,717.8,203.8,726.3,206.4z"/>
			<path class="st6" d="M725.1,210.1c7.2,2.2,10,13.7,6.3,25.6c-3.7,12-12.5,19.9-19.6,17.7c-7.2-2.2-10-13.7-6.4-25.6
				C709.1,215.8,717.9,207.9,725.1,210.1z"/>
			<path class="st7" d="M725.1,210.1c-6.5-2-14.3,4.3-18.4,14.4c4.3-8.6,11.4-13.7,17.3-11.9c7.2,2.2,10,13.7,6.4,25.6
				c-0.4,1.1-0.8,2.2-1.2,3.3c0.9-1.8,1.7-3.7,2.3-5.8C735.1,223.8,732.3,212.3,725.1,210.1z"/>
		</g>
		<g>
			<path class="st3" d="M690.3,152.5c7.6-4.8,3.7-41.4,3.7-41.4l-44.9-11.9c-0.3,9.9,0.3,19.7,0.3,36.7c0,7.1,1.2,11.8,10.2,16
				C669.3,156.2,682.9,157.3,690.3,152.5z"/>
			<path class="st4" d="M694.1,111l-20.3-5.4l-23.9-1.1l-0.7,4.4c0.1,5.2,0.3,10.9,0.3,18c6.3,4.9,19.8,13.9,30,17
				c4.6,1.4,10.3,1.6,14.7,0.7C696.4,132.5,694.1,111,694.1,111z"/>
			<path class="st4" d="M693.7,146.2c-5.5,5.9-15.7,7.3-28.5,2.2c-9.7-3.8-13.8-9-15.6-12.5c0,7,1.2,11.8,10.2,15.9
				c9.5,4.4,23.1,5.4,30.6,0.7C691.9,151.5,692.9,149.2,693.7,146.2z"/>
		</g>
	</g>
	<g>
		<g>
			<polygon class="st3" points="637.3,347.2 637.3,354.7 690.6,402.5 695.4,403.9 703,396.3 684.9,350.8 646.8,341.3 			"/>
			<polygon class="st4" points="637.3,347.2 637.3,354.7 690.6,402.5 695.4,403.9 703,396.3 684.9,350.8 646.8,341.3 			"/>
		</g>
		<g>
			<g>
				<path class="st0" d="M641.1,329.2c0,0-2.7,11.2-3.7,18c0,0,2.7-3.1,16,1.7c13.3,4.8,40.1,16.6,42.1,55c0,0,12.2,5.1,20-12.6
					c7.8-17.7,13.6-34.3,20.4-46.2c6.8-11.9,5.8-17,5.8-17l-21.4,15C720.2,343.1,675.7,359.4,641.1,329.2z"/>
				<path class="st1" d="M684.7,355.8l0.6-8.6c-13.9-1-29.9-5.5-44.3-18.1c0,0-2.7,11.2-3.7,18c0,0,2.7-3.1,16,1.7
					c7.4,2.6,19,7.5,28.1,17.9C680.8,359.7,684.7,355.8,684.7,355.8z"/>
				<path class="st1" d="M694,392.6c0.7,3.5,1.2,7.2,1.4,11.3c0,0,9.7,4,17.4-7.6C702.1,399.5,696.5,395.5,694,392.6z"/>
				<path class="st2" d="M719.3,361.4c-9.5,1.7-14.4,28.9-9.3,27.6C715.1,387.7,726.7,360.1,719.3,361.4z"/>
			</g>
			<g>
				<path class="st3" d="M640.7,330.9c0,0-0.5-2.8-0.3-7.7c0.2-3.4,1.1-7.3,1.1-7.3s0.5,17.8,34.3,25.5c33.8,7.7,64.4-9.1,64.8-27.7
					c0,0,2.9,8.9,1.1,17c0,0-1.8,15.2-32.8,23.8C677.9,363,642.2,345.7,640.7,330.9z"/>
				<path class="st4" d="M741.8,330.6c0.1-0.4,0.1-0.7,0.2-1.1c-2.4,6.1-6.8,9.4-6.8,9.4c1.7-5,0.5-9.2-0.6-11.6
					c-6,6.7-15.9,12-27.9,14.5c-1,5.6-0.1,11.2-0.1,11.2s-15,4.8-24.7,0.9c-6.9-2.7-6.5-9.1-5.7-12.6c-0.1,0-0.3-0.1-0.4-0.1
					c-33.8-7.7-34.3-25.5-34.3-25.5s-0.9,3.9-1.1,7.3c-0.2,4.9,0.3,7.7,0.3,7.7c1.5,14.8,37.2,32.2,68.2,23.6
					C739.9,345.8,741.8,330.6,741.8,330.6z"/>
			</g>
			<g>
				<path class="st3" d="M729.9,328.8c4.5,2.6,4.6,10.7,0.3,18.1c-4.3,7.4-11.4,11.4-15.9,8.8c-4.5-2.6-4.6-10.7-0.3-18.1
					C718.4,330.2,725.5,326.3,729.9,328.8z"/>
				<path class="st5" d="M728.3,331.8c3.5,2,3.6,8.4,0.2,14.2c-3.4,5.8-8.9,8.9-12.4,6.9c-3.5-2-3.6-8.4-0.2-14.2
					C719.2,332.8,724.8,329.7,728.3,331.8z"/>
				<path class="st8" d="M727.2,333.3c1.7,1,1.7,4.1,0.1,6.9c-1.6,2.8-4.3,4.3-6,3.3c-1.7-1-1.7-4.1-0.1-6.9
					C722.8,333.8,725.5,332.3,727.2,333.3z"/>
			</g>
		</g>
	</g>
	<g>
		<g>
			<g>
				<path class="st3" d="M569.3,439l-1,12.6H590c0,0,0.3-13.6-0.7-13.6C588.3,438,569.3,439,569.3,439z"/>
				<path class="st4" d="M580.3,438.5c-5.3,0.3-11,0.6-11,0.6l-1,12.6h12.5L580.3,438.5z"/>
			</g>
			<g>
				<path class="st0" d="M574.1,313.9c0,0-4.8,10.2-6.8,31.3c-2,21.1,0,98.5,0,98.5s7.9,6.1,24-0.5c0,0,1.1-18.6,10.6-43.7
					c9.5-25.1,8.8-38.7,2-60.5l-8.2-25.1H574.1z"/>
				<path class="st1" d="M595.9,313.9h-21.7c0,0-4.8,10.2-6.8,31.3c-2,21.1,0,98.5,0,98.5s3.7,2.9,11.3,2.6
					c-0.8-45.5,4-107.7,4-107.7L595.9,313.9z"/>
				<path class="st2" d="M597.7,347.3c-4.1,0.7-3.8,16.7-7.4,39.5c-3.6,23.5-7.1,50.3-4.2,50c3.8-0.3,4.3-13,8.3-26.9
					c3.3-11.2,8.2-22.1,9.3-29.5C607,359.8,605.1,346.1,597.7,347.3z"/>
				<path class="st3" d="M589.8,314.2l-16.1,0.8c-1,2.5-3.2,8.9-4.9,19.5c1.2,3.8,3.9,8.6,9.5,9.3c9.7,1.2,16.1-12.6,16.1-12.6
					L589.8,314.2z"/>
			</g>
			<g>
				<path class="st3" d="M583,485.8c0,0,10.2-0.7,10.9,3.1c0.7,3.7-10.2,4.4-10.2,4.4L583,485.8z"/>
				<path class="st0" d="M590.8,447.4c0,0-11,7.8-23.1,1.7c0,0-2.8,12.7-4.4,22.4c-1.1,6.4,2.7,9.2,2.7,9.2s-1.4,6.1,3.4,7.8
					c0,0,0.3,6.8,6.8,5.8c0,0,4.4,4.8,10.2,7.1c5.8,2.4,9.9,2.7,10.9,0c1-2.7-7.5-3.4-10.9-9.5c-3.4-6.1,0.9-21.4,4.6-22.4
					s6.6,7.4,9.7,8.4c3.1,1,4.1,0.3,3.4-4.4c-0.7-4.8-4.7-10.8-6.8-13.6C593.8,455.6,590.6,449.8,590.8,447.4z"/>
				<path class="st1" d="M576.9,478.3c0-6.1,2.3-20.9,3.3-27.1c-3.7,0.4-8,0.1-12.4-2.2c0,0-2.8,12.7-4.4,22.4
					c-1.1,6.4,2.7,9.2,2.7,9.2s-1.4,6.1,3.4,7.8c0,0,0.3,6.8,6.8,5.8c0,0,4.4,4.8,10.2,7.1c5.5,2.3,9.4,2.6,10.7,0.3
					C578.7,499.2,576.9,485.7,576.9,478.3z"/>
				<path class="st2" d="M587,453.5c-4.3,1.6-6.8,15.5-7.2,23.1c-0.3,7.6,1.5,13.8,2.7,13.6c1.2-0.2-0.5-8.4,2.2-16.4
					c2.4-6.8,4.8-8.6,7.8-7.6c3,1,6.2,9.2,8.1,8c1.9-1.2-1.6-7.5-4.8-12C592.7,457.8,590.1,452.3,587,453.5z"/>
			</g>
		</g>
		<g>
			<g>
				<path class="st3" d="M605.1,314.2c0,0,5.1,14.9-2.7,25.1c0,0-3.1,3.1-5.4,3.7c0,0-1-10.2-7.1-17l1.7-7.8L605.1,314.2z"/>
				<path class="st4" d="M605.1,314.2l-13.6,4.1l-1.7,7.8c1.7,1.9,3,4.1,4,6.2c1.7-3.3,3.9-6.9,6.2-8.6c2.6-1.9,4.8-2.9,6.4-3.5
					C605.9,316.7,605.1,314.2,605.1,314.2z"/>
			</g>
			<g>
				<path class="st0" d="M590.5,212c0,0-14.3,82.2-19.7,104c-5.4,21.7,7.5,27.2,14.3,22.4c5.8-4.1,7.5-12.2,11.6-17
					c4.1-4.8,12.2-4.8,12.2-4.8s17.7-48.2,29.2-97.2L590.5,212z"/>
				<path class="st2" d="M620.2,229.2c0,0-7.1,29.2-10.6,44.6c-3.5,15.4-8.7,34.3-4.2,34.6c4.5,0.3,22.1-58.1,26.3-82.8L620.2,229.2
					z"/>
				<path class="st1" d="M582,339.7c5.9-6.5,4.7-12.6,5.7-23.8c4.4-48.2,20.6-84,24.7-100.5l-22-3.5c0,0-14.3,82.2-19.7,104
					C566,334.7,575.1,341.3,582,339.7z"/>
				<path class="st4" d="M578.8,313.6c-3.3,0.2-5.6,4.7-5.3,10.2c0.3,5.4,3.2,9.7,6.5,9.5c3.3-0.2,5.6-4.7,5.3-10.2
					C585,317.7,582.1,313.4,578.8,313.6z"/>
			</g>
			<g>
				<path class="st3" d="M646.2,202.1c0,17.1-13.8,30.9-30.9,30.9c-17.1,0-30.9-13.8-30.9-30.9c0-17.1,13.8-30.9,30.9-30.9
					C632.3,171.2,646.2,185,646.2,202.1z"/>
				<path class="st4" d="M623.3,172.3c-2.6-0.7-5.2-1.1-8-1.1c-17.1,0-30.9,13.8-30.9,30.9c0,14.4,9.8,26.4,23.1,29.9
					C598,202.5,614,181.5,623.3,172.3z"/>
			</g>
		</g>
	</g>
	<g>
		<path class="st0" d="M647.5,20.1c-32,12.8-32.2,50.3-22.6,72.9c9.5,22.7,30.3,34.4,50.7,44.4c17.2,8.4,35.4,0.8,38.7-11.7
			c4.1-15.4,8-42.7,3-69.4C713.2,34.4,686,4.7,647.5,20.1z"/>
		<path class="st1" d="M645.3,63.6c5.3-29.7,23.8-41.7,34.8-46.3c-9.5-2.4-20.4-2-32.5,2.8c-32,12.8-32.2,50.3-22.6,72.9
			c9.5,22.7,30.3,34.4,50.7,44.4c7.3,3.6,14.7,4.2,21.2,2.9C661.7,132,638.1,103.4,645.3,63.6z"/>
		<path class="st5" d="M714.7,47.8c0.9,6.2-0.3,14.8-12.4,21c-24.8,12.7-44.5-6.5-57,2.3c-9.6,6.8-5,26.7,17.9,34.4
			c24.4,8.2,54.6,2.5,56.5-21.6c0.1-8.9-0.6-18.3-2.3-27.6C716.8,53.6,715.9,50.7,714.7,47.8z"/>
		<path class="st8" d="M662.9,74.2c0,0,21.1,6.8,37.2,0.5c13.7-5.4,15.4-14,15.4-14s2.9,15.2,0.7,25.4c0,0-1.4-4.3-13.6-3.6
			C690.3,83.1,675.2,84.4,662.9,74.2z"/>
		<path class="st2" d="M683.7,32.6c-12.3,8.6,6.7,42,21.5,31.4C719.9,53.4,697.8,22.6,683.7,32.6z"/>
		<path class="st2" d="M710.6,106.4c-5.1,3.2-6.4,21.8-1.6,19.6C713.9,123.7,715.8,103.2,710.6,106.4z"/>
	</g>
	<g>
		<g>
			<path class="st3" d="M622.7,523.9c0,0-2.4,7.8,0,12.9l20.4,23.4l11.2-13.6c0,0,4.4-6.4,3.1-16.3l-17.3-13.3
				C640.1,517.1,627.8,518.4,622.7,523.9z"/>
			<path class="st4" d="M622.7,536.8l15.4,17.7l2-29.7v-7.7c0,0-12.2,1.4-17.3,6.8C622.7,523.9,620.3,531.7,622.7,536.8z"/>
			<path class="st0" d="M637,349.6c-4.4,5.1-14.6,23.4-13.6,55c1,31.6,1.4,72,1,87c-0.3,14.9,0.7,21.4-1.7,32.3
				c0,0,14.6-7.1,23.1,13.6c0,0,14.3-0.3,19.7-11.9c5.4-11.6,23.1-79.8,25.5-97.2c2.4-17.3,2.4-33.3-5.8-49.9
				C677.1,361.8,650.2,347.2,637,349.6z"/>
			<path class="st1" d="M657.4,409c4-29.4,16.5-40.7,18.7-42.5c-11.6-11-29.1-18.7-39-16.9c-4.4,5.1-14.6,23.4-13.6,55
				c1,31.6,1.4,72,1,87c-0.3,14.9,0.7,21.4-1.7,32.3c0,0,10.6-5.2,19,6.1C640.7,502.3,653.5,437.7,657.4,409z"/>
			<path class="st2" d="M681.1,388.1c-11-0.3-9.2,21.8-8.3,44.3c1,24.7-17.3,87.9-12.8,87.9c4.5,0,12.5-28.7,18.3-54.2
				C686.3,430.7,693,388.4,681.1,388.1z"/>
		</g>
		<g>
			<path class="st0" d="M600.3,692.4c0,0-9.5,6.8-9.2,18.4c0.3,11.6,35.3,38.7,44.2,40.8c8.8,2,30.6-2.4,31.3-10.9
				c0.7-8.5-13.6-17.3-22.1-24.5c-8.5-7.1-20-25.1-20-25.1L600.3,692.4z"/>
			<path class="st2" d="M617.3,716.9c0.3,3.5,7.7,3.2,17.3,7.7c10.6,4.9,22.1,13.7,25,11.7c2.6-1.8-8.3-10.7-16-16.2
				c-7.7-5.5-11.2-15.7-13.8-15.2c-2.7,0.5-1.3,2.6-5,6.4C622.5,713.7,617,713.6,617.3,716.9z"/>
			<path class="st1" d="M666.3,738.2c-3.5,4-10.6,9.2-20.2,9.2c-9.3,0-15-4.6-26.3-12.9c-1.1-2-6.2-9.2-7.2-11.3
				c-2.7-5.4-5.4-19-5.4-19l-0.8-9.7l-1.8-2.3l-4.3,0.2c0,0-6.4,4.6-8.5,12.6c-0.5,1.8-0.7,3.7-0.7,5.8
				c0.3,11.6,35.3,38.7,44.2,40.8c8.8,2,30.6-2.4,31.3-10.9C666.6,739.8,666.5,739,666.3,738.2z"/>
			<path class="st3" d="M598.9,693.7c0,0-4.4,17.3,12.9,17.7c17.3,0.3,14.3-16.6,14.3-16.6L598.9,693.7z"/>
			<path class="st4" d="M607,694.1l-8-0.3c0,0-3.6,14.2,8.6,17.1L607,694.1z"/>
		</g>
		<g>
			<path class="st0" d="M631.2,530.3c13.1,4.9,13.9,21.7,13.9,21.7s7.8-6.5,9.2-5.4c1.4,1,0.7,16-12.2,56.1
				c-12.9,40.1-16.3,85.6-16,92.1c0.3,6.5-4.8,12.9-14.3,11.6c-9.5-1.4-13.3-4.4-12.9-16c0.3-11.6,1.4-46.6-0.7-67.3
				c-2-20.7-4.4-45.5,6.5-64.6C615.6,539.5,619.3,525.9,631.2,530.3z"/>
			<path class="st1" d="M631.2,530.3c-11.9-4.4-15.6,9.2-26.5,28.2c-10.9,19-8.5,43.8-6.5,64.6c2,20.7,1,55.7,0.7,67.3
				c-0.3,10.1,2.5,13.7,9.7,15.4c-2.2-16.5,0.8-57.6,7-93.9c6.8-40.1,17.3-49.3,22.4-62.9c1.9-5,2.5-8.6,2.5-11.2
				C638.4,534.7,635.5,531.9,631.2,530.3z"/>
			<path class="st4" d="M627.6,534.8c-3.5,0.5-5.6,5.7-4.7,11.5c0.9,5.8,4.5,10.1,8,9.6c3.5-0.5,5.6-5.7,4.7-11.5
				C634.7,538.6,631.1,534.3,627.6,534.8z"/>
			<path class="st2" d="M646.8,558.4c-6.8,0.7-16.7,26.3-22.1,61s-9.6,78.6-5.1,78.3c4.5-0.3,5.7-41.1,13.5-76.4
				C641.3,583.4,653.2,557.8,646.8,558.4z"/>
		</g>
	</g>
</g>
</svg>
