<?xml version="1.0" encoding="utf-8"?>
<!-- Generator: Adobe Illustrator 22.0.0, SVG Export Plug-In . SVG Version: 6.00 Build 0)  -->
<svg version="1.1" id="Layer_1" xmlns="http://www.w3.org/2000/svg" xmlns:xlink="http://www.w3.org/1999/xlink" x="0px" y="0px"
	 viewBox="0 0 1366 768" style="enable-background:new 0 0 1366 768;" xml:space="preserve">
<style type="text/css">
	.st0{fill:#FFF0EA;}
	.st1{fill:#FFE0D7;}
	.st2{fill:#FFEDE5;}
	.st3{fill:#C2C2C2;}
	.st4{opacity:0.2;fill:#00E7ED;}
	.st5{fill:#D1D1D1;}
	.st6{fill:#E9E9E9;}
	.st7{opacity:5.000000e-02;}
	.st8{opacity:0.1;}
	.st9{fill:#E3E3E3;}
	.st10{fill:#E7E7E7;}
	.st11{opacity:0.1;fill:#FFFFFF;}
	.st12{fill:#EDEDED;}
	.st13{fill:#0080E5;}
	.st14{fill:#404040;}
	.st15{fill:#656565;}
	.st16{fill:#00B4EA;}
	.st17{fill:#888888;}
	.st18{fill:#D2AEA2;}
	.st19{opacity:0.5;fill:none;stroke:#00E7ED;stroke-width:0.4318;stroke-miterlimit:10;}
	.st20{opacity:0.3;fill:url(#SVGID_1_);}
	.st21{fill:#B98573;}
	.st22{opacity:0.2;fill:#FFFFFF;}
</style>
<g>
	<circle class="st0" cx="719.6" cy="376.7" r="268.7"/>
	<g>
		<rect x="422" y="246.4" class="st1" width="156.8" height="110.1"/>
		<path class="st2" d="M574.8,256.1c0,3.2-2.6,5.9-5.9,5.9c-3.2,0-5.9-2.6-5.9-5.9c0-3.2,2.6-5.9,5.9-5.9
			C572.2,250.2,574.8,252.8,574.8,256.1z"/>
		<path class="st2" d="M559.8,256.1c0,3.2-2.6,5.9-5.9,5.9c-3.2,0-5.9-2.6-5.9-5.9c0-3.2,2.6-5.9,5.9-5.9
			C557.1,250.2,559.8,252.8,559.8,256.1z"/>
		<rect x="550.3" y="255.1" class="st1" width="7.2" height="2"/>
		
			<rect x="565.3" y="255.1" transform="matrix(0.7071 0.7071 -0.7071 0.7071 347.7092 -327.2943)" class="st1" width="7.2" height="2"/>
		
			<rect x="565.3" y="255.1" transform="matrix(0.7071 -0.7071 0.7071 0.7071 -14.4317 477.3096)" class="st1" width="7.2" height="2"/>
		<rect x="428.3" y="253.8" class="st2" width="70.2" height="6.5"/>
		<rect x="428.3" y="330.3" class="st2" width="70.2" height="6.5"/>
		<rect x="430.3" y="272.7" class="st2" width="41.6" height="44.9"/>
		<rect x="479.1" y="272.7" class="st2" width="43.6" height="3.4"/>
		<rect x="479.1" y="282.7" class="st2" width="43.6" height="3.4"/>
		<rect x="479.1" y="292.6" class="st2" width="43.6" height="3.4"/>
		<rect x="479.1" y="302.6" class="st2" width="35.8" height="3.4"/>
	</g>
	<g>
		<rect x="877.2" y="187.6" class="st1" width="138.3" height="97.1"/>
		<path class="st2" d="M1012,196.2c0,2.9-2.3,5.2-5.2,5.2c-2.9,0-5.2-2.3-5.2-5.2s2.3-5.2,5.2-5.2C1009.7,191,1012,193.3,1012,196.2
			z"/>
		<path class="st2" d="M998.7,196.2c0,2.9-2.3,5.2-5.2,5.2s-5.2-2.3-5.2-5.2s2.3-5.2,5.2-5.2S998.7,193.3,998.7,196.2z"/>
		<rect x="990.4" y="195.3" class="st1" width="6.4" height="1.7"/>
		
			<rect x="1003.6" y="195.3" transform="matrix(0.7071 0.7071 -0.7071 0.7071 433.6142 -654.458)" class="st1" width="6.4" height="1.7"/>
		
			<rect x="1003.6" y="195.3" transform="matrix(0.7071 -0.7071 0.7071 0.7071 156.149 769.3666)" class="st1" width="6.4" height="1.7"/>
		<rect x="882.7" y="194.2" class="st2" width="61.9" height="5.7"/>
		<rect x="882.7" y="261.7" class="st2" width="61.9" height="5.7"/>
		<rect x="884.4" y="210.9" class="st2" width="36.7" height="39.6"/>
		<rect x="927.6" y="210.9" class="st2" width="38.5" height="3"/>
		<rect x="927.6" y="219.7" class="st2" width="38.5" height="3"/>
		<rect x="927.6" y="228.5" class="st2" width="38.5" height="3"/>
		<rect x="927.6" y="237.2" class="st2" width="31.6" height="3"/>
	</g>
	<g>
		<rect x="656.3" y="349.9" class="st1" width="218.9" height="153.7"/>
		<circle class="st2" cx="861.4" cy="363.4" r="8.2"/>
		<circle class="st2" cx="840.4" cy="363.4" r="8.2"/>
		<rect x="835.4" y="362.1" class="st1" width="10.1" height="2.7"/>
		
			<rect x="856.4" y="362.1" transform="matrix(0.7071 0.7071 -0.7071 0.7071 509.2815 -502.6605)" class="st1" width="10.1" height="2.7"/>
		
			<rect x="856.4" y="362.1" transform="matrix(0.7071 -0.7071 0.7071 0.7071 -4.6823 715.5497)" class="st1" width="10.1" height="2.7"/>
		<rect x="665" y="360.3" class="st2" width="98" height="9.1"/>
		<rect x="665" y="467" class="st2" width="98" height="9.1"/>
		<rect x="667.8" y="386.7" class="st2" width="58.1" height="62.7"/>
		<rect x="736" y="386.7" class="st2" width="60.9" height="4.7"/>
		<rect x="736" y="400.6" class="st2" width="60.9" height="4.7"/>
		<rect x="736" y="414.5" class="st2" width="60.9" height="4.7"/>
		<rect x="736" y="428.4" class="st2" width="50" height="4.7"/>
	</g>
	<path class="st3" d="M572.5,475.6l-20.1-22.5c-2-2.3-1.8-5.8,0.4-7.8l0,0c2.3-2,5.8-1.8,7.8,0.4l20.1,22.5c2,2.3,1.8,5.8-0.4,7.8
		l0,0C578,478.1,574.5,477.9,572.5,475.6z"/>
	<path class="st4" d="M575.1,472.9L555,450.4c-1.5-1.7-1.8-4-0.9-5.9c-0.4,0.2-0.9,0.5-1.3,0.8c-2.3,2-2.5,5.5-0.4,7.8l20.1,22.5
		c2,2.3,5.5,2.5,7.8,0.4c0.6-0.5,1-1.2,1.4-1.9C579.4,475.2,576.8,474.8,575.1,472.9z"/>
	<path class="st3" d="M544.2,442.4l12.8,1.3c3,0.3,5.2,3,4.9,6.1l-0.4,3.5c-0.1,1.1-1.1,1.9-2.2,1.8l-16.3-1.7c-3-0.3-5.2-3-4.9-6.1
		l0,0C538.4,444.3,541.1,442.1,544.2,442.4z"/>
	<path class="st3" d="M548.5,448.8l-1.6,14.7c-0.3,3-3.1,5.2-6.1,4.9l0,0c-3-0.3-5.2-3.1-4.9-6.1l1.6-14.7c0.3-3,3.1-5.2,6.1-4.9
		l0,0C546.7,443,548.8,445.7,548.5,448.8z"/>
	<path class="st5" d="M572.5,458.9l-20.1-22.5c-2-2.3-1.8-5.8,0.4-7.8l0,0c2.3-2,5.8-1.8,7.8,0.4l20.1,22.5c2,2.3,1.8,5.8-0.4,7.8
		l0,0C578,461.3,574.5,461.1,572.5,458.9z"/>
	<path class="st4" d="M574.4,454.7l-20.1-22.5c-0.9-1.1-1.4-2.4-1.4-3.7c0,0-0.1,0.1-0.1,0.1c-2.3,2-2.5,5.5-0.4,7.8l20.1,22.5
		c2,2.3,5.5,2.5,7.8,0.4c1.2-1.1,1.8-2.6,1.8-4.1C579.8,457.1,576.4,456.9,574.4,454.7z"/>
	<path class="st5" d="M543.7,425.9l12.8,1.3c3,0.3,5.2,3,4.9,6.1l0,0c-0.3,3-3,5.2-6.1,4.9l-12.8-1.3c-3-0.3-5.2-3-4.9-6.1l0,0
		C537.9,427.8,540.6,425.6,543.7,425.9z"/>
	<path class="st4" d="M539.6,462.2l1.6-14.7c0.2-2.1,1.7-3.8,3.6-4.5c-0.4-0.1-0.8-0.2-1.2-0.3c-3-0.3-5.8,1.9-6.1,4.9l-1.6,14.7
		c-0.3,3,1.8,5.8,4.9,6.1c0.9,0.1,1.7,0,2.5-0.3C540.9,467.2,539.3,464.8,539.6,462.2z"/>
	<path class="st5" d="M548.5,432l-1.6,14.7c-0.3,3-3.1,5.2-6.1,4.9l0,0c-3-0.3-5.2-3.1-4.9-6.1l1.6-14.7c0.3-3,3.1-5.2,6.1-4.9l0,0
		C546.7,426.3,548.8,429,548.5,432z"/>
	<path class="st4" d="M539.6,445.4l1.6-14.7c0.2-2.1,1.7-3.8,3.6-4.5c-0.4-0.1-0.8-0.2-1.2-0.3c-3-0.3-5.8,1.9-6.1,4.9l-1.6,14.7
		c-0.3,3,1.8,5.8,4.9,6.1c0.9,0.1,1.7,0,2.5-0.3C540.9,450.4,539.3,448,539.6,445.4z"/>
	<path class="st3" d="M583.5,441l-15.9-25.7c-1.6-2.6-0.8-6,1.8-7.6l0,0c2.6-1.6,6-0.8,7.6,1.8l15.9,25.7c1.6,2.6,0.8,6-1.8,7.6l0,0
		C588.5,444.3,585.1,443.5,583.5,441z"/>
	<path class="st3" d="M579.7,450.5l-20.1-22.5c-2-2.3-1.8-5.8,0.4-7.8h0c2.3-2,5.8-1.8,7.8,0.4l20.1,22.5c2,2.3,1.8,5.8-0.4,7.8l0,0
		C585.2,452.9,581.7,452.7,579.7,450.5z"/>
	<path class="st4" d="M584.7,448.9l-20.1-22.5c-2-2.2-1.8-5.5,0.2-7.6c-1.6-0.3-3.4,0.1-4.7,1.3c-2.3,2-2.5,5.5-0.4,7.8l20.1,22.5
		c2,2.3,5.5,2.5,7.8,0.4c0.1-0.1,0.1-0.2,0.2-0.2C586.6,450.4,585.5,449.9,584.7,448.9z"/>
	<path class="st3" d="M558.5,401l15.2,5.5c2.9,1,4.3,4.2,3.3,7.1l0,0c-1,2.9-4.2,4.3-7.1,3.3l-15.2-5.5c-2.9-1-4.3-4.2-3.3-7.1l0,0
		C552.4,401.4,555.6,399.9,558.5,401z"/>
	<path class="st3" d="M551.4,417.2l12.8,1.3c3,0.3,5.2,3,4.9,6.1l-0.6,5.5l-18.2-1.9c-3-0.3-5.2-3-4.9-6.1l0,0
		C545.7,419.1,548.4,416.9,551.4,417.2z"/>
	<path class="st3" d="M555.8,423.6l-1.6,14.7c-0.3,3-3.1,5.2-6.1,4.9l0,0c-3-0.3-5.2-3.1-4.9-6.1l1.6-14.7c0.3-3,3.1-5.2,6.1-4.9
		l0,0C553.9,417.8,556.1,420.6,555.8,423.6z"/>
	<path class="st4" d="M552.9,441.2c-3-0.3-5.2-3.1-4.9-6.1l1.6-14.7c0.1-1.1,0.6-2.1,1.2-2.9c-3-0.3-5.8,1.9-6.1,4.9l-1.6,14.7
		c-0.3,3,1.8,5.8,4.9,6.1C550,443.3,551.8,442.5,552.9,441.2C552.9,441.2,552.9,441.2,552.9,441.2z"/>
	<path class="st3" d="M544,398.7l12.9,1.9c3,0.5,5.1,3.3,4.6,6.3l0,0c-0.5,3-3.3,5.1-6.3,4.6l-12.9-1.9c-3-0.5-5.1-3.3-4.6-6.3l0,0
		C538.2,400.3,541,398.2,544,398.7z"/>
	<path class="st4" d="M588,437.3l-15.3-24.7l-13-4.7l-12.8-1.9c-3-0.5-5.1-3.3-4.6-6.3c0.1-0.4,0.1-0.7,0.3-1
		c-2.4,0.3-4.4,2.1-4.8,4.6c-0.5,3,1.6,5.8,4.6,6.3l12.8,1.9l13,4.7l15.3,24.7c1.6,2.6,5,3.4,7.6,1.8h0c1.1-0.7,1.9-1.7,2.3-2.8
		C591.3,440.1,589.2,439.2,588,437.3z"/>
	
		<rect x="709" y="495.3" transform="matrix(0.8787 0.4773 -0.4773 0.8787 350.6729 -285.1974)" class="st6" width="55.3" height="104.5"/>
	<polygon class="st7" points="737.3,488.5 736.7,489.5 765.1,505 715.8,595.7 736,606.7 785.9,514.9 	"/>
	<polygon class="st4" points="698.5,582.8 746.9,493.7 737.3,488.5 687.4,580.3 736,606.7 737.5,604 	"/>
	<path class="st8" d="M723.5,599.9c-0.4-0.5-0.8-1-1.2-1.5l-9.2-10.2c-4-4.4-4.9-10.9-2.2-16.3c3-5.9,1.7-13.2-3.1-17.7l-4.1-3.8
		l-16.2,29.9L723.5,599.9z"/>
	<path class="st9" d="M613.5,473.6l87.7,82.2c4.9,4.6,6.1,11.8,3.1,17.7l0,0c-2.7,5.3-1.8,11.8,2.2,16.3l9.2,10.2
		c4,4.5,6.3,10.2,6.5,16.3l-34.8,19.4l-107.7-146L613.5,473.6z"/>
	<path class="st4" d="M701,625L595.5,482.1l-15.9,7.5l107.7,146l34.8-19.4c0-1-0.1-2-0.3-3L701,625z"/>
	<path class="st5" d="M691.6,578.4h-35.4c-3,0-5.5-2.5-5.5-5.5l0,0c0-3,2.5-5.5,5.5-5.5h35.4c3,0,5.5,2.5,5.5,5.5l0,0
		C697.2,575.9,694.7,578.4,691.6,578.4z"/>
	<path class="st5" d="M660.1,576.8l-19.6,19.6c-2.2,2.2-5.7,2.2-7.8,0l0,0c-2.2-2.2-2.2-5.7,0-7.8l19.6-19.6c2.2-2.2,5.7-2.2,7.8,0
		l0,0C662.3,571.1,662.3,574.6,660.1,576.8z"/>
	<path class="st4" d="M639.2,596.4c-2.2-2.2-2.2-5.7,0-7.8l19.6-19.6c0.3-0.3,0.5-0.5,0.8-0.7c0.1-0.1,0.3-0.2,0.4-0.2
		c0.2-0.1,0.3-0.2,0.5-0.3c0.2-0.1,0.4-0.1,0.6-0.2c0.2,0,0.3-0.1,0.5-0.1c0.4-0.1,0.7-0.1,1.1-0.1h-6.5c-0.4,0-0.7,0-1.1,0.1
		c-0.2,0-0.3,0.1-0.5,0.1c-0.2,0.1-0.4,0.1-0.6,0.2c-0.2,0.1-0.3,0.2-0.5,0.3c-0.1,0.1-0.3,0.1-0.4,0.2c-0.3,0.2-0.6,0.4-0.8,0.7
		l-19.6,19.6c-2.2,2.2-2.2,5.7,0,7.8c1.9,1.9,5,2.1,7.1,0.5C639.7,596.7,639.4,596.6,639.2,596.4z"/>
	<path class="st3" d="M690.9,581.2h-23.6c-3,0-5.5-2.5-5.5-5.5l0,0c0-3,2.5-5.5,5.5-5.5h23.6c3,0,5.5,2.5,5.5,5.5l0,0
		C696.4,578.7,693.9,581.2,690.9,581.2z"/>
	<path class="st5" d="M693,592h-23.6c-3,0-5.5-2.5-5.5-5.5l0,0c0-3,2.5-5.5,5.5-5.5H693c3,0,5.5,2.5,5.5,5.5l0,0
		C698.5,589.5,696,592,693,592z"/>
	<path class="st3" d="M671.2,579.5l-19.6,19.6c-2.2,2.2-5.7,2.2-7.8,0l0,0c-2.2-2.2-2.2-5.7,0-7.8l19.6-19.6c2.2-2.2,5.7-2.2,7.8,0
		l0,0C673.3,573.9,673.3,577.4,671.2,579.5z"/>
	<path class="st4" d="M649.5,599.1c-2.2-2.2-2.2-5.7,0-7.8l19.6-19.6c1.1-1.1,2.5-1.6,3.9-1.6c0,0,0,0,0,0h-5.7c0,0,0,0,0,0
		c-1.4,0-2.8,0.5-3.9,1.6l-19.6,19.6c-2.2,2.2-2.2,5.7,0,7.8c1.8,1.8,4.6,2.1,6.8,0.8C650.2,599.7,649.8,599.4,649.5,599.1z"/>
	<polygon class="st10" points="952.6,609.1 781.8,609.1 781.8,503.9 975.5,503.9 952.6,572.9 	"/>
	<path class="st8" d="M758.4,500L758.4,500l-21.2-11.5l-6.3,11.6c4.2,12.6,14.5,22.5,27.5,25.9v11.1c0,6.5,2.1,12.7,5.8,17.7
		l21.7-39.9L758.4,500z"/>
	<circle class="st9" cx="775.8" cy="481.1" r="39.7"/>
	
		<ellipse transform="matrix(0.9231 -0.3847 0.3847 0.9231 -120.6284 330.4501)" class="st11" cx="765.7" cy="466.8" rx="14.9" ry="14.9"/>
	<path class="st4" d="M781.5,514.3c-21.9,0-39.7-17.8-39.7-39.7c0-8.4,2.6-16.2,7.1-22.6c-7.9,7.3-12.8,17.6-12.8,29.2
		c0,21.9,17.8,39.7,39.7,39.7c13.5,0,25.5-6.8,32.6-17.1C801.3,510.3,791.9,514.3,781.5,514.3z"/>
	<path class="st7" d="M775.8,502.6c-18.8,0-34.5-13.1-38.7-30.6c-0.7,2.9-1.1,6-1.1,9.1c0,21.9,17.8,39.7,39.7,39.7
		c21.9,0,39.7-17.8,39.7-39.7c0-3.1-0.4-6.2-1.1-9.1C810.3,489.5,794.6,502.6,775.8,502.6z"/>
	<path class="st8" d="M970.9,503.9h-189v62.2c0.7,0.3,1.4,0.5,2.1,0.8l0,0c41.1,13.1,84.8,15.2,127,6.2l7.7-1.7
		c30.5-6.5,52.3-33.5,52.3-64.6V503.9z"/>
	<path class="st12" d="M918.6,566.6l-7.7,1.7c-42.1,9-85.9,6.9-127-6.2h0c-12.5-4-20.9-15.6-20.9-28.7v-56.3
		c0-27.8,22.6-50.4,50.4-50.4h111.4c25.4,0,46.1,20.6,46.1,46.1V502C970.9,533.1,949.1,560.1,918.6,566.6z"/>
	<path class="st7" d="M924.8,426.8h-30.5l-24.8,14.6h89C950.1,432.4,938.1,426.8,924.8,426.8z"/>
	<g class="st7">
		<path d="M826.3,571.9c-10.6-80.8,27.6-134.2,28-134.7l2.5,1.8c-0.4,0.5-37.9,53-27.5,132.5L826.3,571.9z"/>
	</g>
	<rect x="871.7" y="510.8" class="st13" width="35.6" height="6.6"/>
	<rect x="871.7" y="520.8" class="st13" width="35.6" height="12"/>
	<path class="st7" d="M943.9,430.9c1.7,4.8,2.6,9.9,2.6,15.2v29.2c0,31.2-21.8,58.1-52.3,64.6l-7.7,1.7c-40.9,8.8-83.3,7-123.4-5.1
		c1.2,11.8,9.3,21.9,20.8,25.6h0c41.1,13.1,84.8,15.2,127,6.2l7.7-1.7c30.5-6.5,52.3-33.5,52.3-64.6v-29.2
		C970.9,454.2,959.8,438.2,943.9,430.9z"/>
	<path class="st4" d="M792.1,562.1L792.1,562.1c-12.5-4-20.9-15.6-20.9-28.7v-56.3c0-27.8,22.6-50.4,50.4-50.4h-8.1
		c-27.8,0-50.4,22.6-50.4,50.4v56.3c0,13.1,8.5,24.7,20.9,28.7h0c25.7,8.2,52.4,12.1,79.2,11.6C839.1,573.3,815.2,569.4,792.1,562.1
		z"/>
	<path class="st5" d="M890.7,441.4h-54.5c-4.5,0-8.1-3.6-8.1-8.1v-46.2h70.7v46.2C898.8,437.8,895.2,441.4,890.7,441.4z"/>
	<path class="st7" d="M883.8,387.1v40c0,7.9-6.4,14.3-14.3,14.3h15c7.9,0,14.3-6.4,14.3-14.3v-40H883.8z"/>
	<path class="st4" d="M832.7,427.1v-40h-4.6v40c0,7.9,6.4,14.3,14.3,14.3h4.6C839.1,441.4,832.7,435,832.7,427.1z"/>
	<path class="st14" d="M807.1,323.3c0,0-6.7-47.9,2.2-67.7s37.4-26.2,59.7-24.5s-10.8-10.5-10.8-10.5s-49.7-3.8-66.9,35.1
		c-13.3,30-6.1,73.3-6.1,73.3L807.1,323.3z"/>
	<g>
		<path class="st14" d="M822,332.8c0-12.9-7.2-23.7-17-26.9v-1h-6.1c-12.8,0-23.1,12.5-23.1,27.9s10.3,27.9,23.1,27.9h6.1v-1
			C814.8,356.4,822,345.6,822,332.8z"/>
		<ellipse class="st15" cx="805" cy="332.8" rx="23.1" ry="27.9"/>
	</g>
	<path class="st8" d="M828.1,411.4c0.4,0,0.8,0,1.2,0h22.1c17.9,0,34.4-6.1,47.5-16.4v-7.9h-70.7V411.4z"/>
	<path class="st12" d="M884.6,405.9h-73.2c-12.9,0-23.3-10.4-23.3-23.3V269.5c0-21.9,17.8-39.7,39.7-39.7h60.6
		c21.9,0,39.7,17.8,39.7,39.7v92.8C928.2,386.3,908.7,405.9,884.6,405.9z"/>
	<path class="st14" d="M855.5,356.4h-39.5v11.8c0,6.2,5,11.2,11.2,11.2h17.1c6.2,0,11.2-5,11.2-11.2V356.4z"/>
	<path class="st7" d="M884.2,278.3c-4.1,23.6,5.1,50.2-2.8,59.8c-7.8,9.6,1.7,26.2-5,44.7c-3.7,10.2-11.8,17.9-18.3,22.7
		c39.3-3.4,70.1-36.4,70.1-76.6v-29.2c0-17.7-6.6-33.9-17.5-46.3C900.9,256.4,886.8,263.2,884.2,278.3z"/>
	<path class="st13" d="M855.5,392.6h-39.5v11.1c4.1,1.4,8.6,2.2,13.2,2.2h22.1c1.4,0,2.8,0,4.2-0.1V392.6z"/>
	<path class="st7" d="M880.4,233.4c21.2,12,35.5,34.8,35.5,60.9v29.2c0,42.5-34.4,76.9-76.9,76.9h-22.1c-3.6,0-7.1-0.5-10.4-1.4
		c6.5,4.4,14.4,6.9,22.8,6.9h22.1c42.5,0,76.9-34.4,76.9-76.9v-29.2C928.2,268.9,908.2,242.6,880.4,233.4z"/>
	<path class="st4" d="M793.4,364.7v-65c0-37.8,30-68.6,67.4-70c-0.9,0-1.7-0.1-2.6-0.1l0,0c-38.7,0-70,31.4-70,70v65
		c0,22.7,18.4,41.1,41.1,41.1h5.2C811.8,405.9,793.4,387.4,793.4,364.7z"/>
	<path class="st13" d="M858.2,229.7L858.2,229.7c-6.9,0-13.6,1-19.9,2.9c-14,12.2-22.2,30-22.2,48.9h38.6c0-19.1,8.4-36.9,22.5-49.1
		C871.1,230.7,864.8,229.7,858.2,229.7z"/>
	<path class="st8" d="M928.2,308.9c-2.1-0.7-4.3-1.2-6.6-1.2h-6.1c-12.8,0-23.1,12.5-23.1,27.9c0,15.4,10.3,27.9,23.1,27.9h4.4
		c5.3-10.4,8.3-22.2,8.3-34.6V308.9z"/>
	<path class="st8" d="M915.5,352.6c-0.9-0.9-2.3-0.9-3.2,0l-23.1,23.1c-1.7,1.7-4,2.7-6.4,2.7h-11.5c-0.9-2.1-2.9-3.6-5.3-3.6
		c-0.4,0-0.7,0-1,0.1c-0.3-0.1-0.7-0.1-1-0.1h-11.6c-3.2,0-5.7,2.6-5.7,5.7c0,3.2,2.6,5.7,5.7,5.7h11.6c0.4,0,0.7,0,1-0.1
		c0.3,0.1,0.7,0.1,1,0.1c2.3,0,4.2-1.4,5.2-3.3h11.6c3.6,0,7.1-1.5,9.6-4l23.1-23.1C916.4,354.9,916.4,353.5,915.5,352.6z"/>
	<path class="st14" d="M938.7,332.8c0-12.9-7.2-23.7-17-26.9v-1h-6.1c-12.8,0-23.1,12.5-23.1,27.9s10.3,27.9,23.1,27.9h6.1v-1
		C931.5,356.4,938.7,345.6,938.7,332.8z"/>
	<ellipse class="st15" cx="921.7" cy="332.8" rx="23.1" ry="27.9"/>
	<path class="st14" d="M928.2,329c-12.3-3.2-20.6-14.6-19.9-27.3c0.9-15.3,0.8-35-4.2-46c-8.9-19.8-37.4-26.2-59.7-24.5
		c-22.3,1.7,13.7-10.5,13.7-10.5s51,0,64,35.1C933.5,286.4,928.2,329,928.2,329L928.2,329z"/>
	<path class="st16" d="M937.1,332.8c0-7.9-4.1-14.6-9.9-17.2v-1.2h-5.3c-8.4,0-15.2,8.2-15.2,18.4s6.8,18.4,15.2,18.4h5.3V350
		C933,347.4,937.1,340.7,937.1,332.8z"/>
	<ellipse class="st13" cx="927.2" cy="332.8" rx="15.2" ry="18.4"/>
	<path class="st8" d="M937.5,319.3c2,3.1,3.3,7.1,3.3,11.4c0,10.2-6.8,18.4-15.2,18.4c-4,0-7.6-1.9-10.3-4.9c2.8,4.3,7.1,7,11.9,7
		c8.4,0,15.2-8.2,15.2-18.4C942.4,327.4,940.5,322.6,937.5,319.3z"/>
	<path class="st15" d="M863.9,378.1h-11.6c-3.2,0-5.7-2.6-5.7-5.7l0,0c0-3.2,2.6-5.7,5.7-5.7h11.6c3.2,0,5.7,2.6,5.7,5.7l0,0
		C869.6,375.5,867.1,378.1,863.9,378.1z"/>
	<path class="st14" d="M866,378.1L866,378.1c-3.2,0-5.7-2.6-5.7-5.7l0,0c0-3.2,2.6-5.7,5.7-5.7l0,0c3.2,0,5.7,2.6,5.7,5.7l0,0
		C871.7,375.5,869.2,378.1,866,378.1z"/>
	<g>
		<path class="st15" d="M882.8,374.8h-14.7c-1.3,0-2.3-1-2.3-2.3c0-1.3,1-2.3,2.3-2.3h14.7c2.4,0,4.7-1,6.4-2.7l23.1-23.1
			c0.9-0.9,2.3-0.9,3.2,0c0.9,0.9,0.9,2.3,0,3.2l-23.1,23.1C889.9,373.3,886.4,374.8,882.8,374.8z"/>
	</g>
	<polygon class="st8" points="952.6,576.4 952.6,572.9 971,517.5 946.1,503.9 929,503.9 884.2,586.5 925.9,609.1 934.8,609.1 	"/>
	
		<rect x="899.2" y="497.6" transform="matrix(0.8787 0.4773 -0.4773 0.8787 374.241 -375.8416)" class="st6" width="55.3" height="102.1"/>
	
		<rect x="933.9" y="513" transform="matrix(0.8787 0.4773 -0.4773 0.8787 365.9775 -387.2671)" class="st17" width="22.6" height="27.2"/>
	<polygon class="st7" points="926.9,490.6 925.2,493.8 956,510.5 909,597 926.8,606.7 975.5,517 	"/>
	<polygon class="st4" points="888.1,584.8 936.4,495.8 926.9,490.6 878.2,580.3 926.8,606.7 927.1,606.1 	"/>
	<path class="st8" d="M920.3,502.7c6.1,14.1,20.1,24,36.5,24c5.3,0,10.4-1.1,15.1-3l3.6-6.7l-48.6-26.4L920.3,502.7z"/>
	<circle class="st9" cx="959.1" cy="481.1" r="39.7"/>
	<path class="st4" d="M928.9,481.1c0-20.3,15.3-37.1,35-39.4c-1.6-0.2-3.1-0.3-4.8-0.3c-21.9,0-39.7,17.8-39.7,39.7
		c0,21.9,17.8,39.7,39.7,39.7c1.6,0,3.2-0.1,4.8-0.3C944.1,518.2,928.9,501.4,928.9,481.1z"/>
	<path class="st8" d="M909.7,582c-6,0-11.4-3.7-13.5-9.3c-1.6-4.2-5-7.4-9.1-8.8l-8.9,16.4l45.2,24.5h4.5l9.9-18.3
		c-4.2-2.9-9.2-4.5-14.3-4.5H909.7z"/>
	<path class="st9" d="M754.6,577.2l119.8-9.7c6.6-0.5,12.9,3.4,15.2,9.6l0,0c2.1,5.6,7.5,9.3,13.5,9.3H917c6,0,11.8,2.2,16.4,6.1
		l19.2,16.7H754.6V577.2z"/>
	<polygon class="st7" points="754.6,593.8 754.6,609.1 952.6,609.1 934.9,593.8 	"/>
	<polygon class="st17" points="754.6,577.2 691.6,567.4 691.7,592.1 723.2,609.1 754.6,609.1 	"/>
	<path class="st5" d="M674.8,588.1L670,604c-0.9,2.9-4,4.6-6.9,3.7l0,0c-2.9-0.9-4.6-4-3.7-6.9l4.8-15.9c0.9-2.9,4-4.6,6.9-3.7l0,0
		C674,582.1,675.7,585.2,674.8,588.1z"/>
	<path class="st4" d="M664.1,600.8l4.5-15c0.3-2.5,2.3-4.5,4.8-4.8c0.1,0,0.2,0,0.3,0c0.1,0,0.2,0,0.3,0h-4.7c-0.1,0-0.2,0-0.3,0
		c-0.1,0-0.2,0-0.3,0c-2.5,0.3-4.5,2.3-4.8,4.8l-4.5,15c-0.9,2.9,0.8,6,3.7,6.9c1.4,0.4,2.7,0.3,3.9-0.3
		C664.6,606.2,663.3,603.5,664.1,600.8z"/>
	<path class="st18" d="M998.7,641.2H409.6c-9,0-16.3-7.3-16.3-16.3l0,0c0-9,7.3-16.3,16.3-16.3h589.1c9,0,16.3,7.3,16.3,16.3l0,0
		C1015,633.9,1007.7,641.2,998.7,641.2z"/>
	<polygon class="st17" points="613.5,473.6 606.4,445 592.2,434 558.8,460.3 579.7,489.7 	"/>
	<path class="st5" d="M595.9,449.6l-2.8-18.9c-0.4-3,1.6-5.8,4.7-6.3l0,0c3-0.4,5.8,1.6,6.3,4.7l2.8,18.9c0.4,3-1.6,5.8-4.7,6.3l0,0
		C599.1,454.7,596.3,452.6,595.9,449.6z"/>
	<path class="st5" d="M580.3,420.6l18.8,3.4c3,0.5,5,3.4,4.5,6.4v0c-0.5,3-3.4,5-6.4,4.5l-18.8-3.4c-3-0.5-5-3.4-4.5-6.4v0
		C574.4,422.1,577.3,420.1,580.3,420.6z"/>
	<path class="st4" d="M601.1,446.2l-2.3-15.4l-15.3-2.8c-3-0.5-5-3.4-4.5-6.4c0.1-0.4,0.2-0.7,0.3-1.1c-2.7,0-5,1.8-5.5,4.5
		c-0.5,3,1.5,5.9,4.5,6.4l15.3,2.8l2.3,15.4c0.4,3,3.3,5.1,6.3,4.7c2-0.3,3.6-1.6,4.3-3.4C603.8,450.8,601.5,448.9,601.1,446.2z"/>
	<ellipse class="st4" cx="539.6" cy="403.5" rx="15" ry="22.4"/>
	<ellipse class="st4" cx="539.6" cy="403.5" rx="8.4" ry="12.6"/>
	<rect x="467.3" y="390.9" class="st4" width="50.6" height="9.8"/>
	<rect x="478.3" y="460.7" class="st4" width="50.6" height="9.8"/>
	<rect x="578.3" y="511" class="st4" width="50.6" height="9.8"/>
	<rect x="478.3" y="408.9" class="st4" width="39.6" height="5.2"/>
	<rect x="478.3" y="476.8" class="st4" width="39.6" height="5.2"/>
	<rect x="577.3" y="528" class="st4" width="39.6" height="5.2"/>
	<rect x="478.3" y="487.7" class="st4" width="39.6" height="5.2"/>
	<rect x="478.3" y="498.6" class="st4" width="22.1" height="5.2"/>
	<rect x="636.7" y="482.5" class="st4" width="14.3" height="2.5"/>
	<rect x="636.7" y="486.2" class="st4" width="10.6" height="1.5"/>
	<polygon class="st4" points="615,438.6 607.3,469.1 632.9,483.7 661.1,458.5 628.3,455.7 	"/>
	<polygon class="st19" points="615,438.6 607.3,469.1 632.9,483.7 661.1,458.5 628.3,455.7 	"/>
	<path class="st4" d="M616.6,438.6c0,1.4-0.7,2.5-1.7,2.5c-0.9,0-1.7-1.1-1.7-2.5c0-1.4,0.7-2.5,1.7-2.5
		C615.9,436.1,616.6,437.2,616.6,438.6z"/>
	<path class="st4" d="M629.9,455.6c0,1.4-0.7,2.5-1.7,2.5c-0.9,0-1.7-1.1-1.7-2.5c0-1.4,0.7-2.5,1.7-2.5
		C629.2,453.1,629.9,454.2,629.9,455.6z"/>
	<ellipse class="st4" cx="628.3" cy="465.4" rx="1.7" ry="2.5"/>
	<ellipse class="st4" cx="661.1" cy="458.7" rx="1.7" ry="2.5"/>
	<ellipse class="st4" cx="633" cy="483.7" rx="1.7" ry="2.5"/>
	<path class="st4" d="M609,469.1c0,1.4-0.7,2.5-1.7,2.5c-0.9,0-1.7-1.1-1.7-2.5c0-1.4,0.7-2.5,1.7-2.5
		C608.2,466.7,609,467.8,609,469.1z"/>
	<rect x="664.5" y="456.2" class="st4" width="14.3" height="2.5"/>
	<rect x="664.5" y="459.9" class="st4" width="10.6" height="1.5"/>
	<rect x="631.3" y="447.9" class="st4" width="14.3" height="2.5"/>
	<rect x="631.3" y="451.7" class="st4" width="10.6" height="1.5"/>
	
		<rect x="596.4" y="436" transform="matrix(-1 -1.224647e-16 1.224647e-16 -1 1207.1313 874.5242)" class="st4" width="14.3" height="2.5"/>
	
		<rect x="600.1" y="439.7" transform="matrix(-1 -1.224647e-16 1.224647e-16 -1 1210.811 880.9409)" class="st4" width="10.6" height="1.5"/>
	
		<rect x="589.3" y="467.5" transform="matrix(-1 -1.224647e-16 1.224647e-16 -1 1192.8191 937.5536)" class="st4" width="14.3" height="2.5"/>
	
		<rect x="592.9" y="471.3" transform="matrix(-1 -1.224647e-16 1.224647e-16 -1 1196.4989 943.9703)" class="st4" width="10.6" height="1.5"/>
	<polyline class="st19" points="628.3,455.6 628.3,465.4 614.9,438.6 	"/>
	<polyline class="st19" points="607.3,469.1 628.3,465.4 633,483.7 	"/>
	<line class="st19" x1="628.3" y1="465.4" x2="661.1" y2="458.7"/>
	<linearGradient id="SVGID_1_" gradientUnits="userSpaceOnUse" x1="548.0309" y1="317.7952" x2="548.0309" y2="607.9142">
		<stop  offset="0" style="stop-color:#00E7ED;stop-opacity:0"/>
		<stop  offset="1" style="stop-color:#00E7ED"/>
	</linearGradient>
	<polygon class="st20" points="548,317.8 350.5,317.8 443.4,607.9 548,607.9 652.7,607.9 745.6,317.8 	"/>
	<polygon class="st4" points="595.5,482.1 571.4,450.4 558.8,460.3 579.7,489.7 	"/>
	<path class="st4" d="M875,573.8c5.6-0.7,10.7,0.9,14.5,2.7c-2.5-5.9-8.6-9.6-15-9.1l-119.8,9.7l-63-9.8l63,15.2
		C754.6,582.6,863.2,575.3,875,573.8z"/>
	<rect x="428.8" y="460.7" class="st4" width="44.2" height="55.2"/>
	<rect x="503.6" y="527" class="st4" width="44.2" height="55.2"/>
	<path class="st21" d="M979.9,660H428.5c-10.4,0-18.8-8.4-18.8-18.8l0,0h589.2l0,0C998.8,651.6,990.3,660,979.9,660z"/>
	<path class="st7" d="M959.1,502.6c-18.8,0-34.5-13.1-38.7-30.6c-0.7,2.9-1.1,6-1.1,9.1c0,21.9,17.8,39.7,39.7,39.7
		c21.9,0,39.7-17.8,39.7-39.7c0-3.1-0.4-6.2-1.1-9.1C993.6,489.5,977.9,502.6,959.1,502.6z"/>
	<polygon class="st7" points="754.6,593.8 691.7,585.4 673.6,592 691.7,592.1 723.2,609.1 754.6,609.1 	"/>
	
		<ellipse transform="matrix(0.9231 -0.3847 0.3847 0.9231 -105.6773 405.1965)" class="st11" cx="960" cy="466.8" rx="14.9" ry="14.9"/>
	<circle class="st22" cx="798.2" cy="462.9" r="14.9"/>
	<path class="st22" d="M795.3,488.5c0,5.2-4.2,9.5-9.5,9.5c-5.2,0-9.5-4.2-9.5-9.5c0-5.2,4.2-9.5,9.5-9.5
		C791.1,479,795.3,483.2,795.3,488.5z"/>
	<circle class="st11" cx="819.4" cy="274.8" r="14.9"/>
	<rect x="606.2" y="593.9" class="st14" width="81.2" height="14.7"/>
	<rect x="420.2" y="593.9" class="st15" width="186" height="14.7"/>
	<rect x="917.4" y="329" class="st16" width="21.3" height="3.8"/>
	<circle class="st13" cx="808.4" cy="326.3" r="8.5"/>
	<circle class="st13" cx="855.5" cy="326.3" r="8.5"/>
</g>
</svg>
