<?xml version="1.0" encoding="utf-8"?>
<!-- Generator: Adobe Illustrator 22.0.0, SVG Export Plug-In . SVG Version: 6.00 Build 0)  -->
<svg version="1.1" id="Layer_1" xmlns="http://www.w3.org/2000/svg" xmlns:xlink="http://www.w3.org/1999/xlink" x="0px" y="0px"
	 viewBox="0 0 1366 768" style="enable-background:new 0 0 1366 768;" xml:space="preserve">
<style type="text/css">
	.st0{clip-path:url(#SVGID_2_);}
	.st1{fill:#D2EDE1;}
	.st2{fill:#00C196;}
	.st3{opacity:0.3;fill:#000B17;}
	.st4{fill:#000B17;}
	.st5{fill:#AAC0B7;}
	.st6{fill:#BDD5CB;}
</style>
<g>
	<g>
		<defs>
			<rect id="SVGID_1_" x="311" y="-170" width="704" height="704"/>
		</defs>
		<clipPath id="SVGID_2_">
			<use xlink:href="#SVGID_1_"  style="overflow:visible;"/>
		</clipPath>
		<g class="st0">
			<g>
				<path class="st1" d="M570.1,248.4c-6.5,0-11.9,5.3-11.9,11.9c0,6.5,5.3,11.9,11.9,11.9c6.5,0,11.9-5.3,11.9-11.9
					C582,253.8,576.7,248.4,570.1,248.4z"/>
				<g>
					<g>
						<path class="st1" d="M529.9,339.8c-12.8,0-23.1-10.4-23.1-23.2c0-12.8,10.4-23.1,23.1-23.1c12.8,0,23.2,10.4,23.2,23.1
							C553.1,329.5,542.7,339.8,529.9,339.8z M529.9,300.1c-9.2,0-16.6,7.5-16.6,16.6c0,9.2,7.5,16.6,16.6,16.6
							c9.2,0,16.6-7.5,16.6-16.6C546.5,307.5,539.1,300.1,529.9,300.1z"/>
					</g>
					<g>
						<g>
							<g>
								<polygon class="st1" points="532.8,285.9 527,285.9 525.5,297.2 534.3,297.2 								"/>
							</g>
							<g>
								<polygon class="st1" points="527,347.4 532.8,347.4 534.3,336.2 525.5,336.2 								"/>
							</g>
						</g>
						<g>
							<g>
								<polygon class="st1" points="560.6,319.6 560.6,313.8 549.4,312.3 549.4,321.1 								"/>
							</g>
							<g>
								<polygon class="st1" points="499.2,313.8 499.2,319.6 510.4,321.1 510.4,312.3 								"/>
							</g>
						</g>
					</g>
					<g>
						<g>
							<g>
								<polygon class="st1" points="553.7,297 549.6,292.9 540.6,299.9 546.7,306 								"/>
							</g>
							<g>
								<polygon class="st1" points="506.1,336.4 510.2,340.5 519.2,333.5 513.1,327.4 								"/>
							</g>
						</g>
						<g>
							<g>
								<polygon class="st1" points="549.6,340.5 553.7,336.4 546.7,327.4 540.6,333.5 								"/>
							</g>
							<g>
								<polygon class="st1" points="510.2,292.9 506.1,297 513.1,306 519.2,299.9 								"/>
							</g>
						</g>
					</g>
					<g>
						<path class="st1" d="M570.1,290.7c-16.8,0-30.4-13.6-30.4-30.4c0-16.8,13.6-30.4,30.4-30.4c16.8,0,30.4,13.6,30.4,30.4
							C600.6,277.1,586.9,290.7,570.1,290.7z M570.1,236.4c-13.2,0-23.9,10.7-23.9,23.9c0,13.2,10.7,23.9,23.9,23.9
							c13.2,0,23.9-10.7,23.9-23.9C594,247.1,583.3,236.4,570.1,236.4z"/>
					</g>
					<g>
						<g>
							<polygon class="st1" points="574.1,218.3 566.2,218.3 564.2,233.7 576.1,233.7 							"/>
						</g>
						<g>
							<polygon class="st1" points="566.2,302.3 574.1,302.3 576.1,286.9 564.2,286.9 							"/>
						</g>
					</g>
					<g>
						<g>
							<polygon class="st1" points="612.1,264.2 612.1,256.4 596.7,254.4 596.7,266.2 							"/>
						</g>
						<g>
							<polygon class="st1" points="528.2,256.4 528.2,264.2 543.6,266.2 543.6,254.4 							"/>
						</g>
					</g>
					<g>
						<g>
							<polygon class="st1" points="602.6,233.4 597.1,227.8 584.7,237.3 593.1,245.7 							"/>
						</g>
						<g>
							<polygon class="st1" points="537.7,287.2 543.2,292.7 555.6,283.3 547.1,274.9 							"/>
						</g>
					</g>
					<g>
						<g>
							<polygon class="st1" points="597.1,292.7 602.6,287.2 593.1,274.9 584.7,283.3 							"/>
						</g>
						<g>
							<polygon class="st1" points="543.2,227.8 537.7,233.4 547.1,245.7 555.6,237.3 							"/>
						</g>
					</g>
					<g>
						<path class="st1" d="M570.1,280.7c-11.2,0-20.4-9.1-20.4-20.4c0-11.2,9.1-20.4,20.4-20.4c11.2,0,20.4,9.1,20.4,20.4
							C590.5,271.5,581.4,280.7,570.1,280.7z M570.1,242.5c-9.8,0-17.8,8-17.8,17.8c0,9.8,8,17.8,17.8,17.8s17.8-8,17.8-17.8
							C587.9,250.5,579.9,242.5,570.1,242.5z"/>
					</g>
					<g>
						<path class="st1" d="M529.9,329.8c-7.2,0-13.1-5.9-13.1-13.1c0-7.2,5.9-13.1,13.1-13.1c7.2,0,13.1,5.9,13.1,13.1
							C543,323.9,537.1,329.8,529.9,329.8z M529.9,306.2c-5.8,0-10.5,4.7-10.5,10.5c0,5.8,4.7,10.5,10.5,10.5
							c5.8,0,10.5-4.7,10.5-10.5C540.4,310.9,535.7,306.2,529.9,306.2z"/>
					</g>
				</g>
				<g>
					<g>
						<path class="st1" d="M570.2,346.1h5.3v-2.4c0.8-0.2,1.6-0.5,2.3-1l1.7,1.7l3.8-3.8l-1.7-1.7c0.4-0.7,0.7-1.5,1-2.3h2.4v-5.3
							h-2.4c-0.2-0.8-0.6-1.6-1-2.3l1.7-1.7l-3.8-3.8l-1.7,1.7c-0.7-0.4-1.5-0.7-2.3-1v-2.4h-5.3v2.4c-0.8,0.2-1.6,0.6-2.3,1
							l-1.7-1.7l-3.8,3.8l1.7,1.7c-0.4,0.7-0.7,1.5-1,2.3h-2.4v5.3h2.4c0.2,0.8,0.6,1.6,1,2.3l-1.7,1.7l3.8,3.8l1.7-1.7
							c0.7,0.4,1.5,0.7,2.3,1V346.1z M568.1,333.9c0-2.6,2.1-4.8,4.8-4.8s4.8,2.1,4.8,4.8c0,2.6-2.1,4.8-4.8,4.8
							S568.1,336.5,568.1,333.9z"/>
					</g>
					<g>
						<path class="st1" d="M625,362.2h5.3v-2.4c0.8-0.2,1.6-0.5,2.3-1l1.7,1.7l3.8-3.8l-1.7-1.7c0.4-0.7,0.7-1.5,1-2.3h2.4v-5.3
							h-2.4c-0.2-0.8-0.6-1.6-1-2.3l1.7-1.7l-3.8-3.8l-1.7,1.7c-0.7-0.4-1.5-0.7-2.3-1v-2.4H625v2.4c-0.8,0.2-1.6,0.6-2.3,1
							l-1.7-1.7l-3.8,3.8l1.7,1.7c-0.4,0.7-0.7,1.5-1,2.3h-2.4v5.3h2.4c0.2,0.8,0.6,1.6,1,2.3l-1.7,1.7l3.8,3.8l1.7-1.7
							c0.7,0.4,1.5,0.7,2.3,1V362.2z M622.9,350c0-2.6,2.1-4.8,4.8-4.8s4.8,2.1,4.8,4.8c0,2.6-2.1,4.8-4.8,4.8
							S622.9,352.7,622.9,350z"/>
					</g>
					<g>
						<path class="st2" d="M548.8,376.9h7.3v-3.3c1.1-0.3,2.2-0.7,3.2-1.3l2.3,2.3l5.1-5.1l-2.3-2.3c0.6-1,1-2,1.3-3.2h3.3v-7.3
							h-3.3c-0.3-1.1-0.8-2.2-1.3-3.2l2.3-2.3l-5.1-5.1l-2.3,2.3c-1-0.6-2-1-3.2-1.3v-3.3h-7.3v3.3c-1.1,0.3-2.2,0.8-3.2,1.3
							l-2.3-2.3l-5.1,5.1l2.3,2.3c-0.6,1-1,2-1.3,3.2h-3.3v7.3h3.3c0.3,1.1,0.7,2.2,1.3,3.2l-2.3,2.3l5.1,5.1l2.3-2.3
							c1,0.6,2,1,3.2,1.3V376.9z M545.9,360.3c0-3.6,2.9-6.5,6.5-6.5c3.6,0,6.5,2.9,6.5,6.5c0,3.6-2.9,6.5-6.5,6.5
							C548.8,366.8,545.9,363.9,545.9,360.3z"/>
					</g>
					<g>
						<path class="st2" d="M583.6,322.8h1.6c0.1,0.5,0.4,1,0.6,1.5l-1.1,1.1l2.5,2.5l1.1-1.1c0.5,0.3,1,0.5,1.5,0.6v1.6h3.5v-1.6
							c0.5-0.1,1-0.4,1.5-0.6l1.1,1.1l2.5-2.5l-1.1-1.1c0.3-0.5,0.5-1,0.6-1.5h1.6v-3.5H598c-0.1-0.5-0.4-1-0.6-1.5l1.1-1.1
							l-2.5-2.5l-1.1,1.1c-0.5-0.3-1-0.5-1.5-0.6v-1.6h-3.5v1.6c-0.5,0.1-1,0.4-1.5,0.6l-1.1-1.1l-2.5,2.5l1.1,1.1
							c-0.3,0.5-0.5,1-0.6,1.5h-1.6V322.8z M591.6,318c1.7,0,3.1,1.4,3.1,3.1c0,1.7-1.4,3.1-3.1,3.1c-1.7,0-3.1-1.4-3.1-3.1
							C588.5,319.3,589.9,318,591.6,318z"/>
					</g>
					<g>
						<path class="st2" d="M581.6,356.6h1.6c0.1,0.5,0.4,1,0.6,1.5l-1.1,1.1l2.5,2.5l1.1-1.1c0.5,0.3,1,0.5,1.5,0.6v1.6h3.5v-1.6
							c0.5-0.1,1-0.4,1.5-0.6l1.1,1.1l2.5-2.5l-1.1-1.1c0.3-0.5,0.5-1,0.6-1.5h1.6v-3.5h-1.6c-0.1-0.5-0.4-1-0.6-1.5l1.1-1.1
							l-2.5-2.5l-1.1,1.1c-0.5-0.3-1-0.5-1.5-0.6v-1.6h-3.5v1.6c-0.5,0.1-1,0.4-1.5,0.6l-1.1-1.1l-2.5,2.5l1.1,1.1
							c-0.3,0.5-0.5,1-0.6,1.5h-1.6V356.6z M589.5,351.8c1.7,0,3.1,1.4,3.1,3.1c0,1.7-1.4,3.1-3.1,3.1c-1.7,0-3.1-1.4-3.1-3.1
							C586.4,353.2,587.8,351.8,589.5,351.8z"/>
					</g>
				</g>
				<g>
					<path class="st1" d="M542.2,442.5h1.6c0.1,0.5,0.4,1,0.6,1.5l-1.1,1.1l2.5,2.5l1.1-1.1c0.5,0.3,1,0.5,1.5,0.6v1.6h3.5v-1.6
						c0.5-0.1,1-0.4,1.5-0.6l1.1,1.1l2.5-2.5l-1.1-1.1c0.3-0.5,0.5-1,0.6-1.5h1.6V439h-1.6c-0.1-0.5-0.4-1-0.6-1.5l1.1-1.1l-2.5-2.5
						l-1.1,1.1c-0.5-0.3-1-0.5-1.5-0.6v-1.6h-3.5v1.6c-0.5,0.1-1,0.4-1.5,0.6l-1.1-1.1l-2.5,2.5l1.1,1.1c-0.3,0.5-0.5,1-0.6,1.5
						h-1.6V442.5z M550.2,437.7c1.7,0,3.1,1.4,3.1,3.1c0,1.7-1.4,3.1-3.1,3.1c-1.7,0-3.1-1.4-3.1-3.1
						C547.1,439.1,548.5,437.7,550.2,437.7z"/>
				</g>
				<g>
					<path class="st1" d="M594.6,481h1.6c0.1,0.5,0.4,1,0.6,1.5l-1.1,1.1l2.5,2.5l1.1-1.1c0.5,0.3,1,0.5,1.5,0.6v1.6h3.5v-1.6
						c0.5-0.1,1-0.4,1.5-0.6l1.1,1.1l2.5-2.5l-1.1-1.1c0.3-0.5,0.5-1,0.6-1.5h1.6v-3.5H609c-0.1-0.5-0.4-1-0.6-1.5l1.1-1.1l-2.5-2.5
						l-1.1,1.1c-0.5-0.3-1-0.5-1.5-0.6v-1.6h-3.5v1.6c-0.5,0.1-1,0.4-1.5,0.6l-1.1-1.1l-2.5,2.5l1.1,1.1c-0.3,0.5-0.5,1-0.6,1.5
						h-1.6V481z M602.6,476.1c1.7,0,3.1,1.4,3.1,3.1c0,1.7-1.4,3.1-3.1,3.1c-1.7,0-3.1-1.4-3.1-3.1
						C599.5,477.5,600.9,476.1,602.6,476.1z"/>
				</g>
				<g>
					<path class="st1" d="M565.3,530h1.6c0.1,0.5,0.4,1,0.6,1.5l-1.1,1.1l2.5,2.5l1.1-1.1c0.5,0.3,1,0.5,1.5,0.6v1.6h3.5v-1.6
						c0.5-0.1,1-0.4,1.5-0.6l1.1,1.1l2.5-2.5l-1.1-1.1c0.3-0.5,0.5-1,0.6-1.5h1.6v-3.5h-1.6c-0.1-0.5-0.4-1-0.6-1.5l1.1-1.1
						l-2.5-2.5l-1.1,1.1c-0.5-0.3-1-0.5-1.5-0.6v-1.6h-3.5v1.6c-0.5,0.1-1,0.4-1.5,0.6l-1.1-1.1l-2.5,2.5l1.1,1.1
						c-0.3,0.5-0.5,1-0.6,1.5h-1.6V530z M573.3,525.2c1.7,0,3.1,1.4,3.1,3.1c0,1.7-1.4,3.1-3.1,3.1c-1.7,0-3.1-1.4-3.1-3.1
						C570.2,526.6,571.6,525.2,573.3,525.2z"/>
				</g>
				<g>
					<path class="st2" d="M615.5,533.5h1.6c0.1,0.5,0.4,1,0.6,1.5l-1.1,1.1l2.5,2.5l1.1-1.1c0.5,0.3,1,0.5,1.5,0.6v1.6h3.5v-1.6
						c0.5-0.1,1-0.4,1.5-0.6l1.1,1.1l2.5-2.5l-1.1-1.1c0.3-0.5,0.5-1,0.6-1.5h1.6V530h-1.6c-0.1-0.5-0.4-1-0.6-1.5l1.1-1.1l-2.5-2.5
						l-1.1,1.1c-0.5-0.3-1-0.5-1.5-0.6v-1.6h-3.5v1.6c-0.5,0.1-1,0.4-1.5,0.6l-1.1-1.1l-2.5,2.5l1.1,1.1c-0.3,0.5-0.5,1-0.6,1.5
						h-1.6V533.5z M623.4,528.7c1.7,0,3.1,1.4,3.1,3.1c0,1.7-1.4,3.1-3.1,3.1c-1.7,0-3.1-1.4-3.1-3.1
						C620.3,530.1,621.7,528.7,623.4,528.7z"/>
				</g>
				<path class="st1" d="M513.9,250.1c0,1.9-1.5,3.5-3.5,3.5c-1.9,0-3.5-1.5-3.5-3.5c0-1.9,1.5-3.5,3.5-3.5
					C512.3,246.7,513.9,248.2,513.9,250.1z"/>
				<path class="st1" d="M565.9,389.5c0,2.8-2.3,5.1-5.1,5.1c-2.8,0-5.1-2.3-5.1-5.1c0-2.8,2.3-5.1,5.1-5.1
					C563.6,384.4,565.9,386.7,565.9,389.5z"/>
				<path class="st1" d="M665.8,394.6c0,2.8-2.3,5.1-5.1,5.1c-2.8,0-5.1-2.3-5.1-5.1c0-2.8,2.3-5.1,5.1-5.1
					C663.5,389.5,665.8,391.8,665.8,394.6z"/>
				<path class="st1" d="M622.7,410.6c0,7.3-5.9,13.3-13.3,13.3c-7.3,0-13.3-5.9-13.3-13.3c0-7.3,5.9-13.3,13.3-13.3
					C616.8,397.3,622.7,403.3,622.7,410.6z"/>
				<path class="st1" d="M670.3,440.8c0,2.8-2.3,5.1-5.1,5.1c-2.8,0-5.1-2.3-5.1-5.1c0-2.8,2.3-5.1,5.1-5.1
					C668,435.7,670.3,438,670.3,440.8z"/>
				<path class="st1" d="M545.7,456.5c0,2.8-2.3,5.1-5.1,5.1s-5.1-2.3-5.1-5.1c0-2.8,2.3-5.1,5.1-5.1S545.7,453.7,545.7,456.5z"/>
				<path class="st2" d="M557.5,531.8c0,2.8-2.3,5.1-5.1,5.1c-2.8,0-5.1-2.3-5.1-5.1c0-2.8,2.3-5.1,5.1-5.1
					C555.2,526.7,557.5,529,557.5,531.8z"/>
				<path class="st2" d="M602.6,533.4c0,2.8-2.3,5.1-5.1,5.1c-2.8,0-5.1-2.3-5.1-5.1c0-2.8,2.3-5.1,5.1-5.1
					C600.3,528.3,602.6,530.5,602.6,533.4z"/>
				<path class="st1" d="M643.4,520.3c0,2.8-2.3,5.1-5.1,5.1c-2.8,0-5.1-2.3-5.1-5.1c0-2.8,2.3-5.1,5.1-5.1
					C641.1,515.2,643.4,517.5,643.4,520.3z"/>
				<path class="st1" d="M627.7,516.4c0,2-1.6,3.7-3.7,3.7c-2,0-3.7-1.6-3.7-3.7c0-2,1.6-3.7,3.7-3.7
					C626,512.7,627.7,514.4,627.7,516.4z"/>
				<path class="st2" d="M593.2,461.6c0,2-1.6,3.7-3.7,3.7c-2,0-3.7-1.6-3.7-3.7c0-2,1.6-3.7,3.7-3.7
					C591.5,457.9,593.2,459.6,593.2,461.6z"/>
				<path class="st2" d="M631.3,457.9c0,2-1.6,3.7-3.7,3.7s-3.7-1.6-3.7-3.7c0-2,1.6-3.7,3.7-3.7S631.3,455.9,631.3,457.9z"/>
				<path class="st2" d="M668.8,487.2c0,2-1.6,3.7-3.7,3.7c-2,0-3.7-1.6-3.7-3.7c0-2,1.6-3.7,3.7-3.7
					C667.2,483.5,668.8,485.2,668.8,487.2z"/>
				<path class="st2" d="M646.1,535c0,2-1.6,3.7-3.7,3.7c-2,0-3.7-1.6-3.7-3.7c0-2,1.6-3.7,3.7-3.7C644.4,531.3,646.1,533,646.1,535
					z"/>
				<path class="st2" d="M660.7,427.2c0,2-1.6,3.7-3.7,3.7c-2,0-3.7-1.6-3.7-3.7c0-2,1.6-3.7,3.7-3.7
					C659.1,423.5,660.7,425.2,660.7,427.2z"/>
				<path class="st2" d="M678.6,405.2c0,2-1.6,3.7-3.7,3.7c-2,0-3.7-1.6-3.7-3.7c0-2,1.6-3.7,3.7-3.7
					C677,401.6,678.6,403.2,678.6,405.2z"/>
				<path class="st2" d="M531.3,505.2c0,2-1.6,3.7-3.7,3.7c-2,0-3.7-1.6-3.7-3.7s1.6-3.7,3.7-3.7
					C529.6,501.5,531.3,503.2,531.3,505.2z"/>
				<path class="st1" d="M616.5,333c0,2-1.6,3.7-3.7,3.7c-2,0-3.7-1.6-3.7-3.7c0-2,1.6-3.7,3.7-3.7C614.9,329.3,616.5,331,616.5,333
					z"/>
				<path class="st1" d="M585,308.2c0,1.9-1.5,3.5-3.5,3.5c-1.9,0-3.5-1.5-3.5-3.5c0-1.9,1.5-3.5,3.5-3.5
					C583.5,304.7,585,306.3,585,308.2z"/>
				<path class="st2" d="M599.6,337.9c0,1.9-1.5,3.5-3.5,3.5c-1.9,0-3.5-1.5-3.5-3.5c0-1.9,1.5-3.5,3.5-3.5
					C598.1,334.4,599.6,335.9,599.6,337.9z"/>
				<path class="st1" d="M610.6,346.1c0,3.1-2.5,5.5-5.5,5.5c-3.1,0-5.5-2.5-5.5-5.5c0-3.1,2.5-5.5,5.5-5.5
					C608.1,340.6,610.6,343.1,610.6,346.1z"/>
				<path class="st2" d="M495,300.5c0,1.9-1.5,3.5-3.5,3.5c-1.9,0-3.5-1.5-3.5-3.5c0-1.9,1.5-3.5,3.5-3.5
					C493.5,297.1,495,298.6,495,300.5z"/>
				<path class="st2" d="M521.3,345.8c0,1.1-0.9,2.1-2.1,2.1c-1.1,0-2.1-0.9-2.1-2.1c0-1.1,0.9-2.1,2.1-2.1
					C520.4,343.7,521.3,344.7,521.3,345.8z"/>
				<path class="st2" d="M570.1,310.3c0,1.1-0.9,2.1-2.1,2.1c-1.1,0-2.1-0.9-2.1-2.1c0-1.1,0.9-2.1,2.1-2.1
					C569.2,308.2,570.1,309.1,570.1,310.3z"/>
				<path class="st2" d="M592.2,300.5c0,1.1-0.9,2.1-2.1,2.1c-1.1,0-2.1-0.9-2.1-2.1c0-1.1,0.9-2.1,2.1-2.1
					C591.2,298.5,592.2,299.4,592.2,300.5z"/>
				<path class="st1" d="M529.7,354.9c0,1.1-0.9,2.1-2.1,2.1c-1.1,0-2.1-0.9-2.1-2.1c0-1.1,0.9-2.1,2.1-2.1
					C528.8,352.8,529.7,353.7,529.7,354.9z"/>
				<g>
					<path class="st1" d="M665.2,415.8v-10.4l-16-2.1c-1-5.7-3.3-11-6.5-15.6l9.9-12.8l-7.4-7.4l-12.8,9.9
						c-4.6-3.2-9.9-5.4-15.6-6.5l-2.1-16h-10.4l-2.1,16c-5.7,1-11,3.3-15.6,6.5l-12.8-9.9l-7.4,7.4l9.9,12.8
						c-3.2,4.6-5.4,9.9-6.5,15.6l-16,2.1v10.4l16,2.1c1,5.7,3.3,11,6.5,15.6l-9.9,12.8l7.4,7.4l12.8-9.9c4.6,3.2,9.9,5.4,15.6,6.5
						l2.1,16h10.4l2.1-16c5.7-1.1,11-3.3,15.6-6.5l12.8,9.9l7.4-7.4l-9.9-12.8c3.2-4.6,5.4-9.9,6.5-15.6L665.2,415.8z M641.2,410.6
						c0,17.5-14.2,31.7-31.7,31.7c-17.5,0-31.7-14.2-31.7-31.7c0-17.5,14.2-31.7,31.7-31.7C626.9,378.9,641.2,393.1,641.2,410.6z"/>
					<path class="st1" d="M609.4,383.6c-14.9,0-27.1,12.1-27.1,27.1c0,14.9,12.1,27.1,27.1,27.1c14.9,0,27.1-12.1,27.1-27.1
						C636.5,395.7,624.3,383.6,609.4,383.6z M609.4,434.2c-13,0-23.6-10.6-23.6-23.6c0-13,10.6-23.6,23.6-23.6
						c13,0,23.6,10.6,23.6,23.6C633,423.6,622.4,434.2,609.4,434.2z"/>
				</g>
				<g>
					<path class="st2" d="M463,179.3c-1.9-16.3,7.3-29,10.7-33c0.1-15.9,11-24.7,15.9-27.8c1-13.3,8.7-19.7,14.3-21.8
						c8-23.5,27.2-26.3,33.4-26.6c10.1-14,25.2-15.3,31-15.3c4.3-4.5,9.3-5.5,12.9-5.5c2,0,3.8,0.3,5,0.6c4.2-2,8.7-3,13.4-3
						c7.6,0,13.9,2.6,17,4.2c4.8-2,9.9-3.1,15.1-3.1c5.5,0,9.9,1.2,12,2c3.3-0.9,6.6-1.3,10-1.3c10.4,0,18.4,4.1,21.3,5.9
						c20.4,0,30.9,12,34.3,16.8c14,2.1,23.1,15.2,26.3,20.6c6.5,0.4,9.7,4.7,10.9,8.1c13.8,9.9,15.9,28,16.2,34
						c3.3,3.5,3.2,8,2.3,11.2c8.6,18.4,2.6,32.6-3,39c1.2,7.2,0,13.1-3.4,17.6c-3.9,5.2-9.8,6.8-12.4,7.2
						c-8.1,6.4-17.3,9.6-27.2,9.6c-7.8,0-14.1-2.1-17.4-3.4c-0.5,0.3-1,0.5-1.6,0.7c2.6,5.2,3.3,10,2.1,14.5c-1.3,4.9-4.5,8-6.8,9.7
						c0,5.8-1.7,10.7-5.3,14.7c-7.7,8.4-21,9.2-24.4,9.2c-8.6,2.2-16.6,3.4-23.8,3.4c-19.5,0-28.9-8.1-32.4-12.2
						c-0.9,0-1.7,0.1-2.6,0.1c-10.8,0-18-3.7-21.2-5.8c-2.5,0.7-5.1,1-7.6,1c-10.9,0-18.8-6.1-22-9.1c-3.5,0.1-7.7-0.8-10-1.4
						c-2.5,1.4-5.4,2.1-8.6,2.1c-3.2,0-6-0.7-7.7-1.3c-5,1.9-10,2.9-14.9,2.9c-10.2,0-17.2-4.2-20-6.2c-8.7-0.3-15.3-2.9-19.8-7.9
						c-4.7-5.3-5.5-11.7-5.5-15c-6.7-6.7-5.8-17-4.9-21.7C461.3,188.5,461.8,182.8,463,179.3z"/>
					<path class="st3" d="M762.3,184.4c5.6-6.4,11.7-20.6,3-39c0.9-3.1,1-7.7-2.3-11.2c-0.3-6-2.4-24.1-16.2-34
						c-1.2-3.4-4.4-7.7-10.9-8.1c-3.2-5.4-12.3-18.5-26.3-20.6c-3.4-4.8-13.9-16.8-34.3-16.8c-2.8-1.7-10.3-5.5-20.1-5.8
						c-1.4,7.5-1.6,16.2-1.6,25.3c0,12.7,0.9,25,1.1,28.6c-0.8,21.7,1.5,37.6,1.6,38.3c0,0.2,0.1,0.4,0.1,0.6
						c2.7,14.4,1.3,33.5,0.9,37.7c-2,8.9-8.3,20.1-10.6,24c-14.8,22.7-13.8,45.8-13.7,48.4c0.1,1.1,0.2,2.1,0.5,3.1
						c0.4,1.9,0,7-0.7,12c2.8,0.4,5.9,0.7,9.3,0.7c7.2,0,15.2-1.1,23.8-3.4c3.5,0,16.8-0.8,24.4-9.2c3.6-3.9,5.4-8.9,5.3-14.7
						c2.3-1.7,5.5-4.8,6.8-9.7c1.2-4.5,0.4-9.3-2.1-14.5c0.6-0.2,1.1-0.4,1.6-0.7c3.3,1.3,9.6,3.4,17.4,3.4c9.9,0,19.1-3.2,27.2-9.6
						c2.7-0.5,8.5-2,12.4-7.2C762.3,197.5,763.4,191.6,762.3,184.4z"/>
					<g>
						<path class="st4" d="M747.2,189.4c1.6,0,2.9,1.3,2.9,3c0,1.6-1.3,3-2.9,3c-1.6,0-3-1.3-3-3
							C744.3,190.7,745.6,189.4,747.2,189.4z"/>
						<path class="st4" d="M743.3,118.8c1.6,0,3,1.3,3,3c0,1.6-1.3,3-3,3s-3-1.3-3-3C740.4,120.1,741.7,118.8,743.3,118.8z"/>
						<path class="st4" d="M688.2,160.4c-1.6,0-3-1.3-3-2.9c0-1.6,1.3-3,3-3c1.6,0,3,1.3,3,3C691.2,159.1,689.8,160.4,688.2,160.4z"
							/>
						<path class="st4" d="M497.3,226.3c0,1.6-1.3,3-3,3c-1.6,0-2.9-1.3-2.9-3c0-1.6,1.3-3,2.9-3
							C495.9,223.4,497.3,224.7,497.3,226.3z"/>
						<path class="st4" d="M516.8,197.4c0-1.6,1.3-3,2.9-3s3,1.3,3,3c0,1.6-1.3,3-3,3S516.8,199,516.8,197.4z"/>
						<path class="st4" d="M473.6,169.6c0-1.6,1.3-3,3-3c1.6,0,3,1.3,3,3c0,1.6-1.3,3-3,3C474.9,172.5,473.6,171.2,473.6,169.6z"/>
						<path class="st4" d="M561.4,221.3c0,1.6-1.3,3-3,3c-1.6,0-3-1.3-3-3c0-1.6,1.3-3,3-3C560,218.4,561.4,219.7,561.4,221.3z"/>
						<path class="st4" d="M578.2,181.4c1.6,0,3,1.3,3,3c0,1.6-1.3,3-3,3c-1.6,0-3-1.3-3-3C575.3,182.7,576.6,181.4,578.2,181.4z"/>
						<path class="st4" d="M540.7,114.6c-1.6,0-3-1.3-3-3c0-1.6,1.3-3,3-3c1.6,0,3,1.3,3,3C543.6,113.3,542.3,114.6,540.7,114.6z"/>
						<path class="st4" d="M619.9,211.2c-1.6,0-3-1.3-3-3c0-1.6,1.3-3,3-3c1.6,0,3,1.3,3,3C622.8,209.9,621.5,211.2,619.9,211.2z"/>
						<path class="st4" d="M619.9,113.8c1.6,0,3,1.3,3,3c0,1.6-1.3,3-3,3c-1.6,0-3-1.3-3-3C616.9,115.1,618.3,113.8,619.9,113.8z"/>
						<path class="st4" d="M662.1,59.5c1.6,0,3,1.3,3,3s-1.3,3-3,3c-1.6,0-3-1.3-3-3S660.5,59.5,662.1,59.5z"/>
						<path class="st4" d="M614,69.7c0-1.6,1.3-3,3-3c1.6,0,3,1.3,3,3c0,1.6-1.3,3-3,3C615.3,72.7,614,71.4,614,69.7z"/>
						<path class="st4" d="M540.7,179.3c1.6,0,3,1.3,3,3c0,1.6-1.3,3-3,3c-1.6,0-3-1.3-3-3C537.7,180.6,539.1,179.3,540.7,179.3z"/>
						<path class="st4" d="M516.8,137.1c0-1.6,1.3-3,2.9-3s3,1.3,3,3c0,1.6-1.3,3-3,3S516.8,138.7,516.8,137.1z"/>
						<path class="st4" d="M470.7,215c0,3.2,2.6,5.8,5.8,5.8c3.2,0,5.8-2.6,5.8-5.8c0-1.3-0.5-2.6-1.2-3.5l12.5-12.5v21.7
							c-2.8,0.4-5,2.8-5,5.7c0,3.2,2.6,5.8,5.8,5.8c3.2,0,5.8-2.6,5.8-5.8c0-2.9-2.2-5.4-5-5.7v-23.2l14.5-14.5H535
							c0.3,2.6,2.4,4.7,5,5v19.1h17.7v8.5c-2.8,0.4-5,2.8-5,5.7c0,2.6,1.8,4.9,4.2,5.6l-6.6,6.6l-17.6-17.6h-12.2v-12.7
							c2.8-0.4,5-2.8,5-5.7c0-3.2-2.6-5.8-5.8-5.8c-2.9,0-5.4,2.2-5.7,5h-8.7v16.1h8.6v14.5c-2.8,0.4-5,2.8-5,5.7
							c0,3.2,2.6,5.8,5.8,5.8c3.2,0,5.8-2.6,5.8-5.8c0-2.9-2.2-5.4-5-5.7v-15.9h-8.6v-13.2h7.2c0.3,2.6,2.4,4.7,5,5v14.2h13.1
							l18.2,18.2l8.4-8.4c3-0.2,5.5-2.7,5.5-5.8c0-2.9-2.2-5.4-5-5.7v-9l16.7-16.7l-0.8-0.8c0.9,0.6,2,1,3.2,1
							c3.2,0,5.8-2.6,5.8-5.8c0-3.2-2.6-5.8-5.8-5.8c-3.2,0-5.8,2.6-5.8,5.8c0,1.9,0.9,3.5,2.3,4.6l-15.6,15.6v-28.7l23.1-6.9v-14.4
							h19.9v24.4l-29.9,29.9v23.5c-2.7,0.5-4.8,2.8-4.8,5.7c0,3.2,2.6,5.8,5.8,5.8c3.2,0,5.8-2.6,5.8-5.8c0-3-2.3-5.5-5.3-5.7v-22.8
							l28.5-28.5v19.8h-6.9V225h6.9v9h13.6l3.4,4.2v6.2c-2.8,0.4-5,2.8-5,5.7c0,3.2,2.6,5.8,5.8,5.8c3.2,0,5.8-2.6,5.8-5.8
							c0-2.9-2.2-5.4-5-5.7v-6.7l-3-3.7h13l20-20h0.8v35.4c-2.8,0.4-5,2.8-5,5.7c0,3.2,2.6,5.8,5.8,5.8c3.2,0,5.8-2.6,5.8-5.8
							c0-2.9-2.2-5.4-5-5.7V214h14.5c0.3,2.6,2.5,4.7,5.1,5l4.8,23.3c-2.8,0.4-4.9,2.8-4.9,5.7c0,3.2,2.6,5.8,5.8,5.8
							c3.2,0,5.8-2.6,5.8-5.8c0-3-2.3-5.4-5.2-5.7L674,219c2.8-0.4,4.9-2.8,4.9-5.7c0-3.2-2.6-5.8-5.8-5.8c-2.9,0-5.4,2.2-5.7,5
							h-14.5v-0.8l14.5-14.5c0.8,0.5,1.8,0.8,2.9,0.8c2.9,0,5.4-2.2,5.7-5h19.3v10.1h17.3v-5.1c2.6-0.3,4.7-2.4,5-5h24.1
							c0.4,2.8,2.8,5,5.7,5c3.2,0,5.8-2.6,5.8-5.8c0-3.2-2.6-5.8-5.8-5.8c-2.9,0-5.4,2.2-5.7,5h-24.1c-0.3-2.6-2.4-4.7-5-5v-3h11.4
							v-9.4h16.8l11.8-11.8c0.8,0.5,1.8,0.8,2.9,0.8c3.2,0,5.8-2.6,5.8-5.8c0-3.2-2.6-5.8-5.8-5.8c-3.2,0-5.8,2.6-5.8,5.8
							c0,1.6,0.7,3.1,1.7,4.1L740,172.8h-16.2v-22.6h8.8c0.4,2.8,2.8,5,5.7,5c3.2,0,5.8-2.6,5.8-5.8c0-3.2-2.6-5.8-5.8-5.8
							c-2.9,0-5.4,2.2-5.7,5h-10.2v24h-9.9V150h6.9v-9.7h6.5l14-14c1,0.8,2.2,1.2,3.5,1.2c3.2,0,5.8-2.6,5.8-5.8
							c0-3.2-2.6-5.8-5.8-5.8c-3.2,0-5.8,2.6-5.8,5.8c0,1.3,0.5,2.6,1.2,3.5l-13.6,13.6h-5.9v-23.3h3.4l6.9-6.9
							c0.8,0.5,1.8,0.8,2.9,0.8c3.2,0,5.8-2.6,5.8-5.8c0-3.2-2.6-5.8-5.8-5.8c-3.2,0-5.8,2.6-5.8,5.8c0,1.6,0.7,3.1,1.7,4.1
							l-6.3,6.3h-2.8v-7.8l-14.8-14.8h6.5c0.4,2.8,2.8,5,5.7,5c3.2,0,5.8-2.6,5.8-5.8c0-3.2-2.6-5.8-5.8-5.8c-2.9,0-5.4,2.2-5.7,5
							h-7.9L689,76l-0.3,0.3c0.1-0.5,0.2-1,0.2-1.5c0-3.2-2.6-5.8-5.8-5.8c-3.2,0-5.8,2.6-5.8,5.8c0,1.6,0.7,3.1,1.7,4.1l-17.7,17.7
							V121h-9V85.3h10.3V68.1c2.8-0.4,5-2.8,5-5.7c0-3.2-2.6-5.8-5.8-5.8c-3.2,0-5.8,2.6-5.8,5.8c0,1.6,0.7,3.1,1.7,4.1l-7,7v10.2
							h-20.4V65.2c2.8-0.4,5-2.8,5-5.7c0-3.2-2.6-5.8-5.8-5.8c-3.2,0-5.8,2.6-5.8,5.8c0,2.9,2.2,5.4,5,5.7v18.7h-11.6v-8.4
							c2.8-0.4,5-2.8,5-5.7c0-3.2-2.6-5.8-5.8-5.8c-3.2,0-5.8,2.6-5.8,5.8c0,2.9,2.2,5.4,5,5.7v9.8h13v4l-9.5,9.5l-22.1-36.4
							c0.5-0.9,0.8-1.9,0.8-3c0-3.2-2.6-5.8-5.8-5.8c-3.2,0-5.8,2.6-5.8,5.8c0,2.9,2.2,5.4,5,5.7v25.5h-10.9v30.8l-12.5,12.5h-9.5
							v-8.5h11.6v-18.1c2.8-0.4,5-2.8,5-5.7c0-3.2-2.6-5.8-5.8-5.8c-3.2,0-5.8,2.6-5.8,5.8c0,2.9,2.2,5.4,5,5.7V124h-10.1v-13h-12.7
							c-0.3-2.6-2.4-4.7-5-5V94h14.8v-7.2h17.7v-3.3c2.7-0.5,4.8-2.8,4.8-5.7c0-3.2-2.6-5.8-5.8-5.8c-3.2,0-5.8,2.6-5.8,5.8
							c0,3,2.3,5.5,5.3,5.7v1.8h-16.3v-9.8c2.8-0.4,5-2.8,5-5.7c0-3.2-2.6-5.8-5.8-5.8c-3.2,0-5.8,2.6-5.8,5.8c0,2.9,2.2,5.4,5,5.7
							v9.8H540v7.2h-9.5V124h-25.7v-6.6c2.8-0.4,5-2.8,5-5.7c0-3.2-2.6-5.8-5.8-5.8c-3.2,0-5.8,2.6-5.8,5.8c0,2.9,2.2,5.4,5,5.7v8
							h27.1v20l-10,10v-12.6c2.8-0.4,5-2.8,5-5.7c0-3.2-2.6-5.8-5.8-5.8s-5.8,2.6-5.8,5.8c0,2.9,2.2,5.4,5,5.7v14l-5.1,5.1h-4.1
							v-26.8H495c-0.4-2.8-2.8-5-5.7-5c-3.2,0-5.8,2.6-5.8,5.8c0,2.9,2.2,5.4,5,5.7v21.8h19.9v10.5h-14.9v7.6h-16.4v-6.3
							c2.8-0.4,5-2.8,5-5.7c0-3.2-2.6-5.8-5.8-5.8c-3.2,0-5.8,2.6-5.8,5.8c0,2.9,2.2,5.4,5,5.7v7.7h17.8v13.9L480,210.4
							c-1-0.8-2.2-1.2-3.5-1.2C473.3,209.2,470.7,211.8,470.7,215z M476.5,173.9c-2.4,0-4.3-1.9-4.3-4.3c0-2.4,1.9-4.3,4.3-4.3
							c2.4,0,4.3,1.9,4.3,4.3C480.8,171.9,478.9,173.9,476.5,173.9z M493.6,135.9c0,2.4-1.9,4.3-4.3,4.3c-2.4,0-4.3-1.9-4.3-4.3
							c0-2.4,1.9-4.3,4.3-4.3C491.6,131.6,493.6,133.5,493.6,135.9z M508.4,161.9H490v-20.3c2.6-0.3,4.7-2.4,5-5h13.5V161.9z
							 M504.1,116c-2.4,0-4.3-1.9-4.3-4.3c0-2.4,1.9-4.3,4.3-4.3c2.4,0,4.3,1.9,4.3,4.3C508.4,114,506.5,116,504.1,116z M572.9,82.1
							c-2.4,0-4.3-1.9-4.3-4.3c0-2.4,1.9-4.3,4.3-4.3c2.4,0,4.3,1.9,4.3,4.3C577.2,80.1,575.3,82.1,572.9,82.1z M570,105.9
							c-2.4,0-4.3-1.9-4.3-4.3c0-2.4,1.9-4.3,4.3-4.3s4.3,1.9,4.3,4.3C574.3,104,572.4,105.9,570,105.9z M616.9,74.1
							c-2.4,0-4.3-1.9-4.3-4.3c0-2.4,1.9-4.3,4.3-4.3c2.4,0,4.3,1.9,4.3,4.3C621.3,72.1,619.3,74.1,616.9,74.1z M712.4,90.8
							c0-2.4,1.9-4.3,4.3-4.3c2.4,0,4.3,1.9,4.3,4.3c0,2.4-1.9,4.3-4.3,4.3C714.4,95.1,712.4,93.2,712.4,90.8z M728.1,103.7
							c0-2.4,1.9-4.3,4.3-4.3c2.4,0,4.3,1.9,4.3,4.3c0,2.4-1.9,4.3-4.3,4.3C730.1,108,728.1,106,728.1,103.7z M739,121.8
							c0-2.4,1.9-4.3,4.3-4.3c2.4,0,4.3,1.9,4.3,4.3c0,2.4-1.9,4.3-4.3,4.3C741,126.1,739,124.1,739,121.8z M734,149.5
							c0-2.4,1.9-4.3,4.3-4.3c2.4,0,4.3,1.9,4.3,4.3c0,2.4-1.9,4.3-4.3,4.3C735.9,153.8,734,151.9,734,149.5z M750.9,157.5
							c0-2.4,1.9-4.3,4.3-4.3s4.3,1.9,4.3,4.3c0,2.4-1.9,4.3-4.3,4.3S750.9,159.9,750.9,157.5z M742.9,192.3c0-2.4,1.9-4.3,4.3-4.3
							c2.4,0,4.3,1.9,4.3,4.3c0,2.4-1.9,4.3-4.3,4.3C744.8,196.7,742.9,194.7,742.9,192.3z M678.1,243.7c2.4,0,4.3,1.9,4.3,4.3
							c0,2.4-1.9,4.3-4.3,4.3c-2.4,0-4.3-1.9-4.3-4.3C673.8,245.7,675.7,243.7,678.1,243.7z M668.8,213.3c0-2.4,1.9-4.3,4.3-4.3
							c2.4,0,4.3,1.9,4.3,4.3c0,2.4-1.9,4.3-4.3,4.3C670.7,217.6,668.8,215.7,668.8,213.3z M619.9,245.8c2.4,0,4.3,1.9,4.3,4.3
							c0,2.4-1.9,4.3-4.3,4.3c-2.4,0-4.3-1.9-4.3-4.3C615.6,247.8,617.5,245.8,619.9,245.8z M573.2,233.6c2.4,0,4.3,1.9,4.3,4.3
							s-1.9,4.3-4.3,4.3s-4.3-1.9-4.3-4.3S570.8,233.6,573.2,233.6z M573.9,184.3c0-2.4,1.9-4.3,4.3-4.3s4.3,1.9,4.3,4.3
							c0,2.4-1.9,4.3-4.3,4.3S573.9,186.7,573.9,184.3z M514.7,228.6c2.4,0,4.3,1.9,4.3,4.3c0,2.4-1.9,4.3-4.3,4.3
							c-2.4,0-4.3-1.9-4.3-4.3C510.4,230.5,512.3,228.6,514.7,228.6z M519.8,201.7c-2.4,0-4.3-1.9-4.3-4.3c0-2.4,1.9-4.3,4.3-4.3
							c2.4,0,4.3,1.9,4.3,4.3C524.1,199.8,522.1,201.7,519.8,201.7z M597.1,59.5c0,2.4-1.9,4.3-4.3,4.3c-2.4,0-4.3-1.9-4.3-4.3
							c0-2.4,1.9-4.3,4.3-4.3C595.2,55.1,597.1,57.1,597.1,59.5z M618.7,99.9l-9.2,9.2v7.9l-11.1,1.9c-0.4-2.8-2.8-4.9-5.7-4.9
							c-3.2,0-5.8,2.6-5.8,5.8c0,2.9,2.2,5.4,5,5.7v9.8h10.1v9.8h-21.3v8.1h-21.6v-17.6h10.1l13.3-13.3V92.1h10.9v-27
							c1.3-0.2,2.4-0.7,3.3-1.5L618.7,99.9z M588.5,119.7c0-2.4,1.9-4.3,4.3-4.3c2.4,0,4.3,1.9,4.3,4.3c0,2.4-1.9,4.3-4.3,4.3
							C590.4,124,588.5,122,588.5,119.7z M624.5,109.4h15.6v13h9.9L634.6,138h-13.9v-15.5c2.8-0.4,5-2.8,5-5.7
							c0-3.2-2.6-5.8-5.8-5.8c-3,0-5.4,2.3-5.7,5.2l-3.2,0.5v-7l8.5-8.5L624.5,109.4z M619.9,112.4c2.4,0,4.3,1.9,4.3,4.3
							c0,2.4-1.9,4.3-4.3,4.3c-2.4,0-4.3-1.9-4.3-4.3C615.6,114.3,617.5,112.4,619.9,112.4z M630.7,63.7v-1.4
							c1.3-0.3,2.2-1.5,2.2-2.9c0-1.6-1.3-3-3-3c-1.6,0-3,1.3-3,3c0,1.4,0.9,2.5,2.2,2.9v1.4c-2-0.3-3.6-2.1-3.6-4.3
							c0-2.4,1.9-4.3,4.3-4.3c2.4,0,4.3,1.9,4.3,4.3C634.3,61.6,632.7,63.4,630.7,63.7z M651.1,121h-9.5v-13h-16.2l-4.8-7.9
							l10.2-10.2v-4.6h20.4V121z M662.1,66.7c-2.4,0-4.3-1.9-4.3-4.3c0-2.4,1.9-4.3,4.3-4.3c2.4,0,4.3,1.9,4.3,4.3
							C666.5,64.8,664.5,66.7,662.1,66.7z M652.5,83.8v-9.6l6.8-6.8c0.6,0.4,1.4,0.6,2.1,0.7v15.7H652.5z M661.5,138.8h-8.7
							l-4.7,4.7v-6.9h13.4V138.8z M687.5,74.8c0,2.4-1.9,4.3-4.3,4.3c-2.4,0-4.3-1.9-4.3-4.3s1.9-4.3,4.3-4.3
							C685.6,70.5,687.5,72.4,687.5,74.8z M701.1,90.1h-14l-14.7,14.7V121h-9.4V97.2l17.4-17.4c0.8,0.5,1.8,0.8,2.9,0.8
							c2.3,0,4.2-1.3,5.2-3.2L701.1,90.1z M668.9,149.2v22.2h-16.6l10.6-10.6v-20.4h14.9L668.9,149.2z M701.9,122.5h0.9v16.4h-21.5
							l12.1-12.1c0.8,0.5,1.8,0.8,2.9,0.8C699.2,127.5,701.6,125.3,701.9,122.5z M696.2,126.1c-2.4,0-4.3-1.9-4.3-4.3
							c0-2.4,1.9-4.3,4.3-4.3c2.4,0,4.3,1.9,4.3,4.3C700.5,124.1,698.6,126.1,696.2,126.1z M679.2,138.8h-16.3v-2.2h10.9v-14.2h16.7
							c0.2,1.3,0.8,2.5,1.7,3.4L679.2,138.8z M662.9,135.2v-12.7h9.4v12.7H662.9z M717.9,138.8h-13.6V121h-2.3c-0.4-2.8-2.8-5-5.7-5
							c-2.9,0-5.4,2.2-5.7,5h-16.7v-15.6l13.9-13.9h14.9l15.4,15.4v7.2h-5.5v-7.2h-20.6c-0.4-2.8-2.8-5-5.7-5
							c-3.2,0-5.8,2.6-5.8,5.8c0,3.2,2.6,5.8,5.8,5.8c2.9,0,5.4-2.2,5.7-5H711v7.2h6.9V138.8z M686.1,112c-2.4,0-4.3-1.9-4.3-4.3
							c0-2.4,1.9-4.3,4.3-4.3c2.4,0,4.3,1.9,4.3,4.3C690.4,110,688.5,112,686.1,112z M711,148.6v24.2h-22v-9.6c2.8-0.4,5-2.8,5-5.7
							c0-2.9-2.2-5.4-5-5.7v-4.3h15.3v-7.2h13.6v8.3H711z M692.5,157.5c0,2.4-1.9,4.3-4.3,4.3c-2.4,0-4.3-1.9-4.3-4.3
							c0-2.4,1.9-4.3,4.3-4.3C690.6,153.2,692.5,155.1,692.5,157.5z M712.4,182.2v-7.9h9.9v7.9H712.4z M711.7,196.7
							c-2.4,0-4.3-1.9-4.3-4.3c0-2.4,1.9-4.3,4.3-4.3c2.4,0,4.3,1.9,4.3,4.3C716,194.7,714.1,196.7,711.7,196.7z M665.8,192.3
							c0-2.4,1.9-4.3,4.3-4.3c2.4,0,4.3,1.9,4.3,4.3c0,2.4-1.9,4.3-4.3,4.3C667.8,196.7,665.8,194.7,665.8,192.3z M652.8,209.8
							v-29.7h30.1l3.5,3.5H711v3c-2.8,0.4-5,2.8-5,5.7c0,2.9,2.2,5.4,5,5.7v3.6h-14.4v-10.1h-20.8c-0.4-2.8-2.8-5-5.7-5
							c-3.2,0-5.8,2.6-5.8,5.8c0,1.6,0.7,3.1,1.8,4.1L652.8,209.8z M652.1,250.9c2.4,0,4.3,1.9,4.3,4.3c0,2.4-1.9,4.3-4.3,4.3
							c-2.4,0-4.3-1.9-4.3-4.3C647.8,252.8,649.7,250.9,652.1,250.9z M650,212.6h-15.3v8h-14.1V214c2.8-0.4,5-2.8,5-5.7
							c0-1-0.3-2-0.7-2.8l20.9-17.8v-9.8l5-5h19.5v-23l9.5-9.5h23v5.7h-15.3v5.7c-2.8,0.4-5,2.8-5,5.7c0,2.9,2.2,5.4,5,5.7v11H711
							v7.9h-24l-3.5-3.5h-32.1v32.6L650,212.6z M619.9,212.6c-2.4,0-4.3-1.9-4.3-4.3c0-2.4,1.9-4.3,4.3-4.3c2.4,0,4.3,1.9,4.3,4.3
							C624.2,210.6,622.3,212.6,619.9,212.6z M603.6,225h4.8l6.2,7.6h-11V225z M603.6,179.5l6.6-6.6h38.6l-4.4,4.4v9.7l-20.3,17.3
							c-1.1-1.1-2.5-1.8-4.2-1.8c-3.2,0-5.8,2.6-5.8,5.8c0,2.9,2.2,5.4,5,5.7v8h17v-8h12.4L630,232.6h-13.6l-7.3-9h-5.5v-21.4h5.2
							V188h5.4c0.4,2.8,2.8,5,5.7,5c3.2,0,5.8-2.6,5.8-5.8c0-3.2-2.6-5.8-5.8-5.8c-2.9,0-5.4,2.2-5.7,5h-6.9v14.1h-3.7V179.5z
							 M619.9,183c2.4,0,4.3,1.9,4.3,4.3c0,2.4-1.9,4.3-4.3,4.3c-2.4,0-4.3-1.9-4.3-4.3C615.6,184.9,617.5,183,619.9,183z
							 M603.6,154.5h35.7l7.4-7.4v14.7h-21c-0.4-2.8-2.8-5-5.7-5c-3.2,0-5.8,2.6-5.8,5.8c0,3.2,2.6,5.8,5.8,5.8c2.9,0,5.4-2.2,5.7-5
							h22.5v-17.6l5.3-5.3h8.1v19.8l-11.2,11.2h-40.6l-6,6.1V154.5z M619.9,166.8c-2.4,0-4.3-1.9-4.3-4.3c0-2.4,1.9-4.3,4.3-4.3
							c2.4,0,4.3,1.9,4.3,4.3C624.2,164.9,622.3,166.8,619.9,166.8z M603.6,146.4h7.4v-28.3l3.2-0.6c0.4,2.5,2.4,4.5,5,4.9v17h16
							l16.9-16.9h9.4v12.7h-14.8v9.8l-8,8h-35.1V146.4z M602.1,202.1v21.4h-5.4v-21.4H602.1z M593.5,133.7v-8.4
							c2.6-0.3,4.7-2.4,5-5.1l11-1.9V145h-6v-11.2H593.5z M582.2,146.4h19.9v6.6h-19.9V146.4z M559.1,174.3v-19.9h21.6v13.4
							L559.1,174.3z M558.4,217c2.4,0,4.3,1.9,4.3,4.3c0,2.4-1.9,4.3-4.3,4.3c-2.4,0-4.3-1.9-4.3-4.3C554.1,218.9,556,217,558.4,217
							z M519.8,141.4c-2.4,0-4.3-1.9-4.3-4.3c0-2.4,1.9-4.3,4.3-4.3c2.4,0,4.3,1.9,4.3,4.3C524.1,139.5,522.1,141.4,519.8,141.4z
							 M540,105.9c-2.8,0.4-5,2.8-5,5.7c0,2.9,2.2,5.4,5,5.7v6.6h-8V94h8V105.9z M555.5,74.1c-2.4,0-4.3-1.9-4.3-4.3
							c0-2.4,1.9-4.3,4.3-4.3c2.4,0,4.3,1.9,4.3,4.3C559.8,72.1,557.8,74.1,555.5,74.1z M541.4,92.5v-5.8h13.3v5.8H541.4z
							 M545,111.7c0,2.4-1.9,4.3-4.3,4.3c-2.4,0-4.3-1.9-4.3-4.3c0-2.4,1.9-4.3,4.3-4.3C543.1,107.3,545,109.3,545,111.7z
							 M557.7,124h-16.3v-6.6c2.6-0.3,4.7-2.4,5-5h11.3V124z M557.7,133.9h-16.3v-8.5h16.3V133.9z M557.7,153h-20.3l-7.7,7.7h-9.2
							v-3.3L532,146v-20.6h8v9.9h17.7V153z M557.7,174.8l-12.6,3.8c-0.9-1.1-2.2-1.8-3.7-2v-15.8h-9.6l6.3-6.3h19.7V174.8z
							 M541.4,188c2.8-0.4,5-2.8,5-5.7c0-0.9-0.2-1.7-0.6-2.4l11.8-3.5v29.4h-16.3V188z M536.4,182.3c0-2.4,1.9-4.3,4.3-4.3
							c2.4,0,4.3,1.9,4.3,4.3c0,2.4-1.9,4.3-4.3,4.3C538.3,186.6,536.4,184.6,536.4,182.3z M511,181.5l19.3-19.3h9.6v14.4
							c-2.6,0.3-4.7,2.4-5,5H511z M508.9,181.5H495v-6.2h14.9v-12h4.7l4.5-4.5v3.3h9.2L508.9,181.5z M495,195.4V183h12.4L495,195.4z
							 M494.3,222c2.4,0,4.3,1.9,4.3,4.3c0,2.4-1.9,4.3-4.3,4.3c-2.4,0-4.3-1.9-4.3-4.3C490,224,491.9,222,494.3,222z M472.2,215
							c0-2.4,1.9-4.3,4.3-4.3c2.4,0,4.3,1.9,4.3,4.3c0,2.4-1.9,4.3-4.3,4.3C474.1,219.3,472.2,217.4,472.2,215z"/>
						<path class="st4" d="M476.5,212c1.6,0,3,1.3,3,3c0,1.6-1.3,3-3,3c-1.6,0-3-1.3-3-3C473.6,213.3,474.9,212,476.5,212z"/>
						<path class="st4" d="M696.2,124.7c-1.6,0-3-1.3-3-3c0-1.6,1.3-3,3-3c1.6,0,3,1.3,3,3C699.2,123.4,697.8,124.7,696.2,124.7z"/>
						<path class="st4" d="M686.1,110.6c-1.6,0-3-1.3-3-3c0-1.6,1.3-3,3-3s3,1.3,3,3C689.1,109.3,687.8,110.6,686.1,110.6z"/>
						<path class="st4" d="M732.5,100.7c1.6,0,3,1.3,3,3c0,1.6-1.3,3-3,3c-1.6,0-3-1.3-3-3C729.5,102,730.8,100.7,732.5,100.7z"/>
						<path class="st4" d="M716.8,87.9c1.6,0,2.9,1.3,2.9,3c0,1.6-1.3,3-2.9,3c-1.6,0-3-1.3-3-3C713.8,89.2,715.1,87.9,716.8,87.9z"
							/>
						<path class="st4" d="M501.2,111.7c0-1.6,1.3-3,3-3c1.6,0,3,1.3,3,3c0,1.6-1.3,3-3,3C502.5,114.6,501.2,113.3,501.2,111.7z"/>
						<path class="st4" d="M570,98.6c1.6,0,3,1.3,3,3c0,1.6-1.3,3-3,3c-1.6,0-3-1.3-3-3C567,99.9,568.3,98.6,570,98.6z"/>
						<path class="st4" d="M619.9,165.5c-1.6,0-3-1.3-3-3c0-1.6,1.3-3,3-3c1.6,0,3,1.3,3,3C622.8,164.2,621.5,165.5,619.9,165.5z"/>
						<path class="st4" d="M517.7,232.9c0,1.6-1.3,3-3,3c-1.6,0-3-1.3-3-3c0-1.6,1.3-3,3-3C516.3,230,517.7,231.3,517.7,232.9z"/>
						<path class="st4" d="M622.8,250.1c0,1.6-1.3,3-3,3c-1.6,0-3-1.3-3-3c0-1.6,1.3-3,3-3C621.5,247.2,622.8,248.5,622.8,250.1z"/>
						<path class="st4" d="M619.9,184.3c1.6,0,3,1.3,3,3c0,1.6-1.3,3-3,3c-1.6,0-3-1.3-3-3C616.9,185.7,618.3,184.3,619.9,184.3z"/>
						<path class="st4" d="M670.1,189.4c1.6,0,2.9,1.3,2.9,3c0,1.6-1.3,3-2.9,3c-1.6,0-3-1.3-3-3
							C667.2,190.7,668.5,189.4,670.1,189.4z"/>
						<path class="st4" d="M592.8,116.7c1.6,0,3,1.3,3,3c0,1.6-1.3,3-3,3c-1.6,0-2.9-1.3-2.9-3C589.8,118,591.1,116.7,592.8,116.7z"
							/>
						<path class="st4" d="M572.9,74.8c1.6,0,3,1.3,3,3c0,1.6-1.3,3-3,3c-1.6,0-3-1.3-3-3C570,76.1,571.3,74.8,572.9,74.8z"/>
						<path class="st4" d="M592.8,62.4c-1.6,0-2.9-1.3-2.9-3c0-1.6,1.3-3,2.9-3c1.6,0,3,1.3,3,3C595.7,61.1,594.4,62.4,592.8,62.4z"
							/>
						<path class="st4" d="M681.1,248.1c0,1.6-1.3,2.9-3,2.9s-3-1.3-3-2.9c0-1.6,1.3-3,3-3S681.1,246.4,681.1,248.1z"/>
						<path class="st4" d="M655.1,255.2c0,1.6-1.3,3-3,3c-1.6,0-3-1.3-3-3c0-1.6,1.3-2.9,3-2.9C653.7,252.2,655.1,253.6,655.1,255.2
							z"/>
						<path class="st4" d="M738.3,146.5c1.6,0,2.9,1.3,2.9,3c0,1.6-1.3,3-2.9,3c-1.6,0-3-1.3-3-3
							C735.3,147.9,736.7,146.5,738.3,146.5z"/>
						<path class="st4" d="M573.2,240.9c-1.6,0-3-1.3-3-3c0-1.6,1.3-3,3-3c1.6,0,3,1.3,3,3C576.1,239.6,574.8,240.9,573.2,240.9z"/>
						<path class="st4" d="M489.3,138.9c-1.6,0-3-1.3-3-3c0-1.6,1.3-3,3-3c1.6,0,2.9,1.3,2.9,3C492.2,137.5,490.9,138.9,489.3,138.9
							z"/>
						<path class="st4" d="M683.2,77.7c-1.6,0-2.9-1.3-2.9-3c0-1.6,1.3-3,2.9-3c1.6,0,3,1.3,3,3C686.1,76.4,684.8,77.7,683.2,77.7z"
							/>
						<path class="st4" d="M711.7,189.4c1.6,0,3,1.3,3,3c0,1.6-1.3,3-3,3c-1.6,0-3-1.3-3-3C708.8,190.7,710.1,189.4,711.7,189.4z"/>
						<path class="st4" d="M673.1,210.4c1.6,0,3,1.3,3,3c0,1.6-1.3,2.9-3,2.9c-1.6,0-2.9-1.3-2.9-2.9
							C670.1,211.7,671.5,210.4,673.1,210.4z"/>
						<path class="st4" d="M755.2,154.5c1.6,0,3,1.3,3,3c0,1.6-1.3,2.9-3,2.9s-3-1.3-3-2.9C752.3,155.9,753.6,154.5,755.2,154.5z"/>
						<path class="st4" d="M555.5,66.8c1.6,0,3,1.3,3,3c0,1.6-1.3,3-3,3c-1.6,0-3-1.3-3-3C552.5,68.1,553.8,66.8,555.5,66.8z"/>
					</g>
				</g>
				<g>
					<path class="st2" d="M588.4,493.7v-5.5l-8.4-1.1c-0.6-3-1.7-5.8-3.4-8.2l5.2-6.8l-3.9-3.9l-6.8,5.2c-2.4-1.7-5.2-2.9-8.2-3.4
						l-1.1-8.4h-5.5l-1.1,8.4c-3,0.6-5.8,1.7-8.2,3.4l-6.8-5.2l-3.9,3.9l5.2,6.8c-1.7,2.4-2.9,5.2-3.4,8.2l-8.4,1.1v5.5l8.4,1.1
						c0.6,3,1.7,5.8,3.4,8.2l-5.2,6.8l3.9,3.9l6.8-5.2c2.4,1.7,5.2,2.9,8.2,3.4l1.1,8.4h5.5l1.1-8.4c3-0.6,5.8-1.7,8.2-3.4l6.8,5.2
						l3.9-3.9l-5.2-6.8c1.7-2.4,2.9-5.2,3.4-8.2L588.4,493.7z M575.8,490.9c0,9.2-7.5,16.7-16.7,16.7c-9.2,0-16.7-7.5-16.7-16.7
						c0-9.2,7.5-16.7,16.7-16.7C568.3,474.2,575.8,481.7,575.8,490.9z"/>
					<path class="st2" d="M559.1,476.7c-7.9,0-14.3,6.4-14.3,14.3c0,7.9,6.4,14.3,14.3,14.3c7.9,0,14.3-6.4,14.3-14.3
						C573.3,483.1,566.9,476.7,559.1,476.7z M559.1,503.4c-6.9,0-12.4-5.6-12.4-12.4c0-6.9,5.6-12.4,12.4-12.4
						c6.9,0,12.4,5.6,12.4,12.4C571.5,497.8,565.9,503.4,559.1,503.4z"/>
				</g>
				<g>
					<path class="st2" d="M687.9,443.7h7.3v-3.3c1.1-0.3,2.2-0.8,3.2-1.3l2.3,2.3l5.1-5.1l-2.3-2.3c0.6-1,1-2,1.3-3.2h3.3v-7.3h-3.3
						c-0.3-1.1-0.8-2.2-1.3-3.2l2.3-2.3l-5.1-5.1l-2.3,2.3c-1-0.6-2-1-3.2-1.3v-3.3h-7.3v3.3c-1.1,0.3-2.2,0.8-3.2,1.3l-2.3-2.3
						l-5.1,5.1l2.3,2.3c-0.6,1-1,2-1.3,3.2h-3.3v7.3h3.3c0.3,1.1,0.8,2.2,1.3,3.2l-2.3,2.3l5.1,5.1l2.3-2.3c1,0.6,2,1,3.2,1.3V443.7
						z M685,427.2c0-3.6,2.9-6.5,6.5-6.5c3.6,0,6.5,2.9,6.5,6.5s-2.9,6.5-6.5,6.5C687.9,433.6,685,430.7,685,427.2z"/>
				</g>
				<g>
					<path class="st2" d="M633.1,507.5h8.4v-3.8c1.3-0.4,2.5-0.9,3.6-1.5l2.7,2.7l5.9-5.9l-2.7-2.7c0.6-1.1,1.2-2.4,1.5-3.6h3.8
						v-8.4h-3.8c-0.4-1.3-0.9-2.5-1.5-3.6l2.7-2.7l-5.9-5.9l-2.7,2.7c-1.1-0.6-2.4-1.2-3.6-1.5v-3.8h-8.4v3.8
						c-1.3,0.4-2.5,0.9-3.6,1.5l-2.7-2.7l-5.9,5.9l2.7,2.7c-0.6,1.1-1.2,2.4-1.5,3.6h-3.8v8.4h3.8c0.4,1.3,0.9,2.5,1.5,3.6l-2.7,2.7
						l5.9,5.9l2.7-2.7c1.1,0.6,2.4,1.2,3.6,1.5V507.5z M629.8,488.4c0-4.1,3.3-7.5,7.5-7.5c4.1,0,7.5,3.3,7.5,7.5
						c0,4.1-3.3,7.5-7.5,7.5C633.2,495.9,629.8,492.5,629.8,488.4z"/>
				</g>
				<g>
					<path class="st1" d="M521.8,547.1h6.8v-3.1c1-0.3,2-0.7,2.9-1.2l2.2,2.2l4.8-4.8l-2.2-2.2c0.5-0.9,0.9-1.9,1.2-2.9h3.1v-6.8
						h-3.1c-0.3-1-0.7-2-1.2-2.9l2.2-2.2l-4.8-4.8l-2.2,2.2c-0.9-0.5-1.9-0.9-2.9-1.2v-3.1h-6.8v3.1c-1,0.3-2,0.7-2.9,1.2l-2.2-2.2
						l-4.8,4.8l2.2,2.2c-0.5,0.9-0.9,1.9-1.2,2.9h-3.1v6.8h3.1c0.3,1,0.7,2,1.2,2.9l-2.2,2.2l4.8,4.8l2.2-2.2
						c0.9,0.5,1.9,0.9,2.9,1.2V547.1z M519.2,531.8c0-3.3,2.7-6,6-6c3.3,0,6,2.7,6,6c0,3.3-2.7,6-6,6
						C521.9,537.8,519.2,535.1,519.2,531.8z"/>
				</g>
				<g>
					<path class="st1" d="M671.9,479.2h5.5v-2.5c0.8-0.2,1.6-0.6,2.4-1l1.8,1.8l3.9-3.9l-1.8-1.8c0.4-0.7,0.8-1.5,1-2.4h2.5V464
						h-2.5c-0.2-0.8-0.6-1.6-1-2.4l1.8-1.8l-3.9-3.9l-1.8,1.8c-0.7-0.4-1.5-0.8-2.4-1v-2.5h-5.5v2.5c-0.8,0.2-1.6,0.6-2.4,1
						l-1.8-1.8l-3.9,3.9l1.8,1.8c-0.4,0.7-0.8,1.5-1,2.4h-2.5v5.5h2.5c0.2,0.8,0.6,1.6,1,2.4l-1.8,1.8l3.9,3.9l1.8-1.8
						c0.7,0.4,1.5,0.8,2.4,1V479.2z M669.8,466.7c0-2.7,2.2-4.9,4.9-4.9c2.7,0,4.9,2.2,4.9,4.9c0,2.7-2.2,4.9-4.9,4.9
						C672,471.6,669.8,469.4,669.8,466.7z"/>
				</g>
				<g>
					<path class="st1" d="M599.3,520h5.5v-2.5c0.8-0.2,1.6-0.6,2.4-1l1.8,1.8l3.9-3.9l-1.8-1.8c0.4-0.7,0.8-1.5,1-2.4h2.5v-5.5H612
						c-0.2-0.8-0.6-1.6-1-2.4l1.8-1.8l-3.9-3.9l-1.8,1.8c-0.7-0.4-1.5-0.8-2.4-1V495h-5.5v2.5c-0.8,0.2-1.6,0.6-2.4,1l-1.8-1.8
						l-3.9,3.9l1.8,1.8c-0.4,0.7-0.8,1.5-1,2.4h-2.5v5.5h2.5c0.2,0.8,0.6,1.6,1,2.4l-1.8,1.8l3.9,3.9l1.8-1.8c0.7,0.4,1.5,0.8,2.4,1
						V520z M597.1,507.5c0-2.7,2.2-4.9,4.9-4.9c2.7,0,4.9,2.2,4.9,4.9c0,2.7-2.2,4.9-4.9,4.9C599.3,512.4,597.1,510.2,597.1,507.5z"
						/>
				</g>
				<path class="st1" d="M536.5,316.7c0,3.8-3.1,6.8-6.8,6.8c-3.8,0-6.8-3.1-6.8-6.8c0-3.8,3.1-6.8,6.8-6.8
					C533.5,309.9,536.5,312.9,536.5,316.7z"/>
				<g>
					<path class="st2" d="M660.7,303.5v-6l-10-1.3c-0.6-3-1.8-5.8-3.4-8.2l6.1-8l-4.2-4.2l-8,6.1c-2.4-1.7-5.2-2.8-8.2-3.4l-1.3-10
						h-6l-1.3,10c-3,0.6-5.8,1.8-8.2,3.4l-8-6.1L604,280l6.1,8c-1.7,2.4-2.8,5.2-3.4,8.2l-10,1.3v6l10,1.3c0.6,3,1.8,5.8,3.4,8.2
						l-6.1,8l4.2,4.2l8-6.1c2.4,1.6,5.2,2.8,8.2,3.4l1.3,10h6l1.3-10c3-0.6,5.8-1.8,8.2-3.4l8,6.1l4.2-4.2l-6.1-8
						c1.7-2.4,2.8-5.2,3.4-8.2L660.7,303.5z M628.7,319.5c-10.5,0-19-8.5-19-19c0-10.5,8.5-19,19-19c10.5,0,19,8.5,19,19
						C647.7,311,639.2,319.5,628.7,319.5z"/>
					<path class="st2" d="M628.7,284.7c-8.7,0-15.8,7.1-15.8,15.8c0,8.7,7.1,15.8,15.8,15.8c8.7,0,15.8-7.1,15.8-15.8
						C644.6,291.8,637.5,284.7,628.7,284.7z M628.7,313.8c-7.3,0-13.2-5.9-13.2-13.2c0-7.3,5.9-13.2,13.2-13.2
						c7.3,0,13.2,5.9,13.2,13.2C642,307.8,636,313.8,628.7,313.8z"/>
					<path class="st2" d="M628.7,290.8c-5.4,0-9.7,4.4-9.7,9.7c0,5.4,4.4,9.7,9.7,9.7c5.4,0,9.7-4.4,9.7-9.7
						C638.4,295.2,634.1,290.8,628.7,290.8z"/>
				</g>
				<g>
					<path class="st2" d="M522.9,277.8v-4l-6.2-0.8c-0.4-2.2-1.3-4.3-2.5-6.1l3.8-4.9l-2.8-2.8l-4.9,3.8c-1.8-1.2-3.9-2.1-6.1-2.5
						l-0.8-6.2h-4l-0.8,6.2c-2.2,0.4-4.3,1.3-6.1,2.5l-4.9-3.8l-2.8,2.8l3.8,4.9c-1.2,1.8-2.1,3.9-2.5,6.1l-6.2,0.8v4l6.2,0.8
						c0.4,2.2,1.3,4.3,2.5,6.1l-3.8,4.9l2.8,2.8l4.9-3.8c1.8,1.2,3.9,2.1,6.1,2.5l0.8,6.2h4l0.8-6.2c2.2-0.4,4.3-1.3,6.1-2.5
						l4.9,3.8l2.8-2.8l-3.8-4.9c1.2-1.8,2.1-3.9,2.5-6.1L522.9,277.8z M513.6,275.8c0,6.7-5.5,12.2-12.2,12.2
						c-6.7,0-12.2-5.5-12.2-12.2c0-6.7,5.5-12.2,12.2-12.2C508.1,263.6,513.6,269.1,513.6,275.8z"/>
					<path class="st2" d="M501.3,265.6c-5.6,0-10.2,4.6-10.2,10.2c0,5.6,4.6,10.2,10.2,10.2c5.6,0,10.2-4.6,10.2-10.2
						C511.6,270.2,507,265.6,501.3,265.6z M501.3,283.4c-4.2,0-7.6-3.4-7.6-7.6c0-4.2,3.4-7.6,7.6-7.6c4.2,0,7.6,3.4,7.6,7.6
						C509,280,505.5,283.4,501.3,283.4z"/>
					<path class="st2" d="M501.3,271.2c-2.5,0-4.6,2-4.6,4.6c0,2.5,2,4.6,4.6,4.6c2.5,0,4.6-2,4.6-4.6
						C505.9,273.3,503.9,271.2,501.3,271.2z"/>
				</g>
				<g>
					<path class="st1" d="M675.7,43.7c0,0,144.7-13.2,145.5,142.4c0,0-1,15.5-3.1,21.2c0,0-3.4,11.2,3.9,20.3l28.8,41.1
						c0,0,23.1,14.4,8.2,28.4c0,0-11.4,10.5-22.7,15.6c0,0-3.7,1.1-4.1,8.9c0,0-0.2,7.6,0.5,9.2c0,0,6.9,5.9,5.9,11.4
						c0,0-0.4,9.8-11.7,11.6c0,0,10.1,3.7,6.8,14.9c0,0-0.7,4.3-9.2,7.3c0,0-8.7,4.1-6.4,18.1c0,0,5.3,26.1-10.1,33.6
						c0,0-16,12.1-42.3-0.9c0,0-25.4-11.4-52.1-16.2c0,0-35-9.1-54.9-32.3c0,0-24.2-29-16.3-49.4c0,0,6-16.7,2.7-31.6
						c0,0-2.5-6.6,3.7-22.2c0,0,3.6-16.2,1.4-24.3c0,0-1.2-19.6,11-38.2c0,0,10.3-16.4,13.1-30.6c0,0,2.5-24.5-1.1-43.4
						c0,0-2.3-15.3-1.4-36.1C671.6,102.5,667.1,46.3,675.7,43.7z"/>
					<path class="st5" d="M832.1,242l-10.1-14.5c-7.3-9.1-3.9-20.3-3.9-20.3c0.3-0.8,0.6-1.8,0.8-2.8c-4.7-2-9.9-3-15.2-3
						c-7.3,0-47.2,5-47.2,27s39.8,27,47.2,27C815.6,255.4,826.3,250.3,832.1,242z"/>
					<path class="st6" d="M791.5,210.2c-5.1,0-24.3,4.5-24.3,18.2c0,13.6,19.1,18.2,24.3,18.2c9,0,16-8,16-18.2
						C807.5,218.2,800.5,210.2,791.5,210.2z"/>
					<path class="st6" d="M820.7,306c4.6,5.6,14.9,7,14.9,7c0.4-0.2,0.6-0.3,0.6-0.3c11.4-5.2,22.7-15.6,22.7-15.6
						c4.8-4.5,5.6-9,4.6-13.1C859.7,296.7,820.7,306,820.7,306z"/>
					<path class="st4" d="M796.4,228.4c0,3.9-2.2,7.1-4.9,7.1c-2.7,0-13.2-3.2-13.2-7.1c0-3.9,10.5-7.1,13.2-7.1
						C794.3,221.3,796.4,224.5,796.4,228.4z"/>
					<path class="st6" d="M807.1,346.1c0,0-4.4,1.3-1.5,3.8l21.1,3.9c11.4-1.8,11.7-11.6,11.7-11.6c0.5-2.6-0.7-5.2-2.2-7.3l0,0
						C836.2,334.9,831.7,348.6,807.1,346.1z"/>
					<path class="st5" d="M833.5,368.7c3.4-11.2-6.8-14.9-6.8-14.9l-21.1-3.9c3.4,10.4,18.6,26.1,18.6,26.1
						C832.7,373,833.5,368.7,833.5,368.7z"/>
					<path class="st6" d="M729.5,394.6c-61.4-23.1-64.8-137.5-62.6-193c-3.1,6.4-6,10.9-6,10.9c-12.3,18.7-11,38.2-11,38.2
						c2.1,8.2-1.4,24.3-1.4,24.3c-6.2,15.6-3.7,22.2-3.7,22.2c3.4,14.9-2.7,31.6-2.7,31.6c-7.8,20.4,16.3,49.4,16.3,49.4
						c19.9,23.3,54.9,32.3,54.9,32.3c26.7,4.8,52.1,16.2,52.1,16.2c26.3,13,42.3,0.9,42.3,0.9c4.8-2.3,7.6-6.5,9.2-11.1
						C783.9,419.5,729.5,394.6,729.5,394.6z"/>
				</g>
			</g>
		</g>
	</g>
</g>
</svg>
